<?xml version="1.0" encoding="UTF-8"?><svg id="Camada_1" xmlns="http://www.w3.org/2000/svg" viewBox="380 0 1540 1080"><defs><style>.cls-1{fill:#baaea4;stroke-width:0px;}</style></defs><path class="cls-1" d="M883.55,514.91l-144.75,389c11.2,24.14,21.33,40.53,30.38,49.16,9.05,8.6,14.44,13.77,16.18,15.5h-76.25L426.05,205.95c-14.68-36.16-27.83-60.27-39.48-72.35-11.62-12.06-19.57-19.4-23.87-22h98.25c-4.34,1.74-6.31,9.28-5.88,22.63.45,13.35,6.28,34.67,17.48,63.98l16.8,45.25c19.83-40.5,48.49-73.03,85.98-97.57,37.47-24.55,78.19-36.82,122.12-36.82,47.4,0,90.25,13.79,128.57,41.35,38.35,27.58,65.73,62.9,82.13,106l240.4,641.05,259.8-697.96c10.32-29.3,15.91-50.82,16.74-64.6.86-13.8-1.7-21.57-7.69-23.3h51.7c-3.48,2.6-10.8,10.38-22,23.3-11.2,12.9-22.84,36.58-34.9,71.05l-259.8,697.96c11.2,24.14,21.33,40.53,30.38,49.16,9.05,8.6,14.44,13.77,16.18,15.5h-76.25l-208.1-560.96c-3.48,16.38-7.79,33.6-12.95,51.7-5.18,18.1-11.2,36.64-18.1,55.6ZM727.2,876.81l7.75,20.65,143.45-386.45c25.86-68.92,38.8-127.53,38.8-175.8.82-40.46-8.88-77.49-29.13-111.09-20.25-33.63-46.98-60.58-80.15-80.83-33.15-20.25-69.97-30.38-110.47-30.38-46.54,0-88.11,12.71-124.73,38.12-36.63,25.43-63.98,57.53-82.08,96.33l236.56,629.46ZM998.6,205.95l-3.85-6.45c10.32-28.42,15.91-49.75,16.74-63.98.86-14.21-1.7-22.19-7.69-23.93h55.55c-1.74.88-8.64,6.9-20.7,18.1-12.03,11.2-25.38,36.63-40.05,76.25Z"/></svg>