<svg xmlns="http://www.w3.org/2000/svg" id="Camada_1" viewBox="0 0 1920 1080"><defs><style>.cls-1{stroke-width:0}</style></defs><path d="m401.1 622.8-38.7 104a46 46 0 0 0 12.5 17.3h-20.4l-75.7-204q-6-14.5-10.6-19.3a43 43 0 0 0-6.4-6h26.3q-1.8.9-1.6 6.1.3 5.4 4.7 17.1l4.5 12.1a65 65 0 0 1 23-26 58.5 58.5 0 0 1 67 1.2 61 61 0 0 1 22 28.3L472 725l69.5-186.6a73 73 0 0 0 4.4-17.3q.4-5.5-2-6.2h13.8q-1.5 1-5.9 6.2a62 62 0 0 0-9.3 19L473 726.8a46 46 0 0 0 12.5 17.3H465l-55.7-150a208 208 0 0 1-8.3 28.6Zm-41.8 96.7 2 5.6 38.4-103.4q10.4-27.5 10.4-47a54 54 0 0 0-7.8-29.7 63 63 0 0 0-21.4-21.6 56 56 0 0 0-29.5-8.1 57 57 0 0 0-33.4 10.2 64 64 0 0 0-22 25.7zm72.6-179.4-1-1.7a68 68 0 0 0 4.4-17q.4-5.8-2-6.5H448a58 58 0 0 0-5.5 4.8 58 58 0 0 0-10.7 20.4" class="cls-1"/><path d="M836.7 512c-.8 1.6-.6 3.5-1.9 5-1.2.8-.4 2.7-1.4 3.8-1.6 1.2-.5 4.5-2.8 4.5q.8.9 0 2l-1.5 4c-1.3 4.3-3.2 9-5.5 12.8.6.8.2 1.4-.2 2-1.3 1.5-1 3.7-2.2 5-.6.9 0 2.2-1 3-1.2 1.5-1.4 3.3-1.9 5-1.8 3.2-2.3 7.3-4.6 10.3q-.2 1.7-.7 3.3c-.2.7-1 .2-1.5.2v.9c.8.4.9.4.6 1-1.5 2.1-1.6 4.7-3 7-1 4.5-3.8 8.5-5 13-.1 1.6-1.2 3-2.2 4.2.8 1.3-.7 2.1-.7 3.3l-16 40.4c-1.3 2.5-1.8 6.2-3.7 8-.8 0-1.5.8-2.4 0l-.4-.1c-1.3.7-2.1-.4-3.2-.8-.5 1.6-1.6.5-2.5 0v-1c-1.4 0-2.2-1.7-1.9-3q.2-.7-.3-1.3c-2.4-3-2.5-7-4.5-10.1-.5-.8.3-2.1-1-2.7q-1.4-3.3-2.4-6.8c-4.9-11.9-9.2-23.2-14-35.3-1.3-3.2-1.8-8.1-4.8-9.9q-.3 2.8-2 5.2h.1c-4.3 11.2-8.3 22.7-13.4 33.4-.5 2.8-1.8 5.4-2.9 8.1-.1.8-1.3.9-1 2-2 7.4-6.2 14.4-8.3 21.9q-.2.9-1.1.6c-2.4-.6-4.8.7-7.2 0-3.7-2-5.5-11.8-7.2-15.9-12.5-30.7-23.8-60.5-36-92l-5-13.2c-1.9-5.5-5.4-11.4-6-16.8-2.8-1.4 2.9-1.8 3.7-1.3 1.3-.8 2.6.4 4 0q.8-.2 1.3.8l4.9 12.3c.7 1.5 1 3.2 1.9 4.6.7 1.2-.7 1-.3 1.7 2.8 2.8 3.2 7 4.8 10.3.3.7.8 1.4.5 2.2q-.1.4.2.6c2.8 4.7 3.8 10.1 6.2 15 .5 2.8 2.3 5.3 3.3 8.2 1 5 4.2 9.4 5.2 14.6.1 1 1 1.4 1.4 2.3 0 2 1.4 3.8 1.7 6 2.7 4.5 3.6 9.8 6.1 14.4l.5 1.1c.1.5-.7 1-.1 1.4q2.6 4.4 4 9.5c1.7 1.8 10.5 31.3 11.6 25.8 6.7-16.2 12.9-32.7 19.5-48.9l1.6-4q2.4-6.4 5-12.7c.6-2.9 2.4-2.3 1-5.6-1.5-2.4-2.3-5.4-3.4-8.1-.3-.7 1.2-1.3.2-1.6q-.7.1-.9-.4-1.6-3.5-2.8-7c-.5-3.2-3.3-5.9-3-9q-1.1-1.7-1.8-3.7c-.5-1.4-1.5-2.7-1.8-4 .4-1.4-.5-2.3-1.1-3.2q-.8-.9-.2-1.9c-3.6-5.8-5.2-13.5-8.3-19.8-.5-1.7 6.3-.7 7.5-1 1.6 0 2.5.4 2.8 2q5.4 13.2 10 26.2c1.4 2.8 2.3 6 3.7 9q.2.5-.3 1.1-.3.6.4.6c.9.3 1 1.7 1.5 2.4.3 2.2 2.7 4 2 6.3 1 2 1.7-1.8 2.6-2.3 3.3-10.4 8.5-20.6 11.9-31 1.4-3.2 3-6.4 4-9.8 1.6-2.7.8-5.1 5-4.3 2.1.8-2 7.3-2.6 9-2.6 7.6-5.8 14.8-8.7 22.2-2.6 6.6-4.9 13.2-7.8 19.8-2.9 5.5 3 11 3.8 16.6 2.5 5.5 4.4 11.3 6.8 16.9 1.1 4.5 3.3 8.6 4.9 13 4.5 10.7 8.3 22.2 12.6 32.8.3.8.3 2.7 1.4 2 .3-.5 1-1 .3-1.7q5-12.6 10.4-25.5 5.5-15 11.7-29.9c.5-1.1.5-2.5 1.6-3.3.4-.6-.2-1.6.3-2.2 1.2-2.7 3-5.3 3.3-8.2.5-.8.6-2 1.6-2.5.6-5.3 4-10 5.5-15.2 1.8-5 4.2-10 6-15.1l6.5-16.1c2.1-4 2.5-9.3 5.4-12.8 1-.7 2.2.4 3.4.1zM656 516.5l.1-.3q-.3 0 0 .3m1-.8q-.5 0-.8.3.6 0 .7-.3m0-2.6v-.2l-.2.2zm1.1.9q-.4.2 0 .4.4-.1 0-.4m.2 3c0-.5-.7-.1-.2 0zm1.3-1.5-.1-.2q-.3.3 0 .4zm-.1 2.5q-.3 0 0 .3zm.2-5.2.1.1zm.9 16.7-.3.2q.3.1.3-.2m0-12.7v-.2q-.3.1-.1.3m1.3 6.4h.2v-.2zm.2 2.4q-.3 0-.1.2.2 0 0-.2m1-6 .3-.2-.2-.1q-.2 0 0 .3m0 7.5.2-.1q-.2-.1-.2 0m0 5h.2zm.2-10v-.2h-.2zm-.2 7.5.3-.1zm0-5.1h.2zm.3 10q-.2 0-.1.2.2 0 .1-.2m1-1h-.2l.2.2zm0-7.8q0 .2.2.2zm.2-2.4v-.2l-.1.2zm1.4 19.1q-.4.1-.7.5.6 0 .7-.5m-.4-12.5q.4-.1.1-.4-.4 0-.2.4m.2 9.8-.2.2c0 .5.7-.1.2-.2m.2-12.8q-.2 0-.3.2zm0 7.6h-.2v.2q.2 0 .1-.2m1.2-1q0-.3-.3-.1.1.4.3 0m0 2.6v-.2h-.2q0 .3.2.2m0 7.8h-.2v.1zm.2-15.4q-.3-.7-.4 0zm1 16.7h-.2zm.2-7.8q0-.5-.4-.2.2.5.4.2m-.3-7.7q0 .3.3 0c0-.3-.5-.3-.3 0m.3 12.6v.2zm1-.9h.3c.2-.5-.5-.5-.4 0m0-5.3.2.1v-.1zm1.6 16.7q-.2-.5-.4-.1.1.5.4 0m-.4-15.6.2.2v-.2zm.2 5.2v.2l.2-.1zm1.2 16.7v.2zm0-10.5q-.2.2 0 .3.5 0 0-.3m.2 5.2h-.3l.2.2zm1 6.6v.1zm0-7.7v.3q.5-.1 0-.3m.2 5.2-.2-.1v.2zm.1-12.8v-.2zm1.4 11.7q-.2-.3-.5-.2l.3.3zm-.1 2.5-.2-.3c-.4 0-.1.6.2.3m-.4-7.7q.1.3.5.2 0-.4-.5-.2m.2 2.3q0 .2.2.3.3-.5-.2-.3m1.4 4q0-.3-.3-.1c-.2.2.2.3.3 0m-.3-10.2.2.1v-.1zm.1 7.5q-.2 0 0 .3.4 0 0-.3m.2 7.8q0-.3-.3 0zm0-13q-.3.2 0 .3zm0 18q-.3.3 0 .3zm0-2.2v-.2l-.1.1zm1-11.7q.1.4.4 0-.2-.4-.4 0m0 7.9q.3 0 .2-.5-.3.1-.2.5m.4 10h-.3q0 .3.3 0m0-12.9q-.3 0-.3.3h.4zm.3 9.7q-.5.2-.5.7.5 0 .5-.7m-.5-2c-.1.2.3.3.3 0q0-.2-.3 0m.2-10h-.2v.1zm.4 12q.6 0 .8-.5-.6-.2-.8.4m.5-8.2.2-.2-.1-.1q-.3 0-.1.2Zm.4 5-.2-.2c0 .2-.3.4 0 .6zm-.2 7.6q-.2.2 0 .3.2-.3 0-.3m1-3.6h.4c.1-.6-.6-.5-.4 0m.4 2.5-.2-.1c-.5 0 0 .6.2 0m-.2-7.5.2-.1c-.2-.4-.7 0-.2.1m0 12.4h.2m0-10 .2.1q.3-.2-.2-.2m1.4 6.2c-.5-.3-2 1.3-1.2 1.5.5-.3 1.5-.8 1.2-1.5m-1.4-14q0 .3.3.2 0-.4-.3-.2m1.4 6.6-.1-.3zm.3 10.1-.3-.2q-.3.6.3.2m1.2 9q-.3-.4-.5 0c0 .3.5.2.5 0m0-13c-.1 0-.3-.3-.4 0-.2.4.3.3.5 0m0 5.3c0-.4-.7 0-.3 0zm-.4-10.3q0 .3.2.1 0-.3-.2 0m.4 7.7q-.1-.3-.4 0 .1.1.4 0m-.4-10 .2-.1-.1-.1zm0 17.5v.2h.3zm1.5-6-.1-.4q-.3.2 0 .5zm-.1 2q-.3.1 0 .4.1-.1 0-.4m0 2.7v.3zm0-12.4v-.3zm.1 2.1c-.3 0-.2.4 0 .3q.2-.2 0-.3m1.5 9.5q0-.7-.6-.3c-.2.4.3.6.6.3m-.6-2.8.4.3c.4-.3-.1-.7-.4-.3m.3 7.6h.2c0-.5-.7-.1-.2 0m-.1-2.7v.1h.1zm1-6.8q-.2-.5-.8-.8c-.7.3.4.8.8.8m-.6 17.2h-.2v.2zm0-5.5-.1.5q.3-.2.2-.5m1-.9-.9.8c.4 0 1.5-.5.8-.8m-.3-10.8c0 .5.4 1.3.5.5zm.3 8.4q.1-.2-.1-.3c-.3.1-.1.5.1.3m0-5.5q-.4.2 0 .3zm0 2.6c-.2 0-.3.5 0 .5.4 0 .3-.5 0-.5m1.2 1.7q.4 0 .2-.4-.5 0-.2.4m-.2-5.5q0 .3.3.2 0-.3-.3-.2m0 2.8q.3.4.5 0c0-.3-.5-.3-.4 0m0 5h.3l-.2-.2zm.3 13-.2.1q.3 0 .2-.2m0-10.4v.2h.2zm.1 7.5v.3zm1.2 4c-.4 0-.2.4 0 .3q.3-.3 0-.4m0-10.2.1.1v-.1m.3 7.7-.2-.1v.1zm1.1-6.4q0-.2-.4-.2c-.3.3.5.8.4.2m0 5.3c-.2-.4-.6.1-.2.2zm-.3-10.5h.2l-.2-.2zm.4 2.7-.2-.2v.3zm1 16.6h-.2v.1zm.2-5.3-.3.1q.3.2.3 0m0 2.6h-.3v.1zm1.2-1.3q-.1 0 0 .2zm1-1q.2-.1 0-.2zm.3 5.2v-.2c-.4-.3-.4.6 0 .2m.4 4.5q-.7 0-.6.6.6 0 .6-.6m-.6-2q0 .4.4 0-.2-.3-.4 0m.7 2 .4 1.7q.1.5.4.2 0-.5-.4-.2Zm2-4.6c0-.3-.4-.3-.3 0q.1.4.4 0m.1 15.4q-.1-.1-.4 0l.2.1zm-.1-13h-.2q0 .4.2.4zm1.4 9h-.3l.2.2zm-.2 2.5v.3q.3-.1 0-.3m.3-7.5q0-.3-.2-.2-.3.4.2.2m.1 13v.1zm1 1.1h-.2q0 .3.2.1m-.2-15.2h.2zm.3 7.5-.2.1h.2m1.2 3.9v-.2c-.4 0-.1.6 0 .2m-.2 5v.2l.1-.2zm.2 2.6h-.2v.2zm.1-5.4h-.2l.2.2zm1 6.5-.2.1.2.1zm0-7.4h.2q-.2-.3-.3 0m.3 5q0-.2-.3 0l.1.1zm1.1-6.3v-.2c-.5 0 0 .7 0 .2m-.1 7.6q-.2.2 0 .2.3-.2 0-.3m1.3-1.4-.1.1h.1m1.5 11.8c0-.4-.6 0-.1 0zm1.3-9h-.2v.1zm1.3 14q-.3-.2-.3 0 .3.2.3 0m1-8.6.1-.1v-.2q-.3 0-.2.3m.2 12.6v-.2h-.1q0 .3.2.2Zm-.1-2.7v.1l.1-.1zm1.4-6.3-.2-.1v.1zm1.3 3.7h-.2v.2zm10.1-126v.2zm.4-2.4-.2-.1v.2zm1 1.6.1-.2v-.1q-.3 0-.1.3m.1 2.4v-.2q-.3 0-.1.2zm-.2-5.1h.2v-.2zm2.8 10.2-.1-.2q-.5.1-.2.4zm0-2.8q-.3 0-.2.3.3 0 .1-.3m1.3 4c-.2-.4-.7 0-.2.1zm0 5h-.4l.2.2zm-.2-15 .2-.1-.2-.1zm1.4 8.8v-.2c-.5.2 0 .6 0 .2m0-2.6c-.2-.4-.4.4 0 .2zm0 7.7v-.2q-.3 0-.2.3zm-.2-2.6h.2v-.2q-.3 0-.2.2m.1 5v.2zm0-12.7v.2zm1.3 8.9h-.2zm.5 14.4.6-10.7v.2c.1.5.5-.3 0-.2Zm.7-13q.2 0 0-.2zm1.1 6.2.2.1v-.1zm.5 8q0-.4-.4-.1.1.4.4.1m-.4-13h.2zm0 2.5h.2v-.1zm1.5 9.3v-.2q-.3 0-.2.3zm0 2.5h-.2v.1zm1 49.8-.3-.1q0 .4.4.1m0-48.5v.1h.3q-.1-.3-.4-.1m0-5.4h.2l-.2-.2zm.3 8c0-.4-.6 0-.2 0zm-.1-10.2c.3 0 .2-.4 0-.3q-.3.1 0 .3m.1-5.4v.2l.1-.1zm.8 17.4c-.5 0-1.2.7-.5.5zm.4-.6c-.3-.3-.3.3-.3.5zm-.3 40.6.2.4q0-.3-.2-.4m.3 3h-.2v.1zm0-38.6q-.2 0-.2.2.3 0 .1-.2m.1-12.9-.2.1q.2.1.2 0m1.3 16.8q0-.3-.3 0zm-.3-2.6.2.2q.3-.4-.2-.2m0-2.4.3-.1zm.4-10.4v-.2q-.3 0-.2.2zm1.3 14.3-.3-.4q-.5.7.3.4m-.5-5.4v.4q.8-.5 0-.4m0-9.8q.4 0 .2-.3-.3 0-.1.3m.2 45.8h-.1v.2zm1.5-29.4c0-.3-.5-.3-.5 0-.1.5.4.3.5 0m-.1 4.9q-.5 0-.2.4.5-.1.2-.4m-.1-10c0-.4-.6 0-.1 0m.2 2.3-.3-.3c-.3.3.2.8.3.3m-.2 28.4h-.2l.2.2zm-.1-33.2.2-.1q-.2-.1-.2 0m.2-5.2v-.3zm1.3 31.9-.4-.2q0 .3.4.2m-.1-23v-.1c-.3-.5-.5.4 0 .2m-.1-5.2.2.3.2-.1q-.2-.4-.4-.2m.6 14.9v-5.1 26.2l.1-26.3v5q.8 0 .8-.6-.5 0-.7.6Zm.2 7.4v-10.1l.4-5.8q0 .3.3 0h-.3Zm.4-18.4q.3 0 .2-.2zm.1 15.4c.1.5.5-.2 0-.2zm.1 7.6q-.1.2.1.3.1-.3-.1-.3m1.6-3.7c-.2 0-.4-.3-.6 0q.1.5.6 0m-.5-7.8v-.3zm0-2.4q0 .2.3 0v-.1zm0-2.5.2.1.2-.2h-.3Zm.1-5.1h.1zm.2 22.7h-.2c0 .4.7.1.2 0m0-10h.1l-.2-.1m1.1 8.6-.3.4c.2.5.7 0 .3-.4m.3-2.1-.1-.4c-.7 0-.2 1 0 .4m-.3-7.8q.3.3.2-.2-.3 0-.2.2m0-5.2q.2.4.3 0-.2-.3-.3 0m.3 7.8-.2-.3c-.3 0 0 .3 0 .5zm-.2 2.5q-.2-.4-.2 0m1.5 1.3q-.2-.3-.5 0c0 .3.3 0 .5 0m-.4-10.1q.5 0 .2-.4-.5 0-.2.4m.3 15h-.2c-.6.1.3.5.2 0m-.2-10.1h-.2c0 .4.7 0 .2 0m0 7.8.2-.1q-.1-.1-.4 0zm.2 5q-.2-.3-.3 0zm-.3-10.2h.2zm1.1 3.9.3.2c.4-.2-.3-.9-.3-.2m.2 5c.1.5.5-.3 0-.2m0-15.3c.1.5.5-.2 0-.2zm.2 5h-.2l.2.3v-.4Zm.3 13h-.4l.2.2zm.7-19.3h.4c.2-.3-.4-.4-.4 0m.4 17.8c-.2-.4-.7.1-.1.2zm-.3-2.1q.3 0 .5.4c.3-.7-.9-1.5-.5-.4m.4-10.3c0-.3-.5-.3-.4 0q.2.4.4 0m-.2 17.5h-.2zm1-6.1c.6-.1-.1-.8-.6-.7zm.3 2.4q0-.2-.3 0 .1.4.3 0m-.2-10.2v.2zm0 2.5v.2l.2-.2zm.2 10.3h-.2c0 .5.6 0 .2 0m.6-7.3.7.8q0-.6-.6-.7 0 .6.6.7Zm.7 5.9-.3.3c.2.5.6 0 .3-.3m-.3-7.6h.2zm3 12.8-.1-.2c-.4.2 0 .6.1.2m0 2.5h-.2v.2zm.1-10.5q-.2.1-.2.4.3 0 .2-.4m1.1 9.4q0-.3-.3 0zm0 5h-.3q.3.2.3 0m0 2.5h-.2zm1.3 1.6q0-.3-.4 0 0 .1.4 0m-.3-7.6.2-.1v-.3q-.3.1-.2.3m.2 4.8.1-.1zm1 6.4.1.2v-.2m.1 5.3v-.2zm.3-8h-.3q0 .3.3 0m-.2-56.4q.1.4.5.5 0-.5-.6-.5m0 51.5h.2l-.2-.2zm1.3 16.7q0-.3-.2-.2-.3.3.3.2m.1-7.8h-.2c-.5 0 .3.5.2 0m.6 9.5h.2l.3-8 .2-.3c-.4-.3-.7.4-.2.3Zm.3-10.7q.2.4.4 0-.2-.4-.4 0m.5 5.4q-.1-.3-.5 0 .2.2.5 0m-.4-8.1h.2zm.4 15.7q-.2-.3-.3 0zm.8-1.6q.1.5.4.2 0-.5-.4-.2m.4-5q0-.3-.3-.1-.1.4.3.1m-.2-5 .2-.2c-.2-.5-.7 0-.2.3m.2 15.4h-.2l.1.2zm-.1-7.8q0 .6.7.6-.2-.6-.7-.6m.8.7.5 13.4q-.2-.1-.5.2l.5-.2Zm.3-4.4-.1-.3v.2m-.2-2.9.1.2.1-.1zm0 10.5h.4v-.2q-.4-.1-.4.2m.2 4.8c-.3 0 0 .4.2.3q0-.3-.2-.3m0-94.6.2.2c.4-.2 0-.6-.3-.2m.5 92.3-.1-.2-.3.2q.2.4.4 0m-.4-7.9q0 .3.3.1 0-.2-.3 0m.2-82.1h-.2l.1.1zm1.2 93.8c-.2-.3-.3.1-.1.3q.2 0 .1-.3m-.2-7.7.2.3v-.4zm.2 2.4q-.4.1 0 .4zm0 10.2q-.3.2-.1.4.3-.1 0-.4m-.2-102.5.1-.1zM765 619l.2.1v-.2zm.3-2.4.2-.1c-.2-.4-.7 0-.2 0m-.2-95.2h.2l-.2-.1zm.4 102.7c-.2-.4-.6 0-.2.1zm-.2 5h-.1v.1zm-.1-15 .2-.1-.2-.1zm1 16.6c.5.2.4-.2.2-.4q-.3.2-.1.5m.2-7.6q.3-.2 0-.5-.2.2 0 .5m0 2.1v.2c0 .5.4-.2 0-.2m0 2.5q-.1.2.1.4l.1-.2zm0-7.3q.3-.2.1-.3-.3 0 0 .3m.1 12.5c-.2.1 0 .5.2.3q.1-.3-.2-.3m1.5-6.1c0-.3-.5-.3-.5 0s.5.3.5 0m0 5q0-.3-.3-.2-.1.3.3.1m.2-7.7q.2-.4.6-.7c-.7 0-1.9 1-.6.7m.6-.7.3-.6c-.3-.3-.3.3-.3.6m0 2 .4.3c.7-.1-.4-1-.3-.3m.1 5.2q.3 0 .1-.2-.2 0 0 .2m0-10.4.2-.1zm.1 18q.2.3.3 0zm.3 2.6h-.2zm.4-13.4q.8-.3.6-.9-.6.2-.5.8Zm.7 14.8-.1-.2c-.5-.1 0 .6.1.2m-.2-10.2q.5-.1.2-.4-.5 0-.2.4m.4 2.6q-.2-.4-.4 0 .1.4.4 0m-.4-10.5q.2.1.2 0-.1-.2-.2 0m.2 12.5-.2.1q0 .3.3.1zm.2 2.8-.1-.2c-.4.3 0 .8.1.2m-.1-10q.2 0 .1-.2c-.2-.2-.3.2-.1.3m1-1.3q.2-.2 0-.2zm.4 15.4-.3-.3q-.3.8.3.3m-.2-5.4h-.2c-.1.6.6.2.2 0m0 7.7q-.3.5 0 .3t0-.3m0-10.1q-.1.6.6.8 0-.7-.7-.8m0-2.5h.2zm.2 7.5-.3.1zm.4 8.5q0 .3-.2.4-.2-.3.2-.4m0 0v-.1m0-12.7.6 10.6q-.6.1-.5 1c.3-.3.8-.5.5-1Zm.6 3.4.2-.1c-.2-.4-.6 0-.2 0m-.2-5.6c0 .6.7.5 1.1.6q-.6-.7-1-.6m.4 7.5q-.3.3 0 .4zm0 2.9v-.2l-.1.2zm1.2-9q0-.3-.5-.8c0 .3 0 1.1.5.8m.1 5.2-.2-.3c-.6.2-.1.7.2.3m-.3-2.7q0 .3.3.1 0-.3-.3-.1m2.2 4.8c-.4-1.6-1.5-1.3-2.1 0 0 .8 1.5-.3 2.1 0m-1.5 3.5q0-.6-.6-.7 0 .7.6.7m0 2.6.8-1.9q-.1-.5-.7-.5.1.5.7.5Zm.6-4.6-.3.3c.4.3.8 0 .3-.3m0-5c.1.5.5-.2 0-.1zm2.9 2q-1 1-2 1.6.2.7 1 1c0-1 1-1.6 1-2.5m-1 5q0-.6-.6-.6-.2.5.6.7m2.1-.4c0-.8-.6.1-.5.5h-1.5c.8 1.6 1.2.2 2-.5m-2-2c.2.3.5 1 .7.6s-.4-.5-.7-.6m3.2.4v.3zm1 1.4q0 .3.3.3.3-.5-.2-.3m1.6-4v.2zm1.4-6.2h-.2zm2.7-7.7v-.2l-.2.2zm2.4-5.3-.1-.1c-.5 0 .1.7.1.1m.7-2q-.1-.3-.6-.4.3.4.6.4m.3.6-.1-.3zm.2-5h-.3q0 .3.3 0m1.4-1.2-.2-.1c-.4 0 .1.5.2 0m0 2.7v-.2zm1.3-3.8q0-.3-.2-.4-.4.4.2.4m.3-3.2-.3.1zm.2-.2 4.7-12.3q-.3 0-.3.2.5.3.3-.2Zm5.9-13.6h-.2v.2zm-.2-2.5.1-.1zm1.5 1.2h-.2v.1zm0-2.5h-.2v.1zm.1-2.3v-.2zm1-4.2-.2-.3q-.1.4.2.3m0 7.7.1.1q.1-.2 0-.2m.7-4.5h.1l1.9-8.3q-.4.2 0 .4.4-.2 0-.4Zm3.4-9.5v-.1l-.2.1zm1.2-1.4h-.2zm2.5-7.5q.1.4.5.6-.1-.5-.5-.6m.5 1.8.9-5.6v-.2l-.2.2h.2Zm4.6-14.8v.3c.3 0 .2-.4 0-.3m6.6-16.6q-.1-.4-.3 0 .2.4.3 0m-.3-2.6q.1.5.3 0zm1.6 1.5q-.1-.3-.4-.2l.2.3zm4.9-13.1q0 .2.2 0zm0-5h.2v-.2zm.3 8 1.5-6q.1-.6-.4-.7l.4.7Zm1.5-4 .9-6.5-.1-.2v.2Z" class="cls-1"/><path d="M892.3 645.1c.1 3.2-1.4 7-5.1 7.6-1.3-.1-2.5.6-3.7.2-2.5-.7-5.2-3.3-5-6-.4-1.1.2-1.8.4-2.8-.4-1.9 1.1-2.8 2.1-4 4.3-2.7 11.2-.6 11.3 5m-9.6-2.4h-.2l.1.1zm1 6.4.3.2q.3-.7-.3-.2m.3-7.6v.2zm1.4 9-.1-.3c-.4 0-.2.5.1.3m-.3-7.6h.2zm.7 2.8.6 3.4v.2c0 .5.4-.3 0-.2Zm.7-4.2v.2l.2-.2zm1.2 4h.2v-.2zm.2 2.5-.1-.1v.2zm2.7-5.2.1-.2h-.1z" class="cls-1"/><path d="m1058 521.8-1.2 3-17.8 45c-1.4 2.5-1.8 5.7-3.4 8.4-1 1.4-.6 3.3-2 4.6-.1.3-.5.6-.4 1-.1 2-1.7 3.3-1.8 5.2q0 1.3-1.4 1.5c-.2 4.7-3.1 8.9-4.6 13.3-5.7 15.5-12.3 31.1-18.3 46.5-.7 1.7-2.2-.3-3.5.6-.9.5-1-1.3-1.8-.4-1 1-1.9-.8-2.9.2-1 .8-2-1.7-2.3-2.5-.3-2.6-2.8-5-2.1-7.5q.2-.4-.3-.3-.9 0-1-.6c-1-4.3-3-8.3-4.7-12.4a9 9 0 0 0-1.5-3.9c-.4-.6.4-1.2-.3-1.8-1.7-1.9-2-4.6-2.8-7-.4-1.4-1.5-2.4-1.7-4-.4-1.9-1.7-3.4-1.8-5.3-2.3-4-3-8.9-5.5-13.2-1.8-5.7-4.5-11.4-6.5-17-.7-.5-.7-1.6-.8-2.4-.7-2.7-2.7-5.3-3-8-1.4-.3 0-1.8-1-2.5q-.6-.4-.7-1c-.3-2.1-1.7-4-1.9-6-1.6-2.2-1.7-5-3.2-7.1-.4-1.8-1.8-3.5-1.4-5.5-3.2-4.7-4.2-11-7-16 .3-1.5-.7-2.5-1.3-3.6l-4-10.7c.3-1.6 4.8-.3 6.4-.8 1.4 0 3.2-.5 3.6 1.1 0 2.6 2.2 4.2 2 6.6 5.4 10.7 9.3 23 13.3 34.1q1.1 1.1 1.5 2.6c0 1.8 1.6 3 1.8 4.7-.2 2 2.1 3.4 1.2 5.5 1.8-.1 1.6 3.8 2.5 5.1 1.4 1.2.7 3.5 2.2 4.7 1.6 2-1 2.7-1.2 4.4.9-.2.9-.9 1-1.6 2.6 0 1.5 3.2 2.7 4.6.4.8 1.4 1.6.7 2.7q1.8 2.2 2.6 5c.2 1.3 1.6 2.3 1.3 3.7q0 .5.3.9c.5.9 1.8 2 1 3v.5c1 .2.8 1.2 1.3 1.7 1 .7-.4 1.6.2 2.3.6.8 1.7 1.8 1.5 3 5.4 12 9.5 24.8 14.7 37 .4 1 1.7-1.7 1.9-2.2 2.5-7.6 5.8-14.8 8.5-22.4 1.4-2.5 1.8-5.5 3.6-7.7 1-.4 0-1.3.3-2q.9-1.9 1.6-3.9c1-1.8 1.2-3.8 2.3-5.5.7-.8 1.4-1.7 1-3q.3-1.7 1.5-2.7c0-2 1.3-3.6 2-5.2-.2-1.4 1.2-2.2 1.2-3.5 0-1.8 1.4-3.1 2.1-4.4 0-2.5 1.2-5.1 2.6-7.2 1.6-4.8 3.3-10 5.7-14.3q8.7-23.7 18.5-46.8c0-1.2 2.4-.7 3.3-.5 2.7.9-3.3 8.2-2.8 10Zm-112.2-7.2v-.1l-.1.1zm1.5 3.6v-.1l-.2.1zm0-2.6v-.1l-.1.1m1.2 6.3h-.2zm1.3-6.2c-.5-.5-1.6.7-1.4 1.2.6.2 1.5-.7 1.4-1.2m0 2.4q-.3 0-.1.3.3 0 .1-.3m0 2.7v-.2l-.1.2zm1-3.6v-.2zm.4 2.4c-.1-.5-.7 0-.3.3zm-.4-5.2h.2v-.1zm.3 10q-.2 0-.1.2.2 0 .1-.2m1.3-1.1-.1-.3c-.6.3-.1.9 0 .2m0-7.7h-.2v.2zm.8 1.1h.2v-.2zm.3 5.2h-.2l.2.2zm.2-7.6h-.2zm1.3 11.4c-.3-.4-.5.5 0 .2zm-.3-7.6.1.2.1-.2zm.2 10.3v-.2l-.2.2zm0-5.3-.1.2zm1.4 1.5v.2q.2-.2 0-.2m1 13.7v.4q.3-.2 0-.4m.2-12.4-.1-.2v.3zm1.1 19.4.2-.1q-.1-.4-.4-.2zm.3 2.1q-.2 0 0 .3zm1.3-10.9-.2-.3c-.4.1 0 .7.2.3m-.3 2.6v-.2zm.3 2h-.2l.2.2zm1.1 11.7h-.1zm2.6-2.4c-.6-.4-1.7.6-1.6 1.2.4.4 1.6-.7 1.6-1.2m-1.5-1.2q.3-.1 0-.4-.1.2 0 .4m.2 7.1q-.5.1-.2.4.5 0 .2-.4m1-8.7.3.3c.3-.3-.1-.7-.3-.3m.4 8q.1-.5-.3-.3-.1.5.3.3m.6 1.6q-.8 0-1 .7.8.1 1-.7m-.6-4.7q-.3.1-.1.4l.1-.2zm.7 4.6.6 7.4c-.1-.7-.4-.3-.6.2l.6-.2Zm.2-5.7q.1.6.4.1-.2-.5-.4 0m.1-2.6h.2zm1.1 4c.1.3.3 0 .5 0-.1-.3-.3 0-.5 0m0 5c.3.4.7 0 .3-.2zm.1-2.4c.6 0 .4-.4.5-.8q-.6.3-.5.8m.4 7.7-.1-.2c-.4.2 0 .6.1.2m-.2-12.8.2-.2-.1-.1q-.3 0 0 .3m.8 3.7-.5.5c.6.2 1.3-.8.5-.5m.8 7.9c0-.4-.5-.8-.6-.3q0 .6.6.3m-.2-5.2v-.2q-.4 0-.3.2zm0 7.9.1-.1c-.2-.4-.6 0-.2 0m-.2-5.2h.2q-.2-.2-.2 0m.5 7 1-.7q-.6-.1-.8.5.6.1.7-.5Zm.9 4.1q-.3 0-.3.2.4.3.3-.2m.1-2.3v-.2c-.5.2 0 .7 0 .2m0-7.5q0-.2-.2-.3zm0 12.5h-.2l.1.2zm.6-11 .2 4.7c.3.2.8.3.6-.2l-.4-.2-.2.4Zm.9 9.8-.4-.1c-.6.2.4.9.4.1m-.4-7.7c-.5.1.2.5.1.1zm0 12.7-.1.1.2.1zm.2-2.5h-.2l.1.2zm1-6.1c.4.2.3-.3 0-.5q-.5.2 0 .5m-.2 2.6.4.1c.4-.6-.3-.9-.4-.2m.5 4.8-.2-.2c-.4.2.1.7.2.2m-.2-9.9c.3 0 .7-.4.3-.5q-.6 0-.3.5m.2 12.5-.1-.2q-.3.1 0 .4zm.6-4.6v-1c-1 0-1 1 0 1m4-2.4c-1.2.3-2 1.2-3.1.6-.7-.3-.8.3-.9.8 1 0 1 1 0 1 .7 2.5 2.8-1.6 4-2.4m-3.5 8.7.3-.3q-.8-.3-.3.3m.2-10.6q0-.2-.3 0c-.3.1.2.2.3 0m.1 7.9q-.1-.4-.4-.2c.2 0 .2.4.4.2m0 5h-.1v.1zm.9-14 .2-.3c-.3-.5-.7 0-.2.3m-.2-2.1.2 12.3.2-.3-.1-.2q-.3.3 0 .5Zm.3 14.9c.3-.1 0-.3 0-.5q-.3.1 0 .5m.1-10.6c-.4-.2-.4.6 0 .5.3 0 .3-.5 0-.5m0 12.7-.3.3c.2.5.7 0 .3-.3m0-7.2v-.2q0-.2-.3 0zm1.4 11.3c0-.3-.5-.3-.5 0 .1.3.6.5.5 0m-.3-7.9-.2.1c.1.4.7 0 .2 0m0 5.6.2-.2c-.1-.2-.5 0-.3.2m1-9.8q-.3-.8-1-.7c0 .6.6.5 1 .7m-.9 1.8q.2.5.3.1 0-.3-.3 0m.4 5.8q.3.6.7.7.1-.7-.7-.7m.7 3.5c.4-.2 0-.4-.3-.2zm-.1-11q0 .3.3.5 0-.4-.3-.5m.4 3.1-.2-.4c-.3.1 0 .3 0 .5zm.1 10.3q-.2-.3-.4 0 .2.5.4 0m0-7.2c1.4 1.5.8-.2.4-1.2q-1.2.6-.5 1.2m1.2 11q-.2-.5-.5 0 .2.4.5 0m-.3-8-.2.5q.3 0 .4.2.4-.5-.2-.6m.3 5.4-.4-.2c-.4.2.5.9.4.2m-.2-2.2v-.2l-.2.1zm0 7.4h-.1l.2.2zm1.6-6.5q-.4-.5-.7-.1c0 .5.6.5.7 0m-.4 2.5q0 .3.2.2.3-.2-.2-.2m.3 5.2c0-.4-.6 0-.1 0zm.4-12c0-.4 0-1-.6-1-.3.5.3.7.6 1m0 1.1q-.6.1-.6.7.5 0 .6-.7m-.3 8.3h-.3zm.4-9.3v1c.8-.2.9-1 0-1m.8 10.8q0-.6-.6-.2c-.2.4.4.4.6.2m-.4-3q-.4.8.2.4zm.4-2.4c-.2-.5-.7 0-.3.3zm-.2 7.6q-.4.3-.1.5.6 0 .1-.5m.2-10h-.2v.2h.2zm1.1 11.5q0-.3-.3 0 .1.4.3 0m-.1 2.4q-.3.1 0 .4zm1.3-3.5q.4-.2 0-.4-.4.2 0 .4m.2-2.7v-.2c-.6.2-.1.7 0 .2m-.3 5.2h.2zm.4 7.7-.1-.1q-.3 0 0 .3zm.7 6.7.1-5.6q-.1.4.4.3 0-.5-.4-.3Zm.6-8-.1-.4h-.2q0 .4.2.4Zm-.3-13 .2.1v-.2zm.6 3.3c0-.4-.7-1.2-.5-.4q.3 0 .5.4m.7.6c.3-.4-.3-.5-.6-.5q.2.3.6.5m.1 12.7h-.2c-.5 0 .3.5.2 0m0-7.6q-.3 0-.2.2.2 0 .1-.2m0 15.5v.2zm1-8.9q.2-.2 0-.2zm0 2.8.5-.2c0-.6-.8-.3-.4.2m.1-5.3c.3 0 .3-.5 0-.3zm.4 7.5-.4-.2c-.3.5.5.7.4.2m.2 2q-.6 0-.6.6.6 0 .6-.6m-.3 3.3q0-.4-.3-.1zm-.3-18.3.2.1v-.2zm.8 14.9q.5-.3.6-.7-.6-.1-.7.7m.6 4.5v.3q.2-.3 0-.3m1.3-3.8c-.5 0-.4.6-.5 1q-.7-.2-.7.4c.3 0 1.7-1.1 1.2-1.4m.3-7.6-.2-.2-.3.2c.1.3.3 0 .5 0m0 2.5q-.1-.3-.5-.2 0 .3.4.2m-.4 2.8q.5-.1.1-.3-.3 0 0 .3m0 7.4q0 .3.3 0zm.3 2.6v-.1h-.2v.2zm1-9q0 .2.1.1.1-.4-.2-.1m.2 5.1c-.2-.4-.4.5 0 .2zm0-2.4q0-.3-.3-.1l.2.3zm1 6.3h.1v-.1zm.2-7.5c.3 0 .3-.5 0-.4q-.5.2 0 .4m0 12.5h-.2zm-.2-15.2h.4v-.2q-.4 0-.4.2m0 5.1h.1m.2 2.6c.3 0 .2-.5 0-.4q-.3.3 0 .4m.3 10.3-.1-.1v.3zm1-11.7q-.3 0-.2.3.3 0 .1-.3m-.1 15.2v.3zm1.1-11.3h.1m0 2.5.3.1v-.2zm.3 10-.2.1.2.1zm.2-7.2q0-.5-.4-.2l.3.3zm-.4-7.9v.2h.2v-.2zm.3 10.2q-.2.3 0 .3.2-.1 0-.3m1-1.4-.1.2c0 .5.5-.3 0-.2m0 10.5q.1.1.4 0-.3-.1-.4 0m.4-12.9-.2-.3q-.4.8.2.3m0 10.4q-.3-.2-.4 0zm0 5h-.3zm.9 4q-.3 0-.4.3zm-.3-13q.2.5.4 0-.1-.4-.4 0m.1-7.7.2.1v-.1zm.5 18q-.2-.4-.4 0c-.2.4.4.4.4 0m0-2.5-.2-.3q-.4.8.2.3m.9 1.2v.4c.6 0 .5-.6 0-.4m.2 5.3-.1-.2-.1.2zm0-2.5-.1-.2-.1.2zm.1-7.8q0-.3-.2-.2-.1.3.2.2m-.2 2.5h.2q-.2-.3-.3 0m0-7.6h.2zm1.1 6.5c.2.2.5-.2.3-.3zm.5 7.5-.1-.2c-.6.2 0 .7 0 .2m0-5.1-.1-.2c-.4.2 0 .7.1.2m-.2-5h.2v-.3q-.4 0-.2.3m1.2 11.6v-.2q-.3 0-.1.2Zm0-3-.2.4c.2.5 1-.3.3-.4m-.1-5 .1.2.2-.1zm.7 1.9v-.1l.8 4.9q0-.3-.3 0h.3Zm.9 2q-.3-.3-.2.2.3 0 .2-.3m1.2 3.7-.2.1zm.1-2.4q0-.3-.2-.1 0 .1.2 0m1.3 1.4-.2-.3q-.1.1 0 .4zm1.3-1.5h-.2l.1.1zm7.7-18h-.2l.1.2zm3.7-8.9-.1.1zm1.4-6.2h-.2v.1zm1.5-1.5-.3-.3q-.2.3.2.5zm2.5-7.6v-.2l-.2.2zm2.1-2.6.2.1c.5 0-.2-.6-.2-.1m.3-2.4q.1-.2-.1-.3c-.3 0-.1.4.1.3m1.2-6.7h-.2v.2zm1-3.9h-.3q.1.1.4 0m.4 5.5q-.2-.5-.4 0 .1.4.4 0m1-1.6v.2zm.3-2.2.4.1q-.1-.2-.4-.1m3.8-9.4v.2zm1.2-6.4.1.2zm5-15.2h-.3zm.2 5-.2.1.2.1zm.3-1.7q.1-.5-.4-.6 0 .5.4.6m.6.3q-.1-.2-.5-.2.3.4.5.2m1.8-9c-.2-.4-.6.2 0 .3zm0 2.7h-.3c-.1.3.3.3.3 0m6.2-16.6-.1-.2-.1.2zm2.7-7.8c-.4-.3-.4.5 0 .2zm5.4-7.5-.8-1q.1.9.8 1" class="cls-1"/><path d="M1130 648.4c0 1.2.2 2.5-1.7 2.2-2.3-.3-4.5.6-6.7.2q-.7 0-.6-.6c.3-1.1-.3-2.2.1-3.3-1.4-1.5.1-3.6-.5-5.5-.3-1 .8-2.1.1-3.1q-.4-.5 0-1c1.1-2.3-.9-5 .2-7.6q.3-1-.1-1.9c-.4-1.3.6-3.3 0-4.8-.4-1.2.6-2.3 0-3.6.8-1.9-.5-4 .3-5.9-.6-1-.2-2-.4-3-.3-.8.1-1.5.3-2.3-1-3 0-6-.2-9.2-.4-4 .1-8.5 0-12.4q-.5-5.2 0-10.3c-.4-4.2 0-8.5 0-12.7-.7-.7.6-1.5 0-2.3s.6-1.5 0-2.3c-.2-1.6 0-4.4 0-6.2 0-.7.7-1.2 1.1-1.7-3-1 .2-5.3-1.3-7.7-.2-.6.2-1.3.2-2s-.6-1.6.3-2.3c-1-2.4.3-5.2 0-7.8q-.1-2-.5-3.9c1.1-2 0-4.5.4-6.8-.3-1 .5-2 0-3-.5-.8.4-1.7-.4-2.5q-.1-.4.2-1c1.1-.9-1.2-1.8.2-2.4 2.9.4 6.2-1 8.7.4.5 45.3 0 90.9.2 136.3Zm-8-97.3.2-.5c-.3-.3-.3.3-.3.5m.4 96.9q-.5.2 0 .4.4-.2 0-.4m-.3-17.9c0 .3.5.3.5 0s-.5-.2-.5 0m0-82.1q.4.2.5-.2h-.2zm.4-20.6q0-.3-.3-.2 0 .4.3.2m.1 118.2-.1-.2-.3.3q.3.2.4-.2m-.1-58.9.1-.1q0-.3-.4-.2zm-.3-67.3.2.1v-.2zm.5 57q-.1-.6-.5-.3.1.5.5.2m-.1-41.3q-.1-.2-.3 0zm-.3-18.2h.1zm.3 15.6c0-.5-.6.1-.1.1zm0 87.4-.1-.3c-.4 0-.2.4 0 .3m-.1-2.8c-.4 0-.1.4.1.3q.1-.3-.1-.3m0-77.2c-.4.2 0 .4.1.2q0-.2-.2-.2m-.2-2.3q0 .1.2 0zm0 64.3h.2zm.3-5-.2-.2v.2zm-.2-75q0 .3.2.4 0-.3-.2-.3m.3 72.1q-.3 0-.1.2.2 0 0-.2m.2-48 .7.7q0-.6-.7-.6.1.6.7.6Zm.9-22.5v-.2c-.3-.4-.4.4 0 .2m-.3 94.9q0 .2.2.1 0-.3-.2-.1m.2-12.6q.1-.2-.1-.3zm-.1-84.8q.3 0 .1-.3-.3 0-.1.3m.2 125.9v-.2h-.2q0 .2.2.1m-.1-110.4v-.2h-.1zm-.1 79.3v.2l.1-.2zm.2 26-.1-.2q-.2 0 0 .3zm0-123.4v-.2h-.2zm0 43.4-.1-.2q-.3.1 0 .4zm0 59.2-.1-.2-.1.2zm0-79.4-.1-.2q-.3 0 0 .3zm-.2 2.3v.2l.1-.2zm0 100.4q.3 0 0-.3zm0-10.3v.2l.1-.2zm0-82 .5-.2c0-.5-.7-.4-.5.1m.2 12.7h-.2v.2zm.3 74.4q-.7-.4-.3.2zm-.4-113.2q-.1.4.3.1 0-.2-.3-.1m1.3 11.7-.3-.3c-.3.3.1.7.3.3m-.4-7.8v.2l.2-.2zm0-5q.5.4.6-.2l-.4-.1zm.4 107.8q0-.2-.3 0c-.1.2.3.4.3 0m.2-66.6q0-.5-.5-.3c-.3.3.2.4.5.3m0-15.6q-.5-.4-.5.2.4.4.5-.2m-.4 74.5q-.2.2.2.2 0-.2-.2-.2m0-2.2q.3-.3 0-.4-.1.3 0 .4m.4 15.2q-.2-.3-.5 0l.4.1zm0-84.7c0-.4-.3-.2-.5-.2q0 .3.4.2m-.5 4.9q.2.4.5 0c0-.3-.4-.3-.4 0m0 77.1q.5.3.4-.2zm.2 7.8v-.2l-.2.1zm-.1-38.6.1.1h.2q-.2-.3-.3-.1m1-70c-.4.2-1.3.3-1 .7q.6 0 1-.6m-.6 41.8q-.1-.4-.4 0l.3.2zm-.4-61.7q0 .3.3.1-.2-.5-.3 0m0 46h.3q-.2-.3-.3 0m0 2.8c.4.4.6 0 .3-.3zm.2 15.5h.2c0-.5-.7-.2-.2 0m0-36.1q-.1-.2-.2 0 .2.2.3 0m0-20.3.2-.3c0-.5-.7 0-.3.3m.2 17.8-.2-.2q-.3.4.2.2m-.2-8q-.4.6.3.3zm-.1-12.7h.2q-.2-.3-.2 0m0 51.5h.1zm.2 74.5q0-.3-.2-.1 0 .1.2 0m0-25.8v.3q.3 0 0-.3m1-98.7q.3-.5-.3-.6-.3.5.3.6m0 9.9c-.3.4.2.7.5.3q-.1-.6-.5-.3m.2 113.2q-.3 0-.2.2.2.3.2-.2m-.2-110v-.2zm.1 28.1.1-.2h-.2zm.1-21q-.3-.1-.1.3.2 0 .1-.3m-.2 97.8.2.2v-.3zm.4-74.4c0-.3-.4-.3-.4 0q.2.4.4 0m-.3 59.4q.2-.1 0-.4-.3.1 0 .4m-.1-28.6v.2h.2q0-.3-.2-.2m.2-23.2c-.2-.4-.4.4 0 .2zm-.1-56.6v.3q.2-.3 0-.3m-.1-2.6v.2l.2-.1zm.4 121-.2-.4q-.3.8.2.3m-.4-90 .1.2v-.2m.2 30.8q-.3 0-.1.2.2 0 0-.2m-.1 13v.2q.1-.2 0-.2m0 4.7v.2zm0 44h.1Zm0-20.7.2.2q.2-.2-.2-.3m.3 13q0-.3-.3-.2-.2.3.3.2m-.3-105.5q.5 0 .7-.5-.6-.1-.7.5m.1 5.3h.2q-.1-.3-.3-.1zm.2-10.7q-.4.1-.2.5.3-.2.2-.5m.1 21.2q0-.5-.4-.3 0 .5.4.3m-.1-3h-.3q.1.2.3 0m.4 94.5q-.5.2-.6.7.5-.1.6-.7m0 12v-12.1l.1-107.8.3 120h-.3q.2.2.3 0Zm.7-50.8v-.2l-.3-.1q-.1.2.3.3m0 2q-.4.3-.1.5c.3.2.4-.5 0-.5m-.1 15.8v-.1h-.2zm-.2-90.2.2.1v-.2zm.1-2.4h.2l-.2-.2zm.3 54h-.3q0 .3.3 0m0-38.8q-.3 0-.3.3.6.3.2-.3m.1 5.3q-.6-.3-.2.3zm-.3 95.3c.1 0 .4-.2.1-.3q-.5.1 0 .3m0 7.6-.1-.1zm0-113.3v-.1zm.2 18.1h-.3q.1.3.3 0m0 31h-.2q-.1.2.1.2zm0-10.2q0-.2-.3 0zm0 17.7h-.2zm0-15.3h-.2v.2q.2 0 .1-.2m0 79.9v-.2l-.1.1zm.1-74.5q0-.2-.2-.1v.2zm.6-25.3.1-22.3h.2v-.2l-.1.2Zm.2-17.3.1.2.1-.1zm.2 12.9v-.2l-.2.2zm-.1 35.8v.2l.1-.2zm0-7.5q.2 0 0-.2zm.1 61.6v-.2zm-.1-79.8v-.1zm.4 77.2c0-.3-.4-.3-.4 0q.1.5.4 0m-.3 10.3v-.2zm.3-36c0-.2-.4-.3-.4 0q.2.4.4 0m-.1 5.2-.2.1zm-.2 17.9h.3q-.3-.3-.3 0m.2-12.7-.1-.1z" class="cls-1"/><path d="M1307.3 651c-.7 0-1.4-.7-2.1 0h-.5c-3-.7-8.2 1-7.7-3.9.2-.6-.5-.5-.7-.8q-.8-1.5-1.4-3.2c-2.6-6.6-4.9-13.6-7.8-20-1.4-2-4.3 0-6.2-.6l-.7-.2c-1.9 1.3-4-.7-6 .3-.7.5-1.2-.6-1.9-.3q-.8.6-1.7.4c-1-.5-2 .5-2.9-.4h-.4c-2 1-4.3.2-6.2.4-1.2-.8-2.5 0-3.7-.3-3.7.8-7.5-.5-11.3 0-.7.3-1.3-.4-1.9-.3-1 .5-2.2 0-3 .6-1.3 0-2.4-.6-3.6-.3-1.6.6-3.2 0-4.9.3-.5.3-1-.7-1.6-.3-1.5 1-3.2.1-4.7 0-1.3.8-2.1-.3-3-1 .2 2.5-11.2.5-13.6 1.4-.6.1-1-.8-1.8-.4-1 .5-2.2.2-3.2.7-.5.3-.2 1-.4 1.4-.2 1.3-1.3 2.2-1.7 3.5.4 1.3-1.2 3-1.6 4.5-1.5 3.9-2.7 7.8-4.6 11.7.2.7-1 .8-.7 1.6 0 1.7-1.3 2.9-1.7 4.5-1 1.8-3.6-.2-5.1.5v-.6q1 0 1-.8 2.9-6.8 5.5-13.7c4.8-10.3 7.7-21.6 13-31.7.1-3 2.4-5.3 2.8-8.2.1-2 2.1-3.2 2.3-5.2 0-1.4 1.2-2.5 1.4-4l23.5-59.6c1.2-3.5 3-6.7 4-10.2 1.5-1.6.8-5.3 3.6-5.1q3.3 0 6.4-.2c1.2-.3 1.6-.1 2 1 .6 4.4 4.2 8.7 4.2 13.1v-.4c1 1.3 1.3 2.8 2.2 4.1.5.6-.7 1.5.3 2 .7.5.6 1.4 1 2q.9 1-.8 1c.7.8 1.9 1.3 1.4 2.6-1 0-.6 1.1.3 1v.1l-.2-1c.7 0 1.2.5.3 1 2.1 2 2.4 4.8 3.8 7 .3 2.7 2.5 4.3 1.5 7 2.5.8 2 4.2 3.4 6 .4.8 1 1.5.8 2.6q1 1.9 1.5 4c4.3 9.5 7.6 19.3 11.5 29l18.2 47.1c.8 3.4 4 7 3.4 10.3m-115.5-1.7v-.2l-.1.1zm6.1-14.2v-.2l-.1.2zm1.5-4v-.1l-.2.1zm1.6 1.4q0-.4-.3-.1zm.8-9v-.2zm.3 2.7-.1-.3c-.3 0-.1.4.1.3m.5 1.8.5-8.4h.3c.2-.4-.3-.4-.3 0Zm.7-3.3h-.1zm1.2-6.2q.3 0 .1-.4-.4 0-.1.4m.6 2q-.5-.1-.5.4.4 0 .5-.4m.6-.8c-.3-.3-.4.3-.5.6q.4-.1.5-.6m.1-7.8h.2v-.2zm.2 2.3v-.3q-.2 0 0 .3m.3-.5c.4-.2 1.2-.3.7-.7q-.4.1-.7.7m74-8.8-12.7-32.5c0-2.4-2.4-4-2.4-6.5-.8-2.7-2.6-5.3-2.8-8.2-.3-.9-1.3-1.6-1.4-2.6.6-1.8-2-2.6-1.7-4.6-.5-1.5-1.5-3-2-4.5.5-1.7-1.8-2.6-1.3-4.3q.3-.6-.4-.8c-.8-.7-1.5-2.5-.8-3.4.3-.7-1-.1-1-.7l-4-10.2c-1-1.1-2.2-8.8-3.7-7q-3.7 8.8-7.2 17.8l-13.7 34.5-3.5 9.1c-.9 1.6-1 4.6-2.7 5.4q-.8 0-.2.5.3.4.2.7l-2.2 5.9c-.4.3-.9.4-.8 1.2 0 1.1-.8 2-1 3-.3.7-.3 1.4-1.3 1.4-.5.2.8 1 .3 1.4-1.3 2-1.2 4.9-3 6.4-.3 3-2 6-3.3 8.9.3 1-1.6 2.4-.3 2.8h7.5q34.8 0 69.5-.2c2.7-.4-4-11-4.1-13.5m-72 14.8c-.5-.2-.5.5 0 .2zm0-10.4.1-.1zm0-2.6h.2v-.1zm1.5-4h-.2c-.5 0 .1.6.2 0m-.3 2.7.2.1v-.1zm1.4-3.9v.3l.2-.2zm1.5-6.2v-.3c-.4 0-.3.4 0 .3m2.6 25.6h-.3c-.1.3.3.3.3 0m6.1-42.5c.2.4.4 0 .2-.1q-.3 0-.2.2m.2 41.1-.2.1.2.1zm0-45.9h.2l-.2-.1zm2 47.7-.6-.4q.2.4.6.4m.3-53.1v.2zm5.4 51.3-.2.1.2.1zm2.4-66.5.2.1q.1-.2-.1-.3zm.2 66.6h-.1v.1zm1 1.1q0 .2.2.2zm13 0-.1.1c0 .5.6 0 .1 0m2.5-102.8v.1zm1 4.1h.3l-.2-.2zm2.6-7.6q0 .4.4.2-.1-.5-.4-.2m.2 12.6.2.1h.1q0-.3-.3-.1m.3-10.2q-.2 0-.2.2.2 0 .2-.2m1 9.2h.2v-.1zm0 5v.1h.2zm.3-7.5q.2-.2 0-.5-.3.2 0 .5m2-.4q.2.6.6.2l-.1-.3zm.6 2.6c-.2-.2-.3.2-.1.3q.2 0 .1-.3m-.1 8.3.1-.2v-.2q-.3.1-.1.4m0-5.6v-.2zm1 14v.2zm0-18q.1 0 0-.2zm0 13q0 .5.4.2-.1-.5-.4-.2m.1-10.5c-.4.1.3.5.2 0zm0 5.5.3.2c.4-.2-.4-.8-.4-.2m.2 87.2h-.1zm1-78.4h.3q-.1-.3-.4 0Zm0 2.4v.2h.2zm.3-15-.1-.3v.2m0 7.8v-.3q-.3 0 0 .3m0-5.4v-.2l-.1.1zm.7 19.5.5-15.6q.2-.5-.3-.3 0 .6.3.3Zm.3-5.8q0 .2.3 0zm.7-7.8q-.4 0-.7.3.5.6.7-.3m-.7-7.4.2.1v-.1zm.7 18.5c.4 2.1 2 .5 0 0 .2-.5.9-1 .7-1.5-.6-.2-2.3 1.6-.7 1.5m0-6h1.5q-.8-1.6-1.4-.1h1.4Zm0-5.2q.8.1.8-.6-.5 0-.7.6m.7-3q0 .3.3.5 0-.6-.3-.5m1 16.3c-.3.5-1.1.9-1 1.5.7.2 2.7-2 1-1.5m-.2-10.7v2.6c-.2 1.1 1 1.7 1.7 2 .3-.5-1-2-1.6-2Zm0 0 .6 13.7v-.2c-.4-.3-.5.5 0 .2Zm.8 8.4q-.2-.3-.5 0 .1.2.5 0m-.4 7.5.2.1v-.1zm1.3 1.2v.2c0 .5.4-.3 0-.2m.1-5.2c-.3 0 0 .3 0 .5q.2-.2 0-.5m0-5q-.2.2 0 .3.2-.3 0-.3m.1-5h.2l-.2-.2zm.6 6.8.4 5q.4.3.5-.1c-.2-.2-.8-.3-.5.1Zm.3-3 .3.1c.5-.2 0-.7-.3-.2m0 15.3.2.1h.2zm.7-4.3q.1-.7-.5-.8-.1.6.5.8m-.3 2.2.2-.2c-.2-.6-.7 0-.2.2m.3-7.3v11.2-6l.1-5.1v11l.7-12.8q.5-.2.2-.7c-.5-.2-.6.4-.2.7Zm1.1-4.4-.3-.3c-.3.3.1.7.3.3m-.4 12.5.1.2.1-.1zm.8-4v8.7zc.2.3.4.7.8.4q-.1-.5-.8-.4m.2 8.6.9-10.1.5-1.5c-1.1-.1-1.9 1-.5 1.5Zm.3 2q.1.6.4.1-.1-.4-.4 0m.2-7.7v-.2l-.2.1zm-.2-7.7h.3q-.2-.2-.2 0m.5 9.9v-6.5c.3.3.5.8 1 .6 0-.6-.5-.5-1-.6Zm1 4c-.2-.2-.4.2-.2.3q.3 0 .2-.3m-.1-7.4q.1-.2-.1-.2-.1.2.1.2m0 64h-.1v.2zm1.5-60.2-.2-.2c-.6 0 .2.8.3.2m-.4 2.5.3.3c.4-.3-.3-.9-.3-.3m0 7.8c.5.5 1.1-.6 1.4-1 0-.6-1.4.6-1.4 1m.5-5.1-.1-.2c-.6.2 0 .7 0 .1m-.2-7.7v-.1zm1.6 6.4c-.1-.3-.5-.7-.6-.3-.2.5.3.4.6.3m-.5 2.6.4-.1c0-.6-.6-.5-.5 0m0-7.7h.2zm1.3 14.2q.5-.1.1-.5c-.2 0-.4.5 0 .5m.2-10.2.1-.2h-.2zm0 7.3-.1.2h.2zm1 4v.2zm0-5.1q.3.1.3-.1-.2-.1-.3.1m0 2.5h.3q-.1-.2-.2 0m.1-5.1h.3q0-.2-.3 0m1.3 3.8h.2v-.1zm0 13q0 .3.2.3zm0 5 .1.3.1-.2zm1.2 1.5q.2 0 .3-.2c-.1-.3-.6-.1-.3.2m0-10.6q.2.1.3-.1-.3-.1-.3.1m1.5 12v-.3q-.2.3 0 .3m-.1-15.7v-.2zm0 12.8v.2h.1zm0 7.7h.2zm.1 23.4v-.2l-.1.2zm1.1-34.7h.2zm.3 9.8q-.3.1-.2.4l.3-.2zm1 1.6q.3.3.2-.2-.3 0-.2.2m0-2.6v.2l.2-.2zm1.6 4.1.1-.4-.3-.2q-.4.5.2.6m1-1.3.1-.2v-.2q-.3.1-.1.4m1.2 3.6h.3zm1.5 3.9-.1-.2-.1.2zm-.1-10.2.1-.4zm1.4 6.8.1-.1c0-.5-.7.1-.1.1m0 7.6-.2-.1v.1zm.1 9.8h-.1v.1zm1.3-3.7q-.3-.7-.4 0zm-.2 5.3-.1-.2v.2m1.3-1.2q0-.4-.3-.1zm0-8v-.2zm.2 2.6-.1-.1v.1m0 10.2v-.2l-.2.2zm.9-11.6q.3 0 0-.2zm.1 13h-.1v.2zm0-5.3v-.2zm.3 2.6q0-.3-.2-.1 0 .3.2 0m1.2-1.3c-.1-.5-.7.1-.2.3zm-.2-7.5h.2v-.2zm1 8.8.1.2h.2q0-.3-.2-.2m.5 10.5q-.1-.5-.4-.2 0 .5.4.2m-.3-5.2v-.2q-.2.2 0 .2m0-7.7.1-.2zm0 10.4.2.1v-.1zm.6-4.8.2.1.4-1.8h.3q-.3-.3-.3 0Zm1 6q0-.3-.3 0l.2.2zm0-2.5v-.2c-.5 0-.1.7 0 .2m-.2 7.5.1.2zm.1 2.6h-.1v.2zm1-8.8v-.2h-.1q0 .3.2.2m0 5.1c.4.1.3-.3 0-.3zm.3-10.4q0-.3-.3 0 .1.3.3 0m.1 2.7q-.1-.5-.4-.1.2.4.4 0m0 10.2h-.4zm-.2 2.5h-.2l.2.2zm-.1-17.6h.2l-.2-.2zm.2 10h-.2zm1.4 3.7-.2-.1c-.4.2 0 .6.1.1m1-6q.5-.1 0-.5-.5.1 0 .4m.2 17.8q-.1-.4-.4 0 .2.4.4 0m.1-2.5q-.2-.5-.4 0c0 .2.4.3.4 0m-.2-10.4h-.2q0 .3.2.1m1.3 6.5-.1-.2zm-.1 4.8v.3q.2-.1 0-.3m.1-2.4v-.2q-.3.3 0 .4zm.2-5.4q-.5.1-.2.6.5 0 .2-.6m-.3-4.7v-.2zm1.3 8.9v-.2l-.2.1zm-.1-5.2q0 .3.2.2.3-.4-.2-.2m0-2.4.2-.1h-.1m.3 10h-.2q.1.2.2 0m1.2-1.1q0-.3-.3-.1l.2.2zm-.2-5.2h.2l-.1-.2zm1.4 8.9-.2.3c.2.3.6-.1.2-.3" class="cls-1"/><path d="M1471.8 559.1v1c.3.9-1 1.3-.6 2q.5 1 .3 2.1c.5.6.3 1.2.3 1.9.1.6-1.6.5-.7 1q1 .6.5 1.3c-1 1.1 0 2.2-.1 3.4 1 1.2-1.2 2.4.2 3.5 0 1.3.4 3.2-.2 4.5-.2 1.5.7 3.7-.5 4.8q-.4.3-.1.6c1.8 1.6 0 3.6.8 5.5.7 1.2-1 1.3-.7 2 .6.8.9 1.5 0 2.2q-.3.2-.1.4c1.3 1.1.2 2.9.7 4.3q.7 4.5-.5 8.6 1.4 5.5.4 11.2c-.3 1.3 1 2.8-.2 3.9-.6.7 1.2 1.3.3 2.1-1 2 .5 4.4.2 6.6-1 6 .7 12.4-.5 18.3-4.2 3-7.6-5.1-9.6-8-1.6-2-4.8-4.6-4.9-7.2.2-.6-.9 0-1-.7-13.6-18.7-27.8-37.6-41-56.3-1.8-3.2-5-5.8-5.9-9.3a41 41 0 0 1-6.8-8.5c-.6-1.6-2.7-2.2-2.5-4.2-2.5-1.4-3.7-4.6-5.4-7-4.8-5.2-8.3-11.8-12.8-17-.8-2.7-4-4.2-4.6-6.8-1.7-1-.2-1.7-1-2.2-.9.1-.8-1-1.5-1.1s-.5-1-.9-1.5c-.9-.6-1.6-2.4-2.6-2.5-.5 9.4.1 19.1-.2 28.6q.4 37.3 0 74.6.2 10.3 0 20.8c-.5 2.6 1.1 7-.7 8.8-4.8.6-2.6-3.6-3.2-6.6.5-1.7-.2-3.5-.1-5.2.7-1-.3-2.2.2-3.2s-.5-2.1.1-3.2c-.4-2 .3-4-.2-6-.5-.6 0-1.2.2-1.8-.6-1.2-.2-2.5 0-3.7-.3-1.5.2-3.2-.3-4.7q-.3-.5 0-1.1c.7-.8-.7-1.6 0-2.6.2-3 .5-6.3 0-9.6-.5-3.1 1.3-6.7-.1-9.8.5-1.3.3-2.6.3-3.9q.5-2.3-.2-4.4.4-2.5-.1-5.1c1-3.1.1-6.5 0-9.6-.2-.6.6-1.3.2-2s0-1 .1-1.6q.2-4.2 0-8.5c-1-2 .8-4.3-.4-6.2.1-1 1-1.7.3-2.7-.5-.9 0-1.8 0-2.7.3-1.6 0-3.3 0-5 .4-2.1 0-4.3.2-6.6q-.3-6.8 0-13.3-.3-.9 0-1.8c.2-.8-1-1.5-.2-2.3.5-1.4-.3-3.2.1-4.7.4-3 4.4-.4 6.3-1.3 1.1.2 6.1-.6 5.4 1.3-.4.8 1 0 1.2 1 1.7 3.4 5 5.7 6.5 9.3 2.4 2.9 5.3 6 6.4 9.4 7.2 8.1 13.4 17.3 19.3 26.4 2.3 2.7 4.9 5.5 6.5 8.7 6.8 9 14.4 18.9 20.6 28.5q3.7 4.3 6.7 9c-.7.4 0 .7 0 0 2.4 2.7 4.2 6 6.4 9 .7 1 .9 1 .2 2 .5 0 1.2-.5 1.5 0 1.2 2.5 3.7 4 4.5 6.7 3.7 3.2 5.3 8.3 9 11.5 1-8.7-.8-18.2.6-26.6-.5-7.6-.8-15.9 0-23.3-.8-5.5-.2-11.1-.4-16.6-.3-1 1.5-.7.8-1.4-1.6-2.7-1-12-.4-15.4-.9-12.7-.2-25.6-.4-38.3 0-1.4 1.4-1.2 2.3-1q1.8-.8 1.7 1.3c.9 2.4-.5 5 .2 7.6q.1 1-.3 1.6c-1.1 1 .6 1.8.1 3 .7 1.5-.4 3.3.3 5 .5 1.4-1 2.6-.6 3.8 1 1.6.5 3.1.2 4.8l.4 5.3c-1 4.6.4 10 0 15M1368 610.8h.2v-.2zm0-90h.2v-.2zm.2 43.5v-.1l-.2.1zm-.1 5.5v-.2zm.2-54.1q.3 0 .1-.3c-.3-.1-.5.3-.1.3m.1 97.7q0-.2-.3-.1.2.4.3.1m0-66.8q0-.3-.3-.1 0 .3.3.1m-.2 102.6q-.1.2.1.3.1-.3-.1-.3m.1-130.9.1.2zm-.1 33.5h.2zm.4 49q0-.3-.4-.2 0 .3.4.2m-.4-72.3v.1h.2zm1.5-13.8v-.2h-.2v.3zm0 10h-.2v.1zm0 61.7v.2zm1.3-70.5q-.1-.5-.4-.2c-.2.2.2.3.3.2m2.6-2.8q-.2-.5-.4 0 .2.4.4 0m0 2.4q0-.3-.3-.1.2.4.3.1m-.1 2.8h-.2l.2.2zm.9-3.9.2.4c.7-.2.2-1-.2-.4m.4 5.3v-.2q-.3 0-.2.3zm1.3 1.2h-.2l.1.1zm0-2.8.1.3zm1 6.6v.4q.2 0 0-.4m0-7.5q.4-.2.1-.5-.2.1 0 .5m.8 5.4q-.2-.5-.6-.6c-.4.4.2.5.6.6m-.6-8.1.2.3.2-.2q-.1-.3-.4-.2Zm1.3 9q0-.6-.6-.7 0 .5.6.7m-.2-2.6q0 .2.2.2.3-.4-.2-.2m.4 5v-.2h-.2q0 .3.2.2m.8-6.3q.2.4.5 0-.2-.4-.5 0m.1 2.7v-.2q-.3.2 0 .3m0 2.2v.4q.8-.4 0-.4m1.2-1h.4c.2-.4-.4-.5-.4 0m.2-5.4.1.2.1-.1zm.1 2.4q-.1.2.1.3.1-.3-.1-.3m1 6.6q-.1.5.3.5.5-.5-.3-.5m0-2.3q0 .3.4.1 0-.3-.4-.1m.2 4.7c-.3 0-.2.4 0 .3q.3-.2 0-.3m1.5-3.4c0-.3-.5-.3-.4 0q.2.4.4 0m.4-2.4q-.2-.3-.5-.2l.3.3zm.5-1.4.1-.2h-.1zm.5 7.3c-.3-.4-.8.5-.2.4q.3 0 .2-.4m-.4-2.5c-.3.2.2.6.3.3zm1.5 1.2q-.5.1-.3.4c.3 0 .8-.2.3-.4m1.6 3.8c0-.5-.6-.5-.8 0 0 .5.8.7.8 0m-.3-2.6h-.2c-.5 0 .3.4.2 0m-.1 5.7v-.2h-.2zm.1 2.4h-.1v.1zm1.2-4.3q-.3.2-.2.5c.3.3.4-.2.2-.5m0 3.1v-.3q-.3 0 0 .3m-.2-5.5q0 .3.3.2 0-.5-.3-.2m1.7 4q-.4-.4-.6.2.4.4.6-.2m-.1 5.2h-.3q.1.3.3 0m0-2.5h-.2l.2.2zm1.2-1.3v-.2c-.5.2 0 .7 0 .2m-.2-2.6v.2l.2-.2zm.2 7.7-.2.1zm1.4-3.7q-.2-.3-.3 0zm1 8.7v.3q.2-.3 0-.3m1-6.4.4.2c.5-.2-.4-.8-.3-.2m.5 2.7c-.2-.4-.6.1-.1.2zm0 2.5h-.2zm1.4 3.6-.2-.1q-.5.1 0 .4zm-.4-7.5v.2l.1-.1zm.3 4.9q-.5 0-.2.5.6 0 .2-.5m.4-1.8.7.9q0-.6-.6-.8 0 .6.6.7Zm.6 3.4q.2.1.3-.1-.3-.1-.3.1m.3 2.2q-.3 0 0 .3zm0 3v.2zm1.3-9.2c-.4-.2-.7.5-.1.4l.2-.4m-.3 5.2v.2zm0-2.6v.2zm.8 9.7 1.7-4.6c.2 0 .4.3.5 0 .2-.4-.6-.4-.5 0Zm3.2-8.3q0-.3-.3 0zm0 5.2v.2zm1.4 1.3q0-.3-.4-.2 0 .3.4.2m0 5v.1zm.4-3.2.7-.8q-.6.1-.7.8 1 0 .7-.8Zm.7-3.2v.2q.2-.1 0-.3m1.3 6q-.5.2-.1.5c.4.2.5-.5 0-.5m.2 2.8q-.2-.4-.4-.1c-.2.4.3.3.4 0m-.4-7.4h.2c.5-.2-.1-.6-.2 0m.3 10q-.3 0-.2.3.3 0 .2-.3m.2-7.7q0-.3-.3 0c-.1.4.3.3.3 0m.8 4.1q.5-.1 0-.4-.4.2 0 .4m.5 5q-.1-.5-.4-.2 0 .5.4.2m.7-3.8.1-.2v-.1q-.3 0-.1.3m.3-2.7q-.1-.6-.3-.1 0 .2.3 0m0-2.8c-.3 0-.4.4 0 .4q.4-.1 0-.4m0 8h-.2l.2.1zm1.2-1.5v.3h.1zm0 7.9v.1zm1.6-9q-.2-.3-.4 0c-.2.3.3.2.4 0m0 2.5q-.2-.3-.4 0 .1.4.3 0m-.3 5.3c.3.2.4-.2.2-.4q-.5.1-.2.4m.2-2.6c.2-.2.2-.7-.2-.4q-.2.3.2.4m1.1 3.9c-.4-.5-1 .6-1.3 1 .2.5 1.3-.8 1.3-1m0-7.7-.1-.2zm.7 3q0 1-.9 1.7c0 1.5 2.6-1.3 1-1.6m0 0 .8 3.3c-.2-.4-.6 0-.2.1h.2Zm2 4.5q-.2-.3-.3 0 0 .4.2 0m.2-2.6q-.2-.4-.5 0c-.1.5.4.3.5 0m-.5-2.6q.1.5.4 0zm.2 10.4-.1-.2zm1.5 1.4-.1-.2q-.2.1 0 .4zm1 1q-.3 0-.2.2.4 0 .1-.2m0-5.2c0 .1-.3.4 0 .5.4.1.4-.6 0-.6m0 2.7h-.2v.2zm.1-8 1.4 9.5q.1-.4-.3-.3c-.4.2.2.7.3.3Zm3 12.6c-.7 0-1.4-1.3-2-.7-.2.6.7.9 1 1.2q.6.9 1-.5m-1.6-5.8q0-.2-.3-.1-.2.3.3.1m0 7.8q-.2-.4-.2 0zm.9-9c.2.5.7 0 .2-.3zm0 5q.6 0 .7-.5-.4 0-.6.5m.8 2v-2.6q1.3-.2 1.4-1.4-1 .3-1.3 1.4Zm.6 1.8v.2c.1.5.5-.3 0-.2m.9 2.3V576zl.3-6 .3.2c.5-.2 0-.7-.3-.2Zm1.7.4.1.3zm.2-2.5v-.2q-.3 0-.1.3zm1.4 1q-.2-.3-.5 0 .2.6.5 0m-.1 2.8h-.2q.1.2.2 0m1.2 4v-.2q-.3 0-.1.3zm.3-3c-.6-.3-.6.6-.1.3zm-.5-4.8v.2l.2-.2zm1.6 3.9q0-.3-.3-.2c-.2.2.2.3.3.1m-.3-2.6h.3q0-.2-.3 0m.3 5.1q0-.3-.3-.1 0 .3.3.1m1.4 1.2-.4-.2q-.2.3.1.5zm-.4-5h.2v-.2q-.3 0-.2.3Zm1.5 6.2c-.5 0 .2.4.1 0m1.4 1.5c0-.3-.4-.3-.3 0zm-.3-2.7.3-.1zm.3 5.3h-.2zm1.1 3.6.1.3zm1.6-3.8h-.3c-.1.3.3.3.3 0m1.2 1c-.2-.4-.7.1-.3.4zm1 1.8h.2zm.2 5h-.2q0 .2.2 0m1.3 1.4-.1-.3q-.3.1 0 .4zm-.1 4.8q-.3 0-.1.3.3 0 0-.3m1.4 1.4h-.3l.1.1zm-.3-7.6q0 .2.2.2.3-.4-.2-.2m0 2.4v.2q.5 0 0-.2m.1-5.2v.3c.3 0 .3-.4 0-.3m1.4 9.3v-.2q-.3.1-.1.3zm-.2-5.2q0 .2.2.1v-.1zm1.4 1.3q0-.3-.3 0zm0 5h-.3l.1.1zm0-2.4v-.2h-.2zm1.7 6.5q0-.2-.3-.1c-.3.2.1.3.3 0m-.4-2.6h.2zm1.5 1.2q-.1-.5-.4 0 .2.4.4 0m-.1 5.3v-.2q-.4 0-.2.3zm0-7.8.2.6zm1 1.3c0-.6-.4-.5-.8-.7q.4.7.9.7m1.3-1.4q.5 0 .2-.4-.4.1-.2.4m.2 2.6.1-.1c-.2-.4-.6 0-.1 0m0 2.4v.3q.3 0 0-.3m1.4-3.6q-.1-.5-.4-.2c-.2.3.2.4.4.2m-.4 2.5q.3-.2 0-.3zm0 2.5h.2l-.1-.2zm.8 3.3.7-2.4-.3.3.4.2q.2-.2-.1-.5Zm1.8-.6.3-.1q-.3-.2-.3 0m0 2.5q.3.1.3-.1-.2-.1-.3.1m1.6 1.5c0-1-1.5.5-1.4 1 .5.5 1-.7 1.4-1m-.9-7.3.6 1.8q.3 0 .2-.2-.3 0-.2.2Zm1 4.4q-.5-.1-.2.3.2 0 .1-.3m1.3 6.5-.3-.2c-.6.2 0 .7.3.2m0-2.7q-.3-.4-.5-.1c-.2.4.6.5.5 0m-.3 5.1c-.3 0-.2.4 0 .3q.3-.2 0-.3m1.3-4v.2c0 .5.4-.2 0-.2m.1 5.4v-.1h-.2q0 .2.2.1m0-2.5v-.2q-.3 0-.1.3zm0-5.2-.1-.2zm-.1-2.4h.1v-.2zm1 3.7q.3.1.4 0-.3-.3-.3 0m.2 2.4q0 .3.2.2.3-.3-.2-.1m0-5 .1.1v-.1zm.4 10.5q0-.4-.4-.2.2.3.4.2m-.3-2.9q0 .3.2.1 0-.3-.2 0m1.3 1.2c0 .2-.3.4 0 .5q.6-.2 0-.5m.1-2.6c-.4 0-.4.6 0 .5q.5-.2 0-.5m0 5.4v-.2c-.3-.3-.4.4 0 .2m.1 2.6h-.2zm1.2-6.5q0-.2-.3 0zm.1-2.4c0-.3-.5-.3-.3 0q0 .3.3 0m1.2 1h-.2c-.3 0 0 .5.2 0m-.3 5.2v.2l.2-.2zm.4 5.3q-.1-.3-.4 0zm0-2.7h-.3q0 .3.3.2zm1-6.4h.2l-.2-.1zm.3 5.2h-.2l.1.2zm1.2 3.9q0-.3-.3 0zm2.5-2.7c-.2-.4-1-1.6-1.4-1.1.1.4 1.2 1.8 1.4 1.1m-1.2 1.4-.1-.2zm0 4.9q-.3.1 0 .4zm2.6.1-.1-.2c-.7.2-.2 1 0 .2m-.2 2.8h-.2zm.2 2.4-.1-.2zm.7-63.3v23.3q0 .3.4.2l-.4-.2Zm.4-33.3h-.4s.1.3.4 0m-.3 62.1h.2v-.2zm.4 33q-.6.1-.3.5.5-.1.2-.4m-.4-97.4v.2l.2-.1zm0-2.3.4-.2c0-.4-.5-.1-.3.2m.3 69.1c-.6 0 0 .7.1.2zm.2-56.7q-.3-.1-.3.1.1.1.3-.1m-.3 79.8v.2l.3-.1zm.2 10.2h-.3zm-.2-72 .1.2v-.2zm.1 46.2c-.3 0-.1.5.1.4q.2-.3 0-.4m-.1-84.6.1.1v-.1zm.2-25.2.1-.2c0-.5-.6.2-.1.2m.2 17.5v-.1l-.4.2c.1.3.3 0 .4 0Zm-.4 51.3h.2zm0-10.1h.2l-.2-.1zm0 25.6v.2h.2zm.1 46.2q0 .7.5.7 0-.6-.5-.7m0-38.5q.4-.3.4-.6-.3.2-.3.6m.5-86.8.6 126.6q0-.3-.5-.5 0 .5.5.6Zm.1 86 .5-28.8q-.3.4.2.2 0-.2-.2-.2Zm.6-20.9.1-.1c0-.5-.6.2 0 .1m.1 53.8c0-.3-.4-.2-.3 0q.2.3.3 0m-.1-92.4h-.2l.1.2zm-.1 79.6h.1l-.1-.1zm.1-94.7h.2v-.3q-.2 0-.2.2m.2 79.2h-.2l.1.2zm0-48.5v-.2l-.2.1zm-.1 10.2q.2 0 0-.2-.1 0 0 .2m0-5.1h.1v-.2zm0-41v-.2zm0 22.8v-.1zm0-33.5q0 .3.3.2 0-.3-.3-.2m.8 38c-.3.1-1.1.2-.7.6q.3 0 .7-.6m-.6 25.8-.2.5q.3-.2.2-.5m0-.1.6-25.7.2-.5-.2.5Zm1-5.8q.4.2.6-.2-.4 0-.5.2m0-7.6q.3.1.5-.1zm.2-51 .3-.2q-.3 0-.3.2m.3 11.9v54.6" class="cls-1"/><path d="M1648.9 651c-.8 0-1.4-.7-2.1 0h-.5c-3-.7-8.2 1-7.7-3.9.2-.6-.6-.5-.7-.8q-1-1.5-1.4-3.2c-2.6-6.6-5-13.6-7.9-20-1.3-2-4.2 0-6-.6l-.8-.2c-1.9 1.3-4-.7-6 .3-.7.5-1.2-.6-1.9-.3q-.8.6-1.7.4c-1-.5-2 .5-2.9-.4h-.4c-2 1-4.3.2-6.2.4-1.2-.8-2.5 0-3.7-.3-3.7.8-7.5-.5-11.3 0-.7.3-1.3-.4-1.9-.3-1 .5-2.2 0-3.1.6-1.2 0-2.3-.6-3.5-.3-1.7.6-3.3 0-4.9.3-.6.3-1-.7-1.6-.3-1.5 1-3.2.1-4.7 0-1.3.8-2.1-.3-3-1 .2 2.5-11.2.5-13.6 1.4-.7.1-1-.8-1.9-.4-1 .5-2.2.2-3.1.7-.6.3-.2 1-.4 1.4-.2 1.3-1.3 2.2-1.7 3.5.3 1.3-1.2 3-1.6 4.5-1.6 3.9-2.8 7.8-4.6 11.7.1.7-1 .8-.8 1.6 0 1.7-1.3 2.9-1.6 4.5-1 1.8-3.6-.2-5.2.5v-.6q1 0 1.1-.8 3-6.8 5.4-13.7c5-10.3 7.8-21.6 13-31.7.2-3 2.5-5.3 2.9-8.2 0-2 2.1-3.2 2.3-5.2 0-1.4 1.2-2.5 1.4-4L1580 527c1.2-3.5 3-6.7 4-10.2 1.5-1.6.8-5.3 3.6-5.1q3.3 0 6.4-.2 1.5-.6 2 1c.5 4.4 4.2 8.7 4.1 13.1l.1-.4c.9 1.3 1.3 2.8 2.1 4.1.6.6-.6 1.5.4 2 .7.5.6 1.4 1 2 .4.8.4.9-.8 1 .6.8 1.8 1.3 1.4 2.6-1 0-.6 1.1.3 1v.1l-.2-1c.7 0 1.2.5.3 1 2 2 2.3 4.8 3.7 7 .4 2.7 2.6 4.3 1.6 7 2.5.8 2 4.2 3.3 6 .5.8 1.1 1.5.9 2.6q1 1.9 1.5 4c4.3 9.5 7.6 19.3 11.4 29 6 15.7 12.2 31.1 18.3 47.1.7 3.4 4 7 3.4 10.3Zm-115.5-1.7v-.2l-.2.1zm6-14.2v-.2zm1.6-4v-.1l-.2.1zm1.6 1.4q0-.4-.3-.1zm.8-9v-.2zm.3 2.7-.1-.3c-.3 0-.1.4.1.3m.5 1.8.5-8.4h.3c.2-.4-.4-.4-.3 0Zm.7-3.3h-.2zm1.2-6.2q.2 0 .1-.4-.4 0-.1.4m.6 2q-.4-.1-.6.4.5 0 .6-.4m.6-.8c-.3-.3-.4.3-.5.6q.4-.1.5-.6m0-7.8h.3l-.1-.2zm.3 2.3v-.3q-.2 0 0 .3m.3-.5c.4-.2 1.2-.3.7-.7q-.4.1-.7.7m74-8.8-12.7-32.5c0-2.4-2.4-4-2.4-6.5-.8-2.7-2.6-5.3-2.9-8.2-.2-.9-1.3-1.6-1.4-2.6.6-1.8-2-2.6-1.7-4.6-.4-1.5-1.4-3-2-4.5.5-1.7-1.8-2.6-1.2-4.3q.1-.6-.4-.8c-.8-.7-1.5-2.5-.9-3.4.4-.7-.9-.1-1-.7l-4-10.2c-1-1.1-2.2-8.8-3.7-7l-7.1 17.8-13.8 34.5-3.4 9.1c-1 1.6-1 4.6-2.8 5.4q-.7 0-.1.5.3.4.1.7l-2.1 5.9c-.5.3-1 .4-.8 1.2 0 1.1-.8 2-1.1 3-.2.7-.2 1.4-1.2 1.4-.6.2.8 1 .3 1.4-1.3 2-1.2 4.9-3 6.4-.4 3-2.1 6-3.3 8.9.3 1-1.6 2.4-.3 2.8h7.5l69.4-.2c2.7-.4-4-11-4-13.5m-72 14.8c-.5-.2-.5.5-.1.2zm0-13h.2v-.1zm1.5-4h-.2c-.5 0 .1.6.2 0m-.3 2.7.2.1v-.1zm1.4-3.9v.3zm1.5-6.2-.1-.3c-.3 0-.2.4 0 .3m2.6 25.6h-.3q0 .4.3 0m6.1-42.5c.1.4.4 0 .2-.1q-.3 0-.2.2m.2 41.1-.2.1.2.1zm0-45.9h.2l-.2-.1zm2 47.7-.7-.4q.3.4.7.4m.3-53.1v.2zm5.4 51.3-.2.1.2.1zm2.4-66.5.2.1q.1-.2-.1-.3zm1.2 67.7q0 .2.2.2zm13 0c0 .5.6 0 0 0m2.4-102.8.2.1v-.1zm1.2 4.1h.2l-.2-.2zm2.4-7.6q.1.4.4.2 0-.5-.4-.2m.3 12.6h.2q0-.3-.3-.1m.3-10.2q-.2 0-.2.2.2 0 .2-.2m1 9.2h.2v-.1zm0 5h.2zm.2-7.5q.3-.2 0-.5-.2.2 0 .5m2.2-.4q0 .6.5.2l-.2-.3zm.5 2.6c-.2-.2-.3.2-.1.3q.2 0 0-.3m-.1 8.3v-.4q-.1.1 0 .4m0-5.6v-.2zm1 14v.2zm0-18q.1 0 0-.2zm0 13q-.1.5.4.2-.1-.5-.4-.2m.1-10.5c-.5.1.3.5.2 0zm-.1 5.5.4.2c.3-.2-.5-.8-.4-.2m.3 87.2h-.2zm.9-78.4h.4q-.2-.3-.4 0m0 2.4v.2h.3zm.4-15-.1-.3q-.2.2 0 .2m-.1 7.8q.3 0 0-.3zm0-5.4v-.2zm.8 19.5.5-15.6q.2-.5-.3-.3 0 .6.3.3Zm.2-5.8q.2.2.3 0zm.8-7.8q-.5 0-.8.3.6.6.8-.3m-.7-7.4.2.1v-.1zm.7 18.5c.3 2.1 1.9.5 0 0 .2-.5.8-1 .7-1.5-.7-.2-2.3 1.6-.7 1.5m0-6h1.5q-.8-1.6-1.5-.1h1.5Zm0-5.2q.7.1.8-.6-.5 0-.7.6m.7-3q0 .3.3.5 0-.6-.3-.5m1 16.3c-.4.5-1.1.9-1 1.5.7.2 2.7-2 1-1.5m-.2-10.7v2.6c-.2 1.1 1 1.7 1.7 2 .2-.5-1-2-1.6-2Zm0 0 .6 13.7v-.2c-.5-.3-.5.5 0 .2Zm.8 8.4q-.2-.3-.5 0 .1.2.5 0m-.4 7.5.1.1v-.1zm1.3 1.2v.2c0 .5.4-.3 0-.2m0-5.2q-.2.1 0 .5.4-.2 0-.5m0-5 .1.3zm.2-5h.2l-.2-.2zm.6 6.8.4 5q.3.3.5-.1c-.3-.2-.8-.3-.5.1Zm.3-3 .3.1c.5-.2 0-.7-.3-.2m0 15.3.2.1h.1zm.7-4.3q.1-.7-.5-.8-.1.6.5.8m-.3 2.2.1-.2c0-.6-.6 0 0 .2m.3-7.3V562v-11l.1 11 .7-12.8q.5-.2.2-.7c-.5-.2-.6.4-.2.7Zm1.1-4.4-.3-.3c-.3.3.1.7.3.3m-.4 12.5.1.2.1-.1zm.8-4v8.7zc.2.3.4.7.8.4q-.1-.5-.8-.4m.1 8.6 1-10.1.5-1.5c-1.1-.1-1.9 1-.6 1.5Zm.3 2q.2.6.5.1-.2-.4-.5 0m.2-7.7v-.2l-.2.1zm0-7.7q0 .1.2 0zm.4 9.9v-6.5c.3.3.4.8 1 .6 0-.6-.5-.5-1-.6Zm1 4c-.3-.2-.4.2-.2.3q.3 0 .1-.3m-.1-7.4-.1-.2zm0 64h-.2l.1.2zm1.5-60.2-.3-.2c-.5 0 .3.8.3.2m-.4 2.5.3.3c.4-.3-.3-.9-.3-.3m0 7.8c.5.5 1.1-.6 1.4-1 0-.6-1.4.6-1.4 1m.4-5.1v-.2c-.6.2 0 .7 0 .1m1.4-1.3c0-.3-.4-.7-.6-.3-.1.5.4.4.6.3m-.4 2.6.3-.1c.2-.6-.6-.5-.4 0m0-7.7h.2zm1.3 14.2q.5-.1.1-.5c-.2 0-.4.5 0 .5m.2-10.2v-.2q-.3.1 0 .2m0 7.3-.1.2h.2zm1 4v.2zm0-5.1q.2.1.3-.1-.3-.1-.3.1m0 2.5h.3q-.2-.2-.2 0m0-5.1q.3.1.4 0 0-.2-.3 0m1.4 3.8h.2v-.1zm0 13q0 .3.2.3zm0 5v.3l.2-.2zm1.2 1.5q.2 0 .3-.2c-.2-.3-.6-.1-.3.2m0-10.6q.2.1.2-.1-.2-.1-.3.1m1.5 12-.1-.3zm-.2-15.7h.2v-.2zm.1 12.8v.2h.1zm1.1-3.6h.3zm.4 9.8q-.3.1-.2.4l.3-.2zm1 1.6q.3.3.1-.2zm0-2.6v.2zm1.6 4.2.1-.5-.3-.2q-.3.5.2.6Zm1-1.8q-.1.1 0 .4l.1-.2zm1.2 4h.3zm1.4 3.9v-.2zm0-10.2v-.4zm1.3 6.8.2-.1c0-.5-.7.1-.2.1m0 7.6-.1-.1zm1.5 6.1q-.3-.8-.4 0zm-.2 5.3-.1-.2zm1.2-1.2h.2q0-.4-.3-.1zm.2-5.4v-.1zm0 10.2v-.2zm1-11.6q.2 0 0-.2-.1 0 0 .2m.1 13h-.2l.1.2zm0-5.3v-.2zm.3 2.6q0-.3-.3-.1 0 .3.3 0m1.2-1.3c-.2-.5-.7.1-.2.3zm-.2-7.5h.2l-.1-.2zm1 8.8v.2h.3q0-.3-.2-.2m.5 10.5q-.1-.5-.4-.2 0 .5.4.2m-.3-5.2v-.2q-.3.2 0 .2m0-7.7.1-.2zm0 10.4.2.1v-.1zm.6-4.8.5-1.8h.2q-.2-.3-.2 0Zm1 6q0-.3-.3 0l.2.2zm0-2.5v-.2c-.5 0-.1.7 0 .2m-.2 7.5v.2q.2-.2 0-.2m.1 2.6h-.1v.2zm1-8.8v-.2h-.1q0 .3.2.2m0 5.1c.4.1.3-.3 0-.3zm.3-10.4q0-.3-.3 0c-.1.2.3.2.3 0m.1 2.7q-.1-.5-.4-.1.2.4.4 0m-.1 10.2h-.3zm0 2.5h-.3l.2.2zm-.2-17.6h.2l-.2-.2zm.2 10h-.2zm1.3 3.7-.1-.1c-.4.2 0 .6.1.1m1-6q.5-.1.2-.5-.5.1-.2.4m.3 17.8q-.1-.4-.4 0 .2.4.4 0m0-2.5c.1-.3-.3-.4-.3 0q.1.4.4 0m0-10.4-.1-.1h-.2q0 .3.2.1m-.3 2.5.2.1v-.1zm1.5 4-.1-.2q-.2.2 0 .3m-.1 4.8v.3q.2-.1 0-.3m.1-2.4v-.2q-.3.3-.1.4zm.1-5.4q-.5.1-.2.6.6 0 .2-.6m-.2-4.7v-.2zm1.3 8.9v-.2l-.2.1zm-.1-5.2q0 .3.2.2.3-.4-.2-.2m0-2.4.2-.1h-.2m.3 10h-.2q0 .2.2 0m1.2-1.1q-.1-.3-.3-.1zm-.2-5.2v-.2zm1.4 8.9-.2.3c.2.3.6-.1.2-.3" class="cls-1"/><path d="M689.3 737.7h-.7c-.9-.2-2.4.3-2.2-1.1q0-.2-.3-.3l-.4-.9-2.2-5.7c-.4-.6-1.2 0-1.8-.2h-.2c-.6.3-1.2-.3-1.7 0-.2.1-.4-.2-.6 0h-.5c-.2-.1-.5.2-.8 0h-.1q-.9.2-1.8 0-.5-.2-1 0c-1.2.2-2.2-.2-3.3 0l-.6-.1-.9.1q-.4-.2-1 0h-1.4c-.2.1-.3-.2-.5 0H666q-.5.1-.9-.3c0 .7-3.2 0-3.9.3q-.2-.2-.5 0l-1 .1v.4q-.2.6-.6 1 0 .7-.4 1.3-.6 1.8-1.4 3.4-.2.2-.2.5l-.5 1.3c-.2.5-1-.1-1.4.1v-.1l.3-.3 1.5-4c1.4-2.9 2.3-6.2 3.8-9 0-1 .7-1.6.8-2.4 0-.6.6-1 .7-1.5l.4-1.2 6.7-17.2q.8-1.5 1.2-3c.4-.4.2-1.5 1-1.4h1.9q.4-.2.5.2c.2 1.3 1.2 2.5 1.2 3.8v-.1l.7 1.2c.1.2-.2.4 0 .6q.4.3.4.5.1.4-.3.3.5.3.4.8-.3.1.1.3v-.3q.4 0 0 .3c.7.5.7 1.4 1.1 2 .1.8.8 1.2.5 2 .7.2.6 1.2 1 1.8q.2.3.2.7.4.5.4 1.2 1.8 4 3.3 8.3l5.3 13.6c.2 1 1.1 2 1 3m-31.5-4.5v-.1m.9-.8h-.1m.4-1.3.2-2.5Zm.8-2.2-.2.1zm.1-.2-.1.1zm.2-1.8q.3 0 .2-.2zm21.3-2.5L678 715c0-.7-.7-1.1-.7-1.8q-.6-1.2-.8-2.4l-.4-.8c.1-.5-.6-.7-.5-1.3l-.6-1.3c.1-.5-.5-.7-.4-1.2v-.3q-.5-.4-.3-1l-.3-.1-1.2-3c-.3-.3-.6-2.5-1-2l-2 5.1-4 10-1 2.6c-.3.5-.3 1.3-.8 1.6q-.3 0-.1.1v.2l-.6 1.7q-.2 0-.2.4t-.3.8q.1.4-.4.4c-.1.1.3.3.1.4-.4.6-.3 1.4-.9 1.9q-.1 1.3-.9 2.5c0 .3-.5.7 0 .8h22.1c.8-.1-1.2-3.2-1.2-3.9Zm-20.7 4.3q-.2 0 0 0m.4-4.9q-.2 0 0 0m.8-2.2q-.2 0 0 0m.7 7.4q0 .2 0 0m2.4.1h-.2zm6.4-.1q.2 0 0 0m2.3-28.1v-.1zm.6 0h.2v-.1zm.2 3.1q-.2 0 0 0m.2.9q0 .2.1 0m0-3h.1m0 1.6h.1q.2-.2 0 0m.4 1.2v-.1m.3 4 .1-4.5Zm.3-3.9h-.2q.1.3.2 0m0 3.2c0 .6.5.1 0 0l.2-.4c-.2 0-.7.5-.2.4m0-1.7h.4q-.2-.5-.4 0h.4Zm0-1.5q.2 0 .2-.2-.2 0-.2.2m.2-.9q0-.2 0 0m.3 4.7q-.3.2-.3.4c.2 0 .8-.5.3-.4m-.1-3v.7q.1.5.5.5-.1-.3-.5-.5Zm0 0 .2 3.9v-.1q-.2.1 0 0Zm.5 3.3v.2zm.2-.8v-.1l.1 1.5.2-.1h-.2Zm.1-1q0-.1 0 0m.2 3.2-.1-.2zm0 .7q-.1-.2 0 0m0-2.1v3.2zv3.2l.2-3.7q.2 0 .1-.2-.2 0 0 .2Zm.5 1.1v2.5zh.2zm0 2.5.3-2.9.1-.4q-.6.1-.1.4Zm0 .6q.1.1.2 0zm.3-1.6v-1.9q0 .3.3.2l-.3-.2Zm.6.1q-.2.1 0 0m0 .8q0-.1 0 0m0 2.2.3-.3c0-.2-.4.2-.4.3m0-1.5q0 .2 0 0m.4-.4q0-.1-.1 0zm-.1.8q-.1-.2-.1 0m.4 1.8q.2 0 0 0m.3-1.8h.2zm.4 4.8q.1 0 0 0m.4 1.9q0-.2 0 0m0-3q0-.2 0 0m.8 4.3v.2zm.7 1 .1-.2q-.2 0 0 .2Zm1.9 4.7q0-.2 0 0m1.1 1.8q-.1-.1 0 .1m.5 1.3.1-.5h.1Zm.3 1q-.2.2 0 0m.3 1.9v-.1q-.2 0 0 0m0-2.3q0 .2 0 0m0-1.3v-.1m.7 7.3q0-.1 0 0m.1-.7q0-.1-.1 0zm.3-1.1v-.1m0-.9v.2q.2 0 0-.2m1.1 2.6" class="cls-1"/><path d="M736.6 737.7c-3.3.3-4.2-1.8-5.9-4.2l-7.8-11.8q-.3-.2-.3-.5l-.9-1.2q-.4-.4-.5-.8c0-.3-.5 0-.7 0-.4.1-.7-.3-1 0l-3-.1q-.9.2-1.8 0c-.6-.1-.4.4-1.1-.3-.2.9-1.3 0-1.8.4h-.2q0-.3-.2-.1-.6.2-1.1 0c-.3-.3-.7.3-1 0-.4-.1 0 1-.3 1.2 0 .8-.3-.2-.5.3 1.4 1.2.3 6.4.6 8.5q0 .4-.2.6.4.5.2 1.1c.2.4-.2.9-.1 1.3q.2.2.2.6v4.7c0 .4-1 .4-1.3.2h-1.4v-16.2q-.2-1.2 0-2.5c0-.2.4-.1.2-.3q-.4-.5-.2-1.3v-.6q.3-.3 0-.5v-1.4c-.2-.9.4-.2 0-1-.2-.4.4-.3.1-.5s.3-.5 0-.8q-.3-.9 0-1.9c-.4-.5-.1-1 0-1.6-.3-.5 0-1.3-.1-2-.1-.1.3-.2.1-.3-.4-1.1 0-2.6-.2-3.8.1-.4-.2-1 .2-1.2q.2-.1 0-.2-.2-.2-.2-.6l.1-2.6q.2-.2 0-.5-.1-.2.2-.3h8.8c4.5.2 9.3-.7 13.5 1.2 8.7 3.5 9.8 14.1 1.4 18.5-.5.3-1.1.8-1.7.6 0 .3-.7.6-1 .3h-.2c.2.3-.5.7-.8.5l-.8.2c-.4.3-1.8 0-1.5.6q.7.8 1.1 1.8l1.3 1.6c-.4.2-.1.4 0 .1q.3.3.2.6.4.2.5.5.8.8 1.2 1.8l5.8 8.6v.2-.2q.7 1.6 2.2 2c.5.2.5 1.5-.1 1.3m-30-22.8.1 6.7-.1-.2.1.2Zm.2-4.5q-.2 0-.2.2.2 0 .2-.2m0 6.8-.2.1zm0 7.8v-24.3zv-24.4q.3 0 .3-.2-.3 0-.2.2Zm0-14.7q.3 0 .2-.2zm.2-6.2v-.6q.2 0 0-.1v.2Zm0 11.9q.2.1 0 0m.1-.9v.2zm0-12.3q0-.2 0 0m0 11.7v.1Zm0 20.7v.1m.4-17.3q-.2-.1-.2.2-.2 0-.2.2zm-.2-9.4-.2.1zm.2 11.6c0-.1-.3-.5-.4-.3 0 .1.3.6.4.3m-.1-5.2-.3.2c.2 0 .7-.3.3-.2m-.1-13.5v7l.2-.1-.2.1Zm.2 10.6q0-.2-.2 0zm0 9.6q-.3 0 0 .1m-.1 1.5q.2-.2 0 0m.1-2.3h-.2q.3.2.2 0m0-11.1q-.3 0 0 0m0 9.6-.1.1zm0-8.9-.1.1m-.1 6.7q0 .2.1 0zm0-11h.1q-.2-.1 0 0m0-7.4q.2 0 0-.1zm0 8q0 .1 0 0m0 7.5q.1 0 0 0m.1 9.6q-.2 0 0 0m-.1-21.4h.1q0-.1-.1 0m.1 25q-.2 0 0 .1m0-23.8v.2zm0 9.7V705v6.3l.3 5.4-.2-.2.2.2Zm0-9.7q.5-.2.2-.2zm.5 8.2.2-.6h-.2q-.2.3-.4.2 0 .4.4.4m-.4-6.7v8.1l.2-.1-.2.1Zm.2 22q0 .2 0 0m0-26.6q-.1 0 0 0m0 19.9v.1zm0-12.6v.1q.2 0 0 0m0 4.5q0 .1 0 0m.2-6.5-.1-.2q-.1 0 0 .1zm-.2 15.4q.2 0 0 0m.2-2v-.4q-.4.2 0 .4m-.2 16v.1q.1 0 0 0m0-31 .2.1q0 .2.2.3-.1-.3-.4-.4m.2 2.8.3 4.8h-.3q.2.4.3 0Zm0 11.8v.5-13.5q0 .3.2.2l-.2-.2Zm0-11.8.1-6q.1-.1 0-.2v.1Zm.2 1.3q-.1 0 0 0m-.1 11.9.2-.1zm0 8.8q0 .2.2 0zm0-29.6h.1m0 21.4c0 .2.3 0 0 0m.1-11.8q-.1 0 0 0m.3 7.7c0-.1-.2-.5-.4-.3 0 .1.5.6.4.3m-.4 7.8.1.1m.1-2.3v.2zm0-4.3q-.2.2 0 0m0 3.6v.2zm0-11.1v.1q0-.1 0 0m0-7.2q0-.3 0 0m0 10.3q0-.2 0 0m.1-1.8.2-.1zm.3-4.5q-.2.1 0 .1m0 11q-.2.2 0 0m0-4.4q-.2.2 0 0m-.1 1.5q.3 0 .5-.3c-.1-.2-.5.2-.5.3m0 12.5v.1m0-20v.1m.2-3.5q-.1-.2-.2 0zm-.2 19.2h.1q-.1-.2 0 0m.1 3v-.2zm0-17.9.1-.2zm.1 8.8-.1.1zm14.8.7a12 12 0 0 0 6.4-3l.7-.7a10 10 0 0 0 1.9-8.5l-1-2.5-1.3-1.7q-1.5-1.4-3.2-2.1c-.3-.2 0-.5-.4-.5-.3.5-1-.2-1.3-.1q-2.2-.4-4.6-.4h-1.4l-6 .1h-3.5c-1.4.5-.2 2.5-.8 3.6l.2.4c0 .7-.3 1.5 0 2.1v2.4c-.4.3.3.7-.2 1q-.2 0-.2.2.4 0 .3.3v2.4c-.6.1.2.5 0 .8-.2 2 .5 4.4-.2 6 4.2.3 8.6-.1 12.8.2a3 3 0 0 1 1.8 0m-14.7-.8v-11.2h.1q-.2 0 0 0Zm.2 3q0-.2-.2-.2zm-.1 8.6q0 .2 0 0m0-30.1h.1v-.2q-.2 0 0 .2m0 1.3q0 .1 0 0m0 21.5h.1m.4-3.4q0 .2 0 0m3 0c-.1.1.2.1 0 0m1.3.6q0-.2-.2-.2zm5.5-.2q0-.4-.2-.3zm0 0h.1m1.6 0v.1q.1 0 0 0m0-20.7h.1m1.2 21.9-.1.2zm.6-.3-.2-.1zm0 .5v-.5zq.4-.1 0-.4Zm.1-1.1v.1m0-.6q.1-.2 0 0m.4.3q0 .2 0 0m0 1.5q0 .2 0 0m.4 1.2q0-.2-.1 0zm0-.8h.2m0-2.5.3 3.6Zm.4.6q-.1 0 0 .1m-.1 1.5.2.1h-.2m0-.7h.1q0-.2-.1 0m.3.9.2 1q0-.2-.2 0h.2Zm.5.6q0-.2 0 0m.2-2.4q-.3 0-.2.2zm.1-.2-.1.2zm0 4.4q.2 0 0 0m1-.2q-.3 0-.4-.3-.4 0-.1.3.3.5.5 0m-.6-.9q.1 0 0-.1zm.2 1.7-.2-.2q0 .2.2.2m0 .3v-.3zq.6-.1 0-.3Zm0-1.5q.3 0 .4.3c.5 0-.3-.9-.4-.3m.2 2.2v-.2q-.1 0 0 .2m.4-1.2q-.2.1 0 .1m0-4.5q-.2 0 0 .2zm.3 4.8h.1m.5 1.2q-.4-.1-.4.2.1.1.4-.2m-.2-25.5.1 18.7Zm.4 26.5q.1.2 0 0m.4-26.2q.2.2 0 0m.1 25.8q0 .1 0 0m.7.2q-.2 0 0 .1m.5-7.6.3 11.2q-.2 0 0 0Zm.9-1.4q.1 0 0 0m0-15.6h.1m.6.9.2-.1zm.2 30.2q.2 0 0 0m.4-17.3-.1-.2zm0 .6q.2.1 0 0m1.1-14.3h.2zm.2 2.7V701l.2 2.5q-.1-.1-.2.1l.2-.1Zm.1.5q.2.2 0 0m0 11.2q.1 0 0 0m.1 19.3q0-.2-.1 0zm0-21.6v.1m.3-.2v-.2zm0-10.4h.1q-.1-.2-.1 0m0 11.7v.1q.1 0 0 0m.4-11.3q.1-.1 0-.2zm0 3.6q.1.1 0 0m0-1.4v-.2zm0 28.9q0 .2 0 0m0 .6v.1m.3-31.4q.2.2 0-.1m0 8.8q0 .2 0 0m.2-7.3h-.2zm-.1 3q0-.2 0 0m.2 26.3q.2 0 .1-.2v.2m0-30.5q.2.1.2 0zm0 4.5h.2q0-.1-.2 0m.2 2.2q-.2 0 0 .1zm0-5.2q-.1-.2 0 .1zm0 7.4q-.1 0 0 0m-.1-3v.1q.2 0 0 0m0-5v-.2zm.5 4.8q0-.3-.2-.1 0 .2.2 0m0 1.4q0-.2-.2 0zm-.2-.8q.2.1 0 0m.2-1.5h-.2q.2.2.2 0m-.2-.7h.1q.2-.1 0 0m0 4.4q.2 0 0 0m.3-.8.2-5.4q0-.2-.1 0h.1Zm.3-1.7q0-.2-.2 0zm-.2 2.2h.1zm.2-3q-.4.1 0 0m.2 1.1q0 .2.1.1 0-.2-.1 0m0-1.5.1.1q0-.1-.1 0m0 .8q0 .1.2 0zm0-2.2h.1zm0-1.6.1.1m.3 1.2.1.1q.1-.2 0 0m.2 3.7h-.2zm0-4.4q-.1 0 0 0m.3 1.8q-.2 0 0 0m0 .8c.2-.2-.2-.1 0 0m0 1.4v.1zm.4-1.7q0-.3 0 0" class="cls-1"/><path d="M790.7 729.6v-.2c0 1-1.3 1.8-2 2.7-1 .8-1.9 2.1-3.2 2.5l-.4.4c0 .2-.5.1-.4.4l.1.6.1.1 2.4 2.8.2.3v.1l.7.9c.1.4 1.5 1.4 1 1.6-.5 0-1.4 0-1.6-.5q-.3-.1-.1-.4l-.1-.1q-1.4-1.5-2.5-3h.3l-.3-.1c-.4-.2-1.1-2-1.7-1.7q-.3.5-.9.4-1.3.8-2.8 1.2c-1.8.3-3.7.8-5.6.6-14.6.3-25.2-16.2-18.6-28.9q.6-.2.2-.4c2-5.4 7.2-9.5 12.7-11.1a20.7 20.7 0 0 1 22.5 31.8m-36.7-9.5q.3 0 0-.1m0-5.8h.1q0-.2 0 0m.1 2.8q-.2 0 0 0m.4-1.1q-.2-.1 0 .1m0 1.7v-.2h-.1zm0-3.1q-.2 0 0 .1m.2 3.4q.3 0 .1-.1m0-.8h.2zm.1-3.8v.2zm.2-.6h-.2q0 .2.2 0m-.1 8.7q-.1 0 0 .2zm0-2.8q-.2 0 0 0m0-6.7q-.1 0 0 0m.3 4.9q-.1 0 0 .1m0 4.4q0-.2 0 0m0 .6v.2zm0-9.6q0 .2 0 0m0 1.5q0 .1 0 0m0 2.1v.2zm.2-6.7-.1.1q-.3-.2.1-.4zm0 1.1v4.1-5.5Zm0 4.1v-4l.2 6.9q0-.2-.1-.1Zm.3-2.4q-.1-.2-.2 0zm-.2 9.7q.1 0 0 0m0 2.9q.2.2 0 0m.1-2.3q-.1 0 0 .2.2-.1 0-.2m0 1.6q0 .2 0 0m.1-8-.1-.2zm0-4.8v6.7zl.2 5q0-.2-.2-.2l.2.2Zm0 6.7.2-7.5q.1 0 0-.2v.2Zm.2-6.2v.2q.2-.2 0-.2m0 .7v.2q.2-.1 0-.2m.2 3q-.1-.1-.2 0 .1.3.2 0m-.1-.7q-.2-.2 0 0m0 5.9v.1Zm0-3.7q-.2.2 0 0m.4-7.7q0-.3-.2-.1 0 .2.2 0m-.2 8.8.1.1zm0-6.6h.2zm0-3.7q.3 0 .1-.1v.1m.1 4.5v-.1m0-3.9q.1 0 0 0m.4 1.8q0 .3 0 0m0 17.3q0-.2 0 0m0-15v.2zm.2-1.2q0-.3-.2-.3 0 .2.2.2m34.4 6.5-.6-5.5q-.4-.3-.3-.8-.4-.8-.5-1.7a19 19 0 0 0-14.3-11.5q0-.4-.2-.1c-.8.5-1.9-.1-2.8.1q-2.6.4-5 1.5l-1.4.6q-.4 0-.7.3l-3.2 2.9-.3.3-.7.7a28 28 0 0 0-3.9 7.4q.2.5-.1 1.1 0 .4-.3.5v.1c.3.2 0 .5 0 .7 0 1-.4 1.8-.2 2.7a18 18 0 0 0 .4 4.9l.4 1.5c0 .4.3 1.3.4 1.5 0 .7.7 1.3.6 2v-.1l.3.2c0 .7.7 1 .8 1.7l1.4 2c.3.4 1.1.8 1.1 1.4l.1.1c3.5 3.2 7 4.8 11.7 5.1 1.7-.4 3.6-.3 5.2-1 .5 0 1-.5 1.4-.5h.2q.6-.6 1.2-.8c1-.9-1.9-2.5-2-3.6l-1.6-2q-.5-.3 0-.6c.2-.2.5-.6.7-.3q2.1 2.6 4 5.3c.4.6 1.1-.5 1.5-.7h.1q.3-.5.8-.8 0-.4.3 0c.3-.2 0-.6.4-.8l1.3-1.5q3.7-5.6 3.8-12.2Zm-34.4-8.4h.3q-.1-.3-.3 0m0 1.9V708q.2.1.2 0h-.1Zm0-4.3h.2zm0 3h.2q0-.2-.1 0m.1 15.6h.1zm0-17.9v.2q.3 0 0-.2m0 15.8q.1-.2 0 0m0 3.4q.2 0 0 0m.8-16.9q0-.4-.6-.6.1.4.6.6m-.4-1.1.1-.1h-.1m0 18.5v-.1q0 .2 0 0m0-20h.1q0-.2-.1 0m0 3q0-.2 0 0m0-3.8h.1zm.2 1.3q-.2 0-.2.2zm0-2q-.1.1 0 0m0 2 .3 1.3h-.1Zm.1-1h.1m.1-.7q0 .2 0 0m.4 2.6q-.2 0 0 0m0-2v-.2q-.3.1 0 .2m0 19.8q-.1 0 0 0m0-19.2q-.1 0 0 0m0-2.2q-.2 0 0 0m0 .8q-.2-.1 0 0m.4 23.3v-.1q-.2 0 0 0m0-21.4v-.1q-.2-.1 0 0m0-.9q0 .1 0 0m.4-.1-.1-.2zm-.1-1q0 .1.2 0zm.1 24.6v-23.6l.3 23.8zq0 .3.2.2Zm.1-24.5.2 24Zm.2-.5q0 .2 0 0m0-.6v-.1m.4.3v-.1q-.2 0 0 .1m0 25.2q-.2 0 0 0m0 .7q-.1 0 0 0M760 703q.3 0 0 0m.5 1.9q-.1 0 0 0m.4 26.3-.1-.1q0 .2 0 0m.6-28.2h.1zm.4-.3v-.2zm.4.4.3-1.9Zm1-1.9q.2 0 0 0m0 32.5q.1.1 0 0m.8-33.2v-.1m.4-1.1v-.1m1.2.3q-.2.1 0 0m.3-.3.2-.2q-.2 0-.2.2m.2-.2.1-.2zm1.2-1.4.1.1m.5 1.2v-.1zm1.7-1.1q.3 0 .2-.3zm.3-.3.2 39.1Zm.5-.5q0 .1 0 0m.8 0q-.2.2 0 0m.6 0q0 .1.1 0m2-.4.1.1m.1.2.2.2zm4.3 39.8q0-.1 0 0m.8 0q-.1-.2 0 0m2.8-.6.5-1.2Zm1.9-2.1q0 .2 0 0m0 .8q0-.1 0 0m.7 0 .2-.2zm.1.6.3-1-.2.2q.2 0 .2-.2Zm0 0 .4-1.7Zm.7-2v-.1m.2.5-.2.2q.2 0 .2-.2m.3-.4q-.3 0-.2.4.3-.1.2-.4m-.1-.6q0 .2 0 0m.3.4-.2.2q.3 0 .2-.2m.3-1.6h-.3q0 .3.3 0m-.2-29.5q0 .2 0 0m.3 29.9v.2q.2 0 0-.1m.6-.8q0-.2-.2-.2zm0 0 .1-29.4Zm.6.5q-.2.2 0 0m.3.4.1-.2c.8 0 0-.6 0 .2m.1-2.8.2-26.4Zm.7 2.1q0-.1-.1 0zm.7-2.2v-.1q-.2 0 0 .2m0-24.3v-.2zm0 25.7v-.1m.3-.3-.2.1zm0-.8q0 .2 0 0m.1-.7q-.2.1 0 0m0-24.3v-.2zm.3 23.8q0 .2 0 0m0-23.5v-.1m0 22.8q.1 0 0-.1m0-22.2q0 .1 0 0m.3 3.5.2-.9h-.1Zm0-1.7q0 .2.2 0zm0 19.4q.3 0 .2-.2zm0-21.5h.2zm.2 22-.1.2zm0-.7q.3 0 .3-.2-.2 0-.2.2m.3.5q-.2 0-.2.2zm0-20q0 .1 0 0m0 1.5c.4.6.6.1 0-.1m.2 19.4.1.2zv.2Zm.2-2.7q0-.1-.1 0m-.1.8.1-.1m.1-15.6.2.1zm.3.3v-.1q0 .2 0 0m.1-3.7q-.1 0 0 0m.1 10.1h.3zm.3 6.6h-.2zm0-13.2v-.2q-.4 0 0 .2m0 5.1-.2-.2zm-.2-6.7h.2zm0 17.8q0-.2 0 0m0-3.7h.2q-.1-.3-.1 0m.1-4.4v-.1m.1-1.5.3-3.1.4.1-.3-.6q-.5.2 0 .5Zm.2-6.3q.1 0 0-.1zm0-2.3q0 .2 0 0m.1 15.6q0-.2-.1 0zm0-14.8q-.2-.2 0 0m0 12.5q-.2.2 0 0m0-10.4q-.2.2 0 0m-.1 15q0-.2 0 0m0-6.9.1.2zm.1-9.5q0-.2 0 0m0 5.2q-.2 0 0 0m.1-2.4v5.2-5.3q.3 0 .2-.2zm0 5.2.1-7q0 .3.2.2 0-.3-.2-.1Zm.1-2.5q.1.3.2 0zm0-5.2h.2q0-.1-.2 0m.2-.6v-.2q-.3.1 0 .2m0 5.2q0-.4-.1 0m0 1.3q-.2 0 0 .2zm.3-2.4v-.2q-.2 0 0 .2m0-1.7q-.1.2 0 .2zm0-1.4q-.2.2 0 0m0 4.4q0 .1 0 0m0-6.5v-.1m0 11.8q0-.2 0 0m0-.8q.1.1 0 0m0 1.6q0-.1 0 0m.3-3.3q.3-.2-.1-.3l-.2.5q.2.1.3-.2m-.3 6.1q0 .2 0 0m0-9.5q.3-.1.4-.4c0-.3-.6.4-.3.4m.2 3v-1l.1-.8q.2 0 0-.2v.2Zm.1-7.1q0-.1 0 0m.1 9.6q0-.2 0 0m0-5.3v.2zm0 3.8q0-.1 0 0m0 3.7q0 .1 0 0m.3-7q-.1-.2-.1 0m0 2.3v-.2zm0-1.7v.2q.3-.1 0-.2m0-2.8q0-.1-.1 0m0 1.5q-.1-.1 0 0m0 5.9q0-.2 0 0m.1.7q-.1.1 0 0m.3-2.5q.2 0 0-.2-.2.1 0 .2m0 2.9v-.1q-.1 0 0 0m0-5.8q.6.5.1 0c0-.3-.3 0 0 0m0-.9q0 .1 0 0m0-2.1.1-.1v-.1.1m.3 5.4q.2 0 0 0m.2-1.5h-.2zm0 3.8h-.2zm.3-4v-.1" class="cls-1"/><path d="M843.2 725.8a10 10 0 0 1-.9 3.4q0 .5-.3.7c0 .5-.5.8-.5 1.3l-.2.1h-.1a13 13 0 0 1-6 5.3l-1 .5-.5.2c-.4.4-1.1.2-1.6.5q-.4.2-.7-.2 0 .6-.5.3l-.2-.1c-.4.6-3.1.7-3.6 0q0 .2.2.3c-.1.4-.7.1-1 0h-1.2q-.4-.3-.7-.2c-.3 0-.5-.4-1-.3l-.8-.3a7 7 0 0 1-3-1.4 13 13 0 0 1-6.2-7.4v-.5l-.3-.4q0-.6-.2-1l-.1-4.5c-.1-.2.4-.4.1-.5-.4-2.3 0-4.7 0-7-.2-.2.2-.3.1-.4a7 7 0 0 1 0-3.7c-.4-1 0-2.4-.2-3.6q0-.4.2-.7v-.2c-.4-.4.2-.6 0-.8-.4-.2 0-.4 0-.6q-.4-.2 0-.6v-.2c-.2-.1-.3-1.3 0-1.4v-.1c-.4-.2 0-.6-.2-.8v-1.2q.1-.3 0-.4c0-.3.4-.5 0-.6 0-.4-.3-1.7.3-1.8h.8c.3.3.6-.4.8.3q-.3 0-.4.3c.4-.2 1.2-1.2 1.2 0-.4.6.3 1.6-.2 2v.2c.4.9 0 2 .2 2.9q-.2.7 0 1.6-.3.5 0 .9v15.8a16 16 0 0 0 1 7.8q1.4 3 4 4.8l2.7 1.6q0 .2.2 0c.7-.2 1.5.6 2.2.6q.4 0 .6.3.5-.2 1 0 .5-.2.9 0 0 .3.2.2.6-.4 1.3-.2c5.7-.2 11-4.2 12.3-9.8.2-1.6-.2-3.4.3-5q-.3-1-.1-2c-.3-5 0-10.3-.1-15.4v-6.6c0-.4 1.2-.4 1 0q.3 2.6.2 5.1 0 .3-.2.5c.4 1.2 0 2.4.2 3.6-.2 1.3.2 2.8-.1 4 .3.7 0 1.7.1 2.6-.1 1 .2 2.2-.2 3-.2.3.3.2.2.4v4.4l-.1 3zm-29.8-19.4-.3.3q.2 0 .3-.3m0 1.5c0 .3.3-.2.4-.3q-.3-.2-.5.3m0 .9v-.1m0-9c0 .2.3-.2.4-.3-.1-.3-.4.1-.5.3m0 1.6v-.1m0-3v-.1zm0 5.8q0 .2 0 0m0 6.7q.1.1 0 0m0-.6q.1-.3 0 0m.1 6.7.3-6.4q-.2 0 0 0Zm.3-5.7h-.1m0-10.4q-.2 0 0 0m-.1-2.2q.2 0 .1-.2zm0 1.4q.2.1 0 0m.1 3q0 .1 0 0m.3 1q0-.2-.4-.2c0 .1.4.5.4.2m-.3 13.9v-.1m0-11.8v-.2zm0 8.9v-.1Zm0 7.4v-.1m0-24q.6.1.5-.4-.3 0-.4.4m.4 15.4q0-.2-.1 0zm-.1 6.8v-.2zm0-17.2h.1q0-.1-.1 0m0 16.4v-.1m0-17v-.2zm.1-3q0-.2-.1-.1 0 .2.1 0m0 9.6v-.1q-.2 0 0 .1m0 9.6q0-.1-.1 0m-.1-18.5q-.2 0 0 0m0 4.4q.2 0 0 0m0 10.3c0 .3.4-.1.4-.3-.1-.2-.3.2-.4.3m.1 6.8q0-.2 0 0m0-11.1v-.1m0 18.5q0-.2 0 0m0-11.2q-.2.1 0 0m0-2.4v-14.5.5l.5-.5h-.4v.5q.4 0 .4-.5Zm.1 0 .2-16.4q-.2 0 0 0Zm.2-1.6v-.1zm0-6q0 .2 0 0m.2.6q-.3 0-.2.2zm-.2 18.8q0-.3 0 0m0 .6q0 .2 0 0m0-11v-.1m0-6.7v-.1Zm.2 8.3-.2-.2zm0-17.5v7.5q.3 0 .2-.2l-.1.2Zm.1 11.9v-.1m0-.9q.1 0 0 0m.4-8.4v-.1c-.6.1-.4.7 0 0m-.3 14.4v-.1m0 3.6q0-.2 0 0m0-22.1q0-.1 0 0m.4 30.7q-.1 0 0 0m0-25.3q0 .2 0 0m.3 25v-.2.1m0-.8v-.1zm0 1.4q.1 0 0 0m.8-1.6.4 2.8q-.2-.2 0 0Zm.3 2v-.1Zm2.3 2.8v.2zm.6 1.8.1-.8Zm3 1.2v.2zm0-1.4h.1m.7 1.5q.1 0 0 0m1.6 0q.2-.1 0 0m.7-.9.7.3q-.4 0-.3.2l.3-.2Zm1.2.5q-.2-.2 0 0m.5-.2.5 1.3Zm.6.6q0-.1-.1 0zm.6 0q.2 0 0 0m0 .6q.3 0 0 0m.5-.3q-.2 0 0 0m.8 0q-.1.3.2.4c.2-.1-.2-.4-.2-.4m1-.4q.2 0 0 0m.6.5-.2-.1q-.1.1.2.1m0-.6.2.2zq0 .3.2.2Zm.7-.4.5.2Zm1 .6q0-.2-.1 0m-.1-.7v-.1m1.3-.3.7-.2q-.2-.1-.1.1Zm1.4-1q-.2 0 0 .1zm6.3-5.3v-.1m.3-3.4v-.1m0-3.7v-.1m.1-6.5v-.2zm.3-5.8q0-.1-.1 0zm0 14h-.1zm0-6h-.1v.1m0 4.6h-.1m.3 2.6h.2z" class="cls-1"/><path d="M866 737q.2.6-.4.6h-2l-.1-.1v-1c-.4-.4 0-1-.2-1.6q.2-.5.1-.9v-.2c.3-.7-.3-1.5 0-2.2v-.6c-.1-.4.2-1 0-1.4v-1c.3-.5-.1-1.1.1-1.7q-.2-.5 0-.8v-.7c-.3-1 0-1.8 0-2.7v-3.6q-.3-1.5 0-3v-3.6c-.3-.2 0-.4 0-.7-.3-.2 0-.4-.1-.6v-1.8q0-.2.3-.5c-.9-.3.1-1.5-.4-2.2l.1-.6q-.2-.4 0-.7c-.2-.6.2-1.4 0-2.2v-1.1c.3-.6 0-1.3 0-2q.1-.5 0-.8.1-.4 0-.8v-.3c.3-.2-.3-.5 0-.7.9.2 1.8-.2 2.6.2zm-2.3-28.1.1-.1m.2 28q-.1 0 0 0m-.1-5.2h.1q0-.1-.1 0m0-23.7h.1zm.1 28.1q0 .1 0 0m0-16.9v-.1Zm0-3v-.1m0-12q0 .1 0 0m.1 3.2.2.2zq0 .2.2.2Zm.3-6.5q-.2-.2 0 0m-.1 23.8v-.1m0 4.4v-.1m0 6.7v-.1m0-26.7h.1q0-.2 0 0m.4-4.1q-.2 0 0 0m0 8.2v-.1q0 .2 0 0m0-4.5q0 .1 0 0m0 2.2q0 .1 0 0m.3-6.8q-.3 0-.3.2zm-.3 12.8q0-.1 0 0m0-16.3q0-.2 0 0m0 2.9h.1m0 25.2q.1 0 0 0m.3-28.5v-.2zm0 2.9q0 .1.2 0zm0 8.9h.1m.1.8q0-.2 0 0m0 17.1v-.1zm0-15v.2zm0 17.9v-.1q0 .2 0 0m0-31.9.2-.2q-.2 0-.2.2m.2 30.9-.2.2zm0 3.5V700zm.2-14.1v.2zm-.1-17.8q.2 0 0 0m.1 1.6q-.1 0 0 0m.2 3.1V701h.1Zm0-5h.1m.2 29q0-.2-.1 0zm0-7.5q0 .2.1 0m0 3" class="cls-1"/><path d="M912.1 699.2q-6.1-.4-12.4-.6l-.7.2c-.3.5 0 1.3-.1 2v36.6c-.4.5-1.5 0-2.1.2-1 0-.3-1.5-.6-2 .3-.4 0-.8 0-1.3l.1-1.9v-10q-.1-.2 0-.4-.2-.2 0-.5V720c.2-1.2-.1-2.7 0-4v-17c0-.7-.9-.3-1.3-.4h-.9c-.2.2-.4-.1-.6 0h-1.2c-2.4.5-5 .3-7.4.4q-1 .2-2 0-.3.2-.3 0c.1-.5-.2-1.3.2-1.5h29.3c.3-.2.5.2.5.4-.1.4.2 1.3-.5 1.3M896.7 723v.1zm0 13.4v.1zm0-15.5q0 .1 0 0m0-2.9q0-.3 0 0m0-5.2q0-.2 0 0m.1 3.6v-.2zm0-1.2v4.1l.2 11.6-.2.1.2-.1Zm0 0v.2q.6-.1 0-.2m0 1 .3 2.8q-.2 0-.2.2l.2-.2Zm.3 5.7h-.1m0-5.1h-.1zm0 1.4h-.1q.1.2.1 0m0 3.1v-.1m0 8q0 .2 0 0m.2-17.9q-.2 0-.2.3zm0 14.4-.2-.1zm0-17.3V726l.1.2q.1-.1-.1-.2Zm0 0q.2 0 .2-.3-.2 0-.2.2m0-2.4h.1m0 .7c0 .2.6-.2.6-.4-.1-.2-.4.3-.6.3m0 20.7h.2zm.2-7.4h-.2q.1.2.2 0m0-4.5q-.2 0-.1.1m0 1.5q.2 0 0 0m0 12v-.2q-.2 0-.1.2zm0-7.6q-.2 0 0 .2zm0 3q-.1 0 0 0M897 714q.2 0 0 0m.4 4.2q0-.2-.2-.3 0 .3-.2.4.1.4.4-.1m-.3 5.4h-.1m0-21.4h-.1m0 23v-.2q-.1.1 0 .1m.4-10.1c-.1-.1-.4-.6-.5-.3.1.1.3.6.5.3m-.4 2.8v2.6h.1l.2 4.2h-.1q0 .2.1 0Zm.3-2.1q0 .1 0 0m.1-8.8q-.1-.2-.1 0zm-.1 11.8q0-.2 0 0m0-6.7q0 .1 0 0m0 12v-.1m0-6.9v.2zm.2-4.4.2-.3zq.2 0 .2-.2Zm.2.4h-.1q0 .1.1 0m-.1-1.4q.2 0 0-.1m.1 10.4q-.2 0 0 0m0-2.4v.2zm0-3.5q-.2-.2 0 0m0 4.3q-.2 0 0 .1m0-3q-.2 0 0 .1m-.1-6.6q0 .1.1 0zm.1-.7q-.2 0 0 0m0-.7q-.2-.1 0 0m.3-4.7q-.2 0-.3.2zm0 0v-.1m0 23.6v-.1m13.7-30.7" class="cls-1"/><path d="M955 737.7q-.2-.2-.5 0H952c-1.2-.3-2.6 0-3.6 0l-4.7-.1c-.9.1-1.8-.2-2.6.1l-.4-.1c-.6.3-1.2-.2-1.8 0l-3 .1q-.4-.1-.8 0-.7-.2-1.4 0h-.6l-.7-.1h-.6q-.6.2-1.3 0-.5.2-1 0h-.5v-6.4l.1-.7c-.3-2.1 0-4.4-.1-6.4v-2.3q-.2-.6.1-1v-.1c-.3-.5 0-1.1 0-1.7-.3-.5 0-.9 0-1.3q-.2-.6 0-1.3.1 0 0-.2c-.4-.2 0-.5 0-.9q-.2-.5 0-1l-.1-.5v-1.1q-.1-.7.1-1.4c0-.3-.3-.5 0-.7v-.3l-.1-.7q.2-.4.1-.8l-.1-1.5v-.4c.2-.5-.3-1 0-1.5.3-.3-.2-.7.4-.7q-.7-1 0-1.9c-.7 0-.4-.7-.3-1s-.2-.5 0-.8-.4-.6 0-.9v-.1c-.3-.3 0-.7 0-1v-.8c0-.4-.2-.9.3-.8h9c.3-.2.7.2 1.1 0h3c.2.1 1-.2.9.3l.8-.2q.4-.2.9 0c1-.3 2.2 0 3 0 .4-.3.6.2.8 0s.6.2.8 0 .4.2.7 0h1.4l3.2-.1q.3 0 .3.2c.4 2-.3 1.5-1.8 1.5-.3-.3-.7.2-1-.2l-.5.2-.4-.2q-4 0-7.7-.3c-.6.3-1.1-.2-1.7 0q-.3.1-.3-.2c-.6.5-1.5.1-2.2.1l-4 .1h-3.5q-.6-.2-.6.4l-.2.4c.6.8.2 1.8.2 2.7q.2 1.9 0 4c-.2.8.3 1.9 0 2.7q-.5 0 0 .3v3.6c.2 5-.8 3.2 4.7 3.6h10.8c.7-.5 1.4 1.3.4 1.1h-13.2c-3.2-.1-2.6-.3-2.6 2.7V736c-.1.8 1.6.2 2.2.3l2.6.1q7.1-.1 14.2-.5h1.4q.3.2.5 0c.8.3 2.8-.8 2.8.5 0 .3.2 1.4-.4 1.2ZM929.5 703l.1-.2q0-.2-.1.1m0 1.8q0 .3.3.3 0-.3-.3-.3m.3 7.7v-.4q-.4.2 0 .4m-.2 2.9q.1 0 0-.1m0-14.9q0 .2 0 0m.1 6.7v-.1q-.2 0 0 0m0-5.2q-.2 0 0 0m0 29.6q0 .1 0 0m0-20.7q-.2 0 0 0m0-.6v-.2zm0 15.4q-.1-.2 0 0m0-24.4q-.1-.1 0 0m0 3.1v8.6l.1-7.5q.5-.3 0-.4v.4Zm0 6 .5 2.1h-.4v.4q.3 0 .4-.4Zm.1-1.5V704v7.7l.3-3.9h-.2q.1.3.2 0Zm.1 5.3q.3 0 0 0m0-14.1h.2zm0 28.1.1.1m.1 5.3q0 .2 0 0m0-31.1q0-.2 0 0m.2 5.3-.2-.2q0 .3.2.2m-.1 22.7q-.1-.1 0 .1m.4-24.7c-.2-.2-.8.4-.3.5zm-.3-2.8q-.2 0-.2.2.2 0 .2-.2m0 7.1.2-2.1-.2-.2.2.2Zm0 2.5v-6.2l.3 3.9q0-.2-.3-.2 0 .2.3.2Zm.3-9.8q-.2 0-.3.2.2 0 .2-.2m0 1.5h-.2zm-.2-5 .1-.2q-.2 0 0 .2m.5 9.8c-.2 0-.8.3-.3.6 0-.3.4-.4.3-.6m-.4-5.6q-.1 0 0 .2zm0 9.8v-.1q-.2 0 0 .1m0 15.5q0 .2 0 0m0-6.7q-.2-.2 0 0m0-8.1q0-.1 0 0m0-13.3v-.1m0 22.2v-.1m0-4.5q0-.1 0 0m0 16.3v-.1m.3-27.2-.3-.2q0 .3.2.2c.1.5.5 0 0 0Zm-.2 4.1v-1.9zl.1-9.4v27l.2-.1h-.1Zm.2-8.4v-.1zm0 3.8.1-.1m.1-6.1q-.2 0 0 .1zm0 .9v-.1q-.2 0 0 0m0 2.7v.2q.2 0 0-.1m.1-.8-.2.2q.3 0 .2-.2m-.1 22.5v-.1Zm0-1.6q0 .2 0 0m.1 11.8h.1m.2-.2-.1.2zm-.1-32.5.1-5.2v-.1Zm0 28.8h.1m0-23.7h.2zm.1 2.9q0-.1 0 0m.1 2.8-.1.2zm-.1-2v-.1m0 7.4q.2 0 0-.1m0-13.5v.2zm.5-1.8q-.2-.1-.2-.4c.2-.5-.5 0-.2.3 0 .1.3.5.4.1m-.4 27.2v-.1m0-28.8.3 11.4-.2.1.2-.1Zm0 0 .3.2q0-.2-.2-.2m.3 10.5q0 .2 0 0m0 13.4q0-.2 0 0m.2-24.6V712l.1-14.5ZM944 697l.6 19.4Zm2.4.5q0 .2.1.1m1.4.1h.2zm1-.3.2 38.3v.1Zm2.8.3v-.1m.4.4q.2 0 0-.2zm.4-.4v-.1q-.1 0 0 0m.4.3q-.1 0 0 0m.6 38.5q.2 0 0 0m.8-38.4v-.1m.7-1v.2zm.4.6" class="cls-1"/><path d="M998.2 699.2q-6.1-.4-12.4-.6l-.8.2v38.6c-.5.5-1.5 0-2.2.2-.9 0-.3-1.5-.5-2q.2-.6 0-1.3v-1.9q.2-4.7 0-9.6.2 0 0-.4v-.9q.2-.4 0-.7v-.8l.1-4q-.2-.5 0-1v-16c0-.7-1-.3-1.4-.4h-.8c-.2.2-.4-.1-.6 0h-1.2c-2.5.5-5 .3-7.5.4q-1 .2-2 0-.2.2-.2 0c0-.5-.2-1.3.2-1.5h29.3c.3-.2.5.2.4.4 0 .4.2 1.3-.4 1.3m-26.5-1.2h-.1zm11 25v.1q.2 0 0-.1m0 13.4v.1q.2 0 0-.1m.1-15.5q-.2.1 0 0m0 .7h.1m0-3.6q0-.3 0 0m0-5.2q0-.2 0 0m.1 18.3-.2.1q.2.1.2-.2m-.1-14.7v-.2zm.1-1.2v4.1l.1 11.6-.1.1q.3-.1.1-.1Zm0 0v.2q.4-.1 0-.2m0 1 .2 2.8-.2.2.2-.2Zm.3 5.7h-.2zm0-5.1h-.2zm0 1.4h-.2q.1.2.2 0m-.2 2.3h.1m.2.8v-.1q-.2 0 0 0m-.1 8q0 .2 0 0m0-4.3v-.1m.2-13.6-.2.3q.3 0 .2-.3m0 14.4-.1-.1zm0-17.3v17.3q0 .2.2.2l-.1-.2Zm0 0q.3 0 .2-.3zm0-2.4h.2-.1m.2 7.3q-.2 0 0 0m-.1-6.6c0 .2.5-.2.6-.4-.2-.2-.4.3-.6.3m0 20.7h.2zm.2-7.4h-.2q0 .2.2 0m0-4.5q-.3 0-.2.1zm0 7.5h-.2zm-.1 5.3v-.1m0 .7v-.2zm0-7.6v.2zm.3-3.1q.2-.2-.1-.3 0 .3-.2.4c-.1.4.3.1.3-.1m-.3 7v-.2zm.4-10.1c0-.1-.4-.6-.4-.3 0 .1.3.6.4.3m-.3 2.8v2.6l.3 4.2h-.1q0 .2 0 0Zm.3-10.2h-.1m0 8.1q0 .1 0 0m0-8.8q-.2-.2 0 0m0 11.8q0-.2 0 0m0-6.7q0 .1 0 0m0 12v-.1m0-6.9v.2zm.2-4.4.2-.3q-.2 0-.2.2.2 0 .2-.2Zm.2.4h-.2q0 .1.2 0m-.2-1.4q.2 0 .1-.1m.2 10.4q-.1 0 0 0m0-2.4-.1.2q.1 0 0-.2m-.1-3.5q0-.2 0 0m0-5.3q0 .1.1 0zm0-1.4h.1q-.1-.1 0 0m0 7.3.1.1m.3-12-.2.2zm0 0v-.1m.1 23.6v-.1m7.1-30.8q-.1 0 0 0m.4.5q-.2 0 0 0m6.2-.4" class="cls-1"/><path d="M1045 725.8a10 10 0 0 1-.9 3.4q0 .5-.3.7c0 .5-.5.8-.5 1.3l-.2.1c0-.1-.3 0 0 0a13 13 0 0 1-6 5.3l-1 .5-.6.2c-.4.4-1 .2-1.5.5q-.5.2-.8-.2 0 .6-.5.3l-.2-.1c-.4.6-3.1.7-3.6 0q0 .2.2.3c-.1.4-.7.1-1 0h-1.2q-.4-.3-.7-.2c-.3 0-.5-.4-1-.3l-.8-.3a7 7 0 0 1-3-1.4 13 13 0 0 1-6.2-7.4v-.5l-.2-.4c-.2-.4 0-.7-.2-1l-.2-4.5c0-.2.4-.4.1-.5-.4-2.3 0-4.7 0-7l.1-.4a7 7 0 0 1 0-3.7c-.4-1 0-2.4-.1-3.6q-.1-.4.1-.7v-.2c-.4-.4.2-.6 0-.8s0-.4 0-.6q-.2-.2 0-.6v-.2c-.2-.1-.3-1.3 0-1.4v-.1c-.3-.2 0-.6-.1-.8q-.2-.7 0-1.2v-.4c0-.3.3-.5 0-.6 0-.4-.4-1.7.2-1.8h.8c.3.3.6-.4.8.3q-.3 0-.4.3c.5-.2 1.2-1.2 1.2 0-.3.6.3 1.6-.1 2q-.2 0-.1.2c.4.9 0 2 .2 2.9-.2.5.1 1 0 1.6v16.7c0 2.6-.2 5.3 1 7.8q1.4 3 4 4.8l2.8 1.6q0 .2.1 0c.7-.2 1.5.6 2.2.6q.5 0 .6.3.5-.2 1 0 .4-.2 1 0-.1.3.1.2.7-.4 1.3-.2c5.7-.2 11-4.2 12.3-9.8.3-1.6-.2-3.4.3-5q-.3-1-.1-2c-.3-5 0-10.3-.1-15.4v-6.6c0-.4 1.2-.4 1.1 0q.2 2.6 0 5.1.2.3 0 .5-.1 0 0 0c.3 1.2 0 2.4 0 3.6s.3 2.8 0 4c.3.7 0 1.7.1 2.6-.1 1 .2 2.2-.2 3-.2.3.3.2.2.4v4.4l-.1 3zm-29.8-19.4-.2.3q.2 0 .2-.3m0 1.5c0 .3.3-.2.4-.3q-.2-.2-.5.3m0-8.1c0 .2.3-.2.4-.3-.1-.3-.4.1-.4.3m0 9v-.1m0-7.4v-.1m0-3v-.1zm0 5.8q0 .2 0 0m0 6.7q.2.1 0 0m.1-7.4h-.1zm0 6.8q0-.3-.1 0zm0 14h-.1m.1-7.3.3-6.4h-.1q-.1 0 0 0Zm.2-16.1q-.2 0 0 0m0-2.2v-.2zm0 1.4q0 .1 0 0m0 3q0 .1 0 0m.3 1q0-.2-.3-.2c0 .1.3.5.3.2m-.3 13.9v-.1m0-11.8v-.2zm0 16.3v-.1m0-24q.5.1.5-.4-.3 0-.4.4m.4 15.4q0-.2-.1 0zm0 6.8v-.2q-.2 0 0 .1m-.1-17.2h.1q0-.1-.1 0m0 16.4.1-.1q-.2 0 0 0m0-17v-.2zm0 6.6q.2 0 .1-.1-.1 0 0 .1m.1-9.6q0-.2-.1-.1 0 .2.2 0m0 19.2q0-.1-.1 0zm-.1-18.5h.1m0 25.2h.1zm0-20.8q.2 0 0 0m.1 10.3c-.1.3.3-.1.3-.3s-.3.2-.4.3m0 6.8q0-.2 0 0m0 7.4q0-.2 0 0m0-18.5v-.1m0 7.3q0 .1 0 0m.1-16.4v14-14.5h.4-.4zq.4 0 .4-.5Zm0 14 .2-16.4Zm.1-1.6q.2.1.1-.1zm0-6q0 .2.2 0zm.3.6s-.4.1-.2.2zm-.2 18.8q0-.3 0 0m0-14.9q.1 0 0 0m0 17 .1-.1m0-1.5q.1.2 0 0m0-24.5v.2zm0 13.5v-.1m0-6.7v-.1Zm.2 8.3-.1-.2zm0-17.5v7.5q.3 0 .3-.2-.2 0-.2.2Zm.1 11.9v-.1m0-.9q.1 0 0 0m.4-8.4v-.1c-.6.1-.4.7 0 0m-.3 14.4v-.1m0 3.6q.2-.2 0 0m0-22.2q.2-.1 0 0m0 31.2q0-.2 0 0m0-19.4q.1 0 0 0m.3 7.7h.1zm.4 11q.1 0 0-.2zm0-.8q.2 0 0-.1zm0 1.4q.1 0 0 0m.9-1.6.3 2.8q0-.2 0 0Zm.2 2v-.1Zm2.3 2.8v.2zm.6 1.8.1-.8Zm2.3-.2q.1 0 0 0m.8 1.4v.2zm2.2.1q.2-.1 0 0m.8-.9.6.3q-.3 0-.2.2l.2-.2Zm1.1.5q-.2-.2 0 0m.5-.2.5 1.3Zm.7.6q-.1-.1-.2 0zm1.8.3q0 .3.3.4 0-.3-.3-.4m1-.4q.1 0 0 0m.6.5-.2-.1zm0-.6.2.2zq0 .3.2.2Zm.7-.4.6.2Zm1 .6q0-.2-.1 0m0-.7v-.1q-.1 0 0 0m1.2-.3.7-.2q-.2-.1-.1.1Zm1.4-1q-.1 0 0 .1zm1.2-.2h-.2zm5.1-5.1v-.1m.3-3.4v-.1m0-3.7v-.1m.2-6.5-.1-.2zm.2-5.8q0-.1 0 0m.3 15.2h.2z" class="cls-1"/><path d="M1095.4 737.7c-3.3.3-4.2-1.8-5.9-4.2l-7.8-11.8q-.3-.2-.3-.5l-.9-1.2-.6-.8c0-.3-.5 0-.7 0-.3.1-.6-.3-1 0l-2.9-.1q-.9.2-1.8 0c-.6-.1-.4.4-1.2-.3-.1.9-1.2 0-1.8.4h-.1q0-.3-.3-.1-.5.2-1 0c-.3-.3-.7.3-1 0-.4-.1 0 1-.3 1.2 0 .8-.4-.2-.5.3 1.3 1.2.3 6.4.6 8.5l-.2.6c.4.3.2.7.2 1.1l-.1 1.3.1.6v4.7c0 .4-1 .4-1.2.2h-1.4q-.2-.2 0-.5v-15.7q-.2-1.2 0-2.5c-.1-.2.3-.1.2-.3q-.5-.5-.2-1.3v-.6q.3-.3 0-.5-.2-.7 0-1.4c-.2-.9.4-.2 0-1-.2-.4.4-.3.1-.5s.2-.5 0-.8q-.3-.9-.1-1.9c-.3-.5 0-1 0-1.6-.3-.5 0-1.3 0-2l.1-.3c-.5-1.1 0-2.6-.2-3.8 0-.4-.2-1 .2-1.2v-.2q-.3-.2-.2-.6v-2.6q.4-.2 0-.5 0-.2.3-.3h8.7c4.5.2 9.3-.7 13.6 1.2 8.7 3.5 9.8 14.1 1.3 18.5-.4.3-1 .8-1.6.6 0 .3-.7.6-1 .3h-.2c.2.3-.5.7-.9.5l-.7.2c-.4.3-1.8 0-1.6.6q.8.8 1.2 1.8l1.3 1.6q-.5.4 0 .1.3.3.2.6c.4 0 .3.4.5.5q.7.8 1.2 1.8l5.8 8.6v.2-.2q.6 1.6 2.2 2c.4.2.5 1.5-.1 1.3m-30-22.8v6.7-.2.2Zm.2-4.5q-.2 0-.2.2zm0 6.8-.2.1zm0 7.8v-24.3zv-24.4q.3 0 .2-.2l-.1.2Zm0-14.7q.2 0 .2-.2zm.2-6.2v-.7.2Zm0 11.9q0 .1 0 0m.1-.9v.2zm0-12.3q0-.2 0 0m0 11.7v.1m0 20.7v.1m.4-17.3q-.3-.1-.2.2-.2 0-.2.2zm-.2-9.4-.2.1zm.2 11.6c0-.1-.4-.5-.5-.3.1.1.4.6.5.3m-.2-5.2-.2.2c.2 0 .7-.3.2-.2m0-13.5v7l.2-.1-.2.1Zm.2 10.6q0-.2-.2 0zm-.1 11.1q.2-.2 0 0m.1-2.3h-.2q.2.2.2 0m0-1.5-.1.1zm0-8.9-.1.1m-.1 6.7q0 .2.1 0zm0-11h.1q-.2-.1 0 0m0-7.4q.1 0 0-.1zm0 8q0 .1 0 0m0-4.3q0-.1-.1 0m0 25v.1m.1-23.8-.1.2zm0 22.4q-.2 0 0 0m0-28q-.1 0 0 0m0 15.3V705v6.3l.3 5.4-.2-.2.2.2Zm0-9.7q.5-.2.2-.2zm.5 8.2.2-.6h-.2q-.2.3-.4.2 0 .4.4.4m-.4-6.7v8.1l.2-.1-.2.1Zm.2 22q0 .2 0 0m0-26.6q-.2 0 0 0m0 19.9v.1zm0-12.6v.1q.2 0 0 0m0 4.5q0 .1 0 0m.2-6.5-.1-.2q-.3 0-.1.1zm0 13.4v-.4q-.4.2 0 .4m-.2 16v.1m0-31 .2.1.1.3q0-.3-.3-.4m.2 2.8.3 4.8h-.3q.2.4.3 0Zm0 11.8v.5-13.5q0 .3.2.2l-.2-.2Zm0-11.8.1-6q.1-.1 0-.2v.1Zm.2 1.3q-.2 0 0 0m-.1 11.9.1-.1zm0 8.8q0 .2.1 0zm0-8.2q.1.2 0 0m.1 6.8q-.1 0 0 .1m0-18.6q-.2 0 0 0m.3 7.7c0-.1-.3-.5-.4-.3 0 .1.5.6.4.3m-.4 7.8q.2 0 0 0m0-17q.2 0 0 0m.1 14.7v.2zm0-4.3q-.2.2 0 0m0 3.6v.2zm0-11.1v.1q0-.1 0 0m0-7.2q0-.3 0 0m0 10.3q0-.2 0 0m.1-1.8.2-.1q-.2 0-.2.2m.3-4.5q-.2.1 0 .1m0 11q-.2.2 0 0m0-4.4q-.2.2 0 0m-.1 1.5q.2 0 .4-.3c0-.2-.5.2-.4.3m0 12.5v.1m0-20v.1m.1-3.5q0-.2-.1 0zm-.1 19.2q.2-.2 0 0m.1 3v-.2zm0-17.9.1-.2zm.1 8.8-.2.1zm0 11.3h-.1m14.8-10.6a12 12 0 0 0 6.4-3l.7-.7a10 10 0 0 0 1.9-8.5l-1-2.5-1.3-1.7q-1.5-1.4-3.2-2.1c-.3-.2 0-.5-.4-.5-.3.5-1-.2-1.3-.1q-2.3-.4-4.6-.4h-1.4l-6 .1h-3.5c-1.4.5-.2 2.5-.8 3.6l.1.4c.2.7-.2 1.5 0 2.1v2.4c-.3.3.4.7-.2 1l-.2.2q.5 0 .4.3.2 1.3 0 2.4c-.6.1.1.5 0 .8-.2 2 .5 4.4-.2 6 4.2.3 8.6-.1 12.8.2a3 3 0 0 1 1.8 0m-14.7-.8v-11.2h.1q-.1 0 0 0Zm.2 3q0-.2-.2-.2zm-.2 8.6q0 .2.1 0m.1-30.1v-.2zm0 1.3q0 .1 0 0m.3 18.1q.2.2 0 0m3 0c-.1.1.2.1 0 0m1.3.6-.1-.2zm2.9-.1-.1-.1m2.7-.1q0-.4-.2-.3zm1.6 0v.1m1.1 1.2v.2zm.7-.3-.2-.1zm0 .5v-.5zq.3-.1 0-.4Zm.1-1.1v.1m0-.6q0-.2 0 0m.3.3q0 .2.1 0m.1 1.5q0 .2 0 0m.4 1.2q0-.2-.1 0zm0-.8h-.1zm0-2.5.3 3.6Zm.3.6v.1m0 1.5.2.1h-.2m0-.7q0-.2 0 0m.2.9.3 1q0-.2-.2 0h.2Zm.6 1.3q-.2 0 0 0m0-.7q0-.2 0 0m0-.7q-.1 0 0 0m.1-1.7-.2.2zm.2-.2-.2.2zm0 4.4q.2 0 0 0m1-.2q-.3 0-.4-.3-.5 0-.2.3.5.5.6 0m-.4.8-.2-.2zm0 .3v-.3zq.6-.1 0-.3Zm0-1.5q.3 0 .4.3c.5 0-.3-.9-.4-.3m.2 2.2v-.2q-.2 0 0 .2m.4-1.2q-.2.1 0 .1m0 1.5h-.1m0-6q-.1 0 0 .2zm.7 6q-.1-.1-.4.2.3.1.4-.2m-.2-25.5.2 18.7Zm.5 26.5q.1.2 0 0m.4-26.2q.2.2 0 0m.1 25.8q0 .1.1 0m0-7.1q0-.3-.1-.1zm.6 7.3q.1 0 0-.1zm.6-7.6.3 11.2h-.1Zm.9-1.4q.2 0 0 0m.4-1.1-.1-.1m.2-13.6.2-.1zm.2 30.2q.1 0 0 0m.3-17.3v-.2zm0 .6q.2.1 0 0m.5-.3h-.2zm.4.4h-.1m.3 18.9h-.1m.2-30.6V701l.2 2.5q-.2-.1-.2.1l.2-.1Zm0 .5q.2.2 0 0m.1 11.2q.1 0 0 0m.1 19.3q0-.2-.1 0zm.2-21.8v-.2q-.1 0 0 .2m0-10.4h.2q-.1-.2-.1 0m.5 32.9h-.1zm0-32.5v-.2q-.1.1 0 .2m0 3.6q0 .1 0 0m0-1.4v-.2zm0 28.9q0 .2 0 0m.3-30.8q.2.2 0-.1m0 8.8q0 .2 0 0m.1-7.3h-.1zm0 3q0-.2 0 0m.2 26.3q.2 0 0-.2zm0-30.5q0 .1.2 0zm0 4.5h.2q0-.1-.2 0m.1 2.2q.1-.1 0-.1m.1-5.2q-.1-.2 0 .1zm0 7.4q-.2 0 0 0m-.1-8v-.2zm.1 1.4q-.2.1 0 .1m.4 3.4q-.1-.3-.2-.1 0 .2.2 0m0 1.4q0-.2-.2 0zm-.2-.8q0 .1 0 0m.2-1.5h-.2q.1.2.2 0m-.2-.7q.2-.1 0 0m.3 3.6.2-5.4q0-.2-.2 0h.2Zm.3-1.7q0-.2-.2 0zm-.1-.8q-.2.1 0 0m.2 1.1.2.1q0-.2-.2 0m0-1.5.2.1q0-.1-.2 0m.1.8q0 .1.1 0Zm.3-2.6q.2-.2-.1 0m.1.8v-.1m.4.3q-.2 0 0 0m0 .8c.1-.2-.2-.1 0 0m0 1.4q-.1 0 0 .1zm.3-1.7q0-.3 0 0" class="cls-1"/><path d="M1144.6 737.7h-.8c-.8-.2-2.3.3-2.2-1.1l-.2-.3-.4-.9q-1-3-2.3-5.7c-.3-.6-1.2 0-1.7-.2h-.2c-.6.3-1.2-.3-1.8 0-.2.1-.3-.2-.5 0h-.5c-.3-.1-.6.2-.8 0h-.2q-.9.2-1.7 0-.6-.2-1.1 0c-1 .2-2.2-.2-3.3 0l-.5-.1-1 .1q-.4-.2-1 0h-1.3c-.2.1-.3-.2-.5 0h-1.4q-.5.1-.8-.3c0 .7-3.3 0-4 .3q-.2-.2-.5 0l-.9.1-.1.4-.5 1c.1.4-.4 1-.5 1.3l-1.3 3.4q-.2.2-.2.5l-.5 1.3c-.3.5-1-.1-1.5.1v-.1q.3 0 .3-.3l1.6-4c1.4-2.9 2.2-6.2 3.7-9 0-1 .8-1.6.9-2.4 0-.6.6-1 .6-1.5l.4-1.2 6.8-17.2 1.2-3c.4-.4.2-1.5 1-1.4h1.8q.5-.2.6.2c.2 1.3 1.2 2.5 1.2 3.8v-.1l.6 1.2c.2.2-.1.4.1.6l.3.5q.3.4-.2.3.4.3.4.8-.4.1 0 .3h.1v-.3q.3 0 0 .3.7 1 1.1 2c.1.8.7 1.2.4 2 .8.2.6 1.2 1 1.8l.3.7.4 1.2q1.7 4 3.3 8.3l5.3 13.6c.2 1 1.1 2 1 3m-31.6-4.5v-.1m1.4-2.1.1-2.5h.1Zm.7-2.2-.1.1zm.2-.2q-.1-.1-.1.1zm0-1.6.1-.1m.2-.2q.2 0 .2-.2zm21.3-2.5q-1.9-4.6-3.6-9.4c0-.7-.8-1.1-.8-1.8l-.8-2.4-.4-.8c.2-.5-.6-.7-.5-1.3l-.6-1.3c.2-.5-.5-.7-.3-1.2l-.1-.3q-.5-.4-.3-1l-.2-.1-1.2-3c-.3-.3-.6-2.5-1-2l-2.1 5.1-4 10-1 2.6c-.3.5-.3 1.3-.8 1.6q-.2 0 0 .1v.2l-.6 1.7q-.2 0-.2.4l-.4.8q0 .4-.3.4c-.2.1.2.3 0 .4-.3.6-.3 1.4-.8 1.9q-.2 1.3-1 2.5c.2.3-.4.7 0 .8h22.1c.8-.1-1.1-3.2-1.1-3.9m-20.8 4.3q-.1 0 0 0m.5-4.9q-.2 0 0 0m1.5 5.2q0 .2 0 0m2.4.1h-.2zm8.1-30.8h.1m.5 2.6v-.1zm.7 0v-.1zm.4 4q0 .2 0 0m0-1.4q.2-.2 0 0m.4 1.2v-.1m.3 4 .1-4.5Zm.2-3.9h-.2q.2.3.2 0m0 3.2c.1.6.6.1 0 0l.2-.4c-.2 0-.6.5-.2.4m0-1.7h.5q-.3-.5-.5 0h.5Zm0-1.5q.3 0 .3-.2-.2 0-.2.2m.2-.9q0-.2 0 0m.3 4.7-.3.4c.2 0 .8-.5.3-.4m0-3v.7q0 .5.5.5-.1-.3-.5-.5Zm0 0 .1 3.9v-.1q0 .1 0 0Zm.5 3.3v.2zm.2-.8.1 1.5.1-.1h-.1Zm0-1 .2.1q.1-.1-.1 0m.3 3.2-.2-.2q0 .2.2.2m-.1.7q-.2-.2 0 0m0-2.1v3.2l.1-1.7zv3.2l.2-3.7v-.2.2Zm.4-1.3q-.2 0 0 0m.1 2.4v2.5zh.3zm0 2.5.3-2.9.2-.4q-.7.1-.2.4Zm.1.6q0 .1.2 0zm.2-1.6v-1.9q.1.3.3.2l-.3-.2Zm.3-1q-.1 0 0 0m.4 1.1q-.2.1 0 0m-.1.8q.2-.1 0 0m0 2.2q.2 0 .4-.3c0-.2-.4.2-.4.3m.1-1.5q-.1.2 0 0m.4-.4q0-.1-.2 0zm-.1.8q0-.2 0 0m1.1 4.8v.1m.3 1.9q0-.2 0 0m0-3q0-.2 0 0m.8 4.3v.2l.1-.1m.8 1v-.2zm1.5.7q-.1 0 0 0m.4 4q0-.2-.1 0m1.1 1.8q-.2-.1 0 .1m.4 3.4h-.2zm0-2.1.2-.5Zm.3 1q0 .2 0 0m.4-.4q0 .2.1 0m.4 2.6q-.1 0 0 0m.2-1.8q.2 0 0 0m.1 5.2q0-.1-.1 0zm0-.7q0-.1 0 0m.4.2v.1m0-2.2q-.1 0 0 .2zm1.1 2.6-.1.1q.2 0 0 0" class="cls-1"/><path d="M1241 737c0 .3.2.7-.4.6h-2v-.1q-.2-.5 0-1c-.5-.4 0-1-.2-1.6q.2-.5 0-.9v-.2c.3-.7-.2-1.5 0-2.2v-.6q.2-.7 0-1.4.2-.4 0-1c.3-.5 0-1.1.1-1.7v-.8q-.2-.4 0-.7c-.3-1 0-1.8 0-2.7q-.2-1.7 0-3.6-.2-1.5 0-3-.2-1.8 0-3.6c-.3-.2.1-.4 0-.7-.3-.2.1-.4 0-.6v-1.8q0-.2.3-.5c-1-.3 0-1.5-.4-2.2v-.6q-.1-.4.1-.7c-.3-.6 0-1.4 0-2.2l-.1-1.1c.3-.6 0-1.3 0-2q.2-.5 0-.8.2-.4 0-.8v-.3c.4-.2-.3-.5 0-.7 1 .2 1.9-.2 2.6.2q.2 19.6 0 39.3m-2.2-28.1v-.1m.1 22.8q0-.1 0 0m0 4.4q0 .1 0 0m0-16.9v-.1Zm0-3v-.1m0-12q0 .1 0 0m0 17.1q.1 0 0 0m.1-13.9.3.2zq0 .2.2.2Zm.3-6.5q0-.2 0 0m0 23.8v-.1m0 4.4v-.1m0 6.7v-.1m0-26.7q0-.2 0 0m.4-4.1h-.1m-.2-3.7h.2zm.2 11.9-.1-.1q-.1.2.1 0m0-4.5h-.2q.2.1.2 0m-.1 2.2q0 .1.1 0zm0 22.2q.2 0 0 0m.3-29q-.3 0-.3.2zm-.3 8.3q.2 0 0 0m0 4.5q0-.1 0 0m0-16.3q-.2-.2 0 0m.4-.4-.1-.2zm0 2.9q-.1.1.1 0zm0 9.7q0-.2 0 0m0 17.1v-.1zm0-15v.2zm.1 17.9v-.1q-.2.2 0 0m-.1-31.9.2-.2q-.2 0-.2.2m.1 30.9v.2zm0 3.5.1-3.5V700l.1 34.6Zm.3-14.1v.2zm0 11.3v-.1m.2-24.4.1-6.4Zm.2 24q0-.2 0 0m0-7.5q0 .2 0 0m0 3" class="cls-1"/><path d="M1292 711.2v.3l-.2.6v.6q.3.3.2.5c0 .2-.5.2-.2.3q.2.2.1.4c-.3.3 0 .6 0 1 .3.3-.4.6 0 1q.2.6 0 1.3.2.7-.2 1.4v.1c.5.5 0 1 .2 1.6.2.3-.3.4-.2.6q.4.3 0 .6v.1c.4.4 0 .9.2 1.3q.2 1.3-.1 2.4.3 1.6 0 3.3c0 .4.4.8 0 1.1-.1.2.4.4.1.6-.3.6.2 1.3 0 1.9-.2 1.8.3 3.6 0 5.3-1.3.9-2.3-1.5-2.8-2.3-.5-.6-1.4-1.3-1.4-2 0-.3-.3-.1-.3-.3l-11.8-16.2c-.6-1-1.5-1.7-1.8-2.7l-2-2.5c-.1-.4-.7-.6-.6-1.2q-1-.8-1.6-2-2-2.4-3.7-5c-.2-.7-1.1-1.1-1.3-1.9-.5-.2 0-.4-.3-.6l-.4-.3-.3-.4q-.3-.5-.7-.8-.2 4.2 0 8.3v27.5c-.2.7.2 2-.3 2.5-1.4.2-.7-1-1-1.9q.2-.7 0-1.5l.1-.9c.2-.3-.1-.6 0-.9v-1.7q-.2-.3 0-.6v-2.7c.1-.2-.2-.5 0-.7v-2.8c-.2-1 .3-2-.1-2.8q.2-.6 0-1.2.2-.6 0-1.3v-1.4c.3-1 0-1.9 0-2.8q.2-.2 0-.5l.1-.5v-2.5c-.3-.6.2-1.2-.1-1.8q.2-.4 0-.7v-2.2l.1-2V700c0-.2-.3-.5 0-.7V698c.1-.9 1.2-.1 1.8-.4.3 0 1.8-.2 1.5.4 0 .2.3 0 .4.2.5 1 1.5 1.7 1.9 2.7q1.2 1.3 1.8 2.7 3 3.6 5.6 7.7 1 1 1.8 2.5 3.2 4 6 8.2l2 2.6c-.3.1 0 .2 0 0q.8 1.3 1.8 2.5.3.4 0 .7h.5l1.3 1.9c1 .9 1.5 2.4 2.5 3.3.3-2.5-.2-5.3.2-7.7q-.2-3.4 0-6.7-.2-2.4 0-4.8c-.2-.3.3-.2.2-.4-.5-.8-.3-3.5-.1-4.5-.3-3.6 0-7.3-.1-11q0-.4.6-.3.6-.3.5.4c.3.7-.1 1.5 0 2.2v.5c-.3.3.2.5 0 .8l.1 1.5c.1.4-.3.7-.2 1q.4.8 0 1.4.2.7.2 1.6c-.3 1.3.1 2.8 0 4.3Zm-29.9-12.5v-.1m.8 0h-.2zm1-.3q.2-.2 0 0m.4 1q.1 0 0 0m.4 1.9v.1zm0-2.2v-.1zm.2 1.6-.2-.2q-.1.2.2.2m-.2-2.4v.1h.1-.1m.4 2.6-.2-.2q0 .2.2.2m.3.3v.1q.1 0 0 0m.3-.3q0-.1 0 0m.4 1.1v.1q.2-.1 0-.1m0 .7q.1 0 0 0m.5-1q0-.1-.1 0zm.4 1q-.2 0 0 .1zm-.1-.7q0 .1 0 0m.4.3v.1q.2 0 0 0m.5 1.1q-.1-.1-.2 0 .1.3.2 0m-.1-.7q-.2 0 0 0m.3 1.1q0 .2 0 0m.5.4h-.2q0 .2.2 0m.3.4q0 .2 0 0m1 1.1q0-.2-.1 0m.1.8q-.2 0 0 0m.4 1.7q-.1 0 0 .1m0-.7q-.1 0 0 .1zm.1-.5.2.2q0-.2-.2-.2l.2.2Zm.2 1.6q.1 0 0 0m.5-1.8q-.3 0 0 .1zm.1 3.5.5-1.3h.1q0-.1-.1 0Zm1-2.4h-.2zm.4 2.4.2-.2zq.3 0 .2-.2Zm.2-1v.2zm.4 1.9v.1zm0 .7q0 .1 0 0m0-2q.2-.2 0 0m.3 1.8q.1 0 0-.2zm.2 1.4h-.2zm.2-2.7v.1q.1 0 0 0m1.2 4.1q-.3.1-.4.4zm0-2.1q-.1 0 0 0m.2.9q0 .3-.3.4c0 .4.8-.4.3-.4m0 0 .2.9q-.2 0 0 0Zm.5 1.2q0 .2 0 0m0-.7q0 .1 0 0m0 2.3v-.1m.7-.9v.2q.1-.1 0-.2m0-1.5.5 2.8q0-.2-.1-.1 0 .1 0 0Zm1 3.6-.7-.2q0 .3.3.4t.3-.1m-.3-2q.2 0 0 0m0 1.5.2-.2zm.3.5v-.7q.3 0 .4-.4-.3 0-.4.4Zm.1.6q.2.2 0 0m.3.6v-2.3zv-1.7h.1q.1-.2 0 0Zm1.3.8q-.2.1 0 0m1.1 1.2q-.2 0 0 0m1.5 1.4q-.1 0 0 0m1 1.1q.1 0 0 0m1.6 3.8q0-.2-.1 0zm0-.7v.2zm.3.3-.3-.1zm.3-.4q.1 0 0 0m0 .8h.1q-.2-.2 0 0m.6 2.1.2-.7v.1-.1Zm1 .9c0-.3-.4.2-.4.3.1.2.3-.2.4-.3m-.3-2 .2.5v-.1Zm.7 3.1q-.2.1 0 0m0-.8h-.2zm.3.3q0 .1 0 0m.3.4q.2 0 0 0m.4 1.1v.2q.2-.1 0-.2m0-.7q.1 0 0-.1m.4.3q0 .1 0 0m.4-.3q-.2 0 0 0m1.5 2.2c-.1 0-.3-.4-.4-.3 0 .1.3.5.4.3m.4 1.9q-.3.1 0 0m.2-16.8v6.7Zm.1-10.9q0-.2 0 0m0 20q-.2 0 0 0m0-29.6q0-.2 0 0m0 37.7.1.2zm0-11.2.1-.1v.1m.1-25 .2 36.6-.1-.2.1.2Zm0 24.8.2-8.3Zm.2-6q0-.2 0 0m0 11.9v-.1m.1-18.5v-.1m.2-2.5q-.2 0-.2.2zm-.2 7.4.2-7.4v-.2.2Zm.3-1.7h.2zm0-16.9h.2zm.2 3.5v15.7" class="cls-1"/><path d="M1338 699.2q-6.1-.4-12.4-.6l-.8.2q-.2.9 0 2v32l-.1 4.6c-.4.5-1.5 0-2 .2-1 0-.4-1.5-.7-2 .3-.4 0-.8 0-1.3.2-.6 0-1.2.2-1.9l-.1-9.6V699c0-.7-.8-.3-1.3-.4h-.8c-.2.2-.4-.1-.6 0h-1.2c-2.5.5-5 .3-7.5.4q-1 .2-2 0-.3.2-.2 0c0-.5-.2-1.3.2-1.5h29.2c.4-.2.5.2.5.4 0 .4.2 1.3-.4 1.3m-15.4 21.7q-.2.1 0 0m-.1-2.9q0-.3-.1 0m0-5.2h.1q-.1-.2-.1 0m.2 18.3-.2.1q.1.1.2-.2m-.2-14.7q.3 0 .2-.2-.2 0-.2.2m.2-1.2v4.1l.1 11.6-.1.1.1-.1Zm0 0v.2q.5-.1 0-.2m0 1 .2 2.8q-.2 0-.2.2l.2-.2Zm.2 2q0 .2 0 0m0 3.1v-.1m0 8q0 .2 0 0m.2-17.9-.2.3q.3 0 .2-.3m0 14.4-.2-.1zm0-17.3v17.3q0 .2.2.2l-.1-.2Zm0 0q.2 0 .2-.3zm0-2.4h.1m.2 7.3q-.2 0 0 0m-.1-6.6c0 .2.5-.2.5-.4-.1-.2-.4.3-.5.3m0 20.7h.2zm.2-7.4h-.2q0 .2.2 0m0-4.5q-.3 0-.2.1zm0 7.5h-.2zm-.1 5.3v-.1m0 .7v-.2q-.1 0 0 .2m0-7.6q-.1 0 0 .2zm.3-3.1q.2-.2-.2-.3 0 .3-.2.4.2.4.4-.1m-.3 7v-.2.1m.4-10.1c-.1-.1-.4-.6-.4-.3 0 .1.3.6.4.3m-.3 2.8v2.6l.3 4.2h-.2q.1.2.2 0Zm.3-2.1q0 .1 0 0m0-8.8q-.1-.2 0 0m0-3q-.2 0 0 0m0-4.4q-.1 0 0 0m0 19.2q0-.2 0 0m0-6.7q0 .1 0 0m0 12v-.1m0-6.9v.2zm.1-4.4.3-.3q-.2 0-.2.2l.1-.2Zm.3.4h-.2q0 .1.2 0m-.2-1.4c0 .1.3-.1 0-.1m.1 10.4q-.2 0 0 0m0-2.4v.2zm0-3.5q0-.2 0 0m0-5.3q0 .1 0 0m0-1.4q0-.1 0 0m0 7.3q.1 0 0 0m.3-12q-.2 0-.2.2zm7.2-7.2q-.2 0 0 0m6.6.1" class="cls-1"/><path d="M1381 737.7q-.4-.2-.7 0h-2.4c-1.2-.3-2.5 0-3.6 0l-4.7-.1c-.8.1-1.8-.2-2.6.1l-.4-.1c-.6.3-1.2-.2-1.8 0l-2.9.1q-.4-.1-.8 0-.8-.2-1.4 0h-.7l-.6-.1h-.6q-.8.2-1.4 0-.5.2-.9 0h-.5v-5q-.2-.6 0-1.3v-.7c-.2-2.1.1-4.4 0-6.4v-2.3q-.2-.6 0-1l.1-.1c-.4-.5 0-1.1-.1-1.7-.2-.5.2-.9 0-1.3q-.1-.6.1-1.3v-.2c-.4-.2 0-.5 0-.9q-.4-.5 0-1l-.2-.5.1-.5v-2c.1-.3-.2-.5 0-.7v-1c-.1-.3.2-.5 0-.8q-.2-.7 0-1.5v-.4c.1-.5-.3-1 0-1.5.2-.3-.3-.7.3-.7q-.7-1 0-1.9c-.6 0-.4-.7-.2-1s-.3-.5-.1-.8c.3-.3-.3-.6 0-.9q.1 0 0-.1c-.3-.3 0-.7 0-1v-.8c0-.4-.2-.9.3-.8h9c.4-.2.8.2 1.1 0h3c.2.1 1-.2 1 .3q.3-.2.7-.2.4-.2 1 0c1-.3 2.1 0 3 0 .3-.3.5.2.8 0 .2-.3.5.2.7 0 .3-.3.4.2.7 0h1.4l3.3-.1.2.2c.4 2-.2 1.5-1.8 1.5-.3-.3-.7.2-1-.2l-.4.2-.5-.2q-4 0-7.7-.3c-.5.3-1.1-.2-1.7 0q-.2.1-.3-.2c-.6.5-1.5.1-2.2.1l-4 .1h-3.5q-.5-.2-.6.4l-.2.4c.6.8.2 1.8.2 2.7l.1 4c-.3.8.2 1.9 0 2.7q-.6 0-.1.3.3 1.8 0 3.6c.3 5-.8 3.2 4.7 3.6h10.8c.7-.5 1.4 1.3.4 1.1h-13.1c-3.3-.1-2.7-.3-2.7 2.7v15.9c-.1.8 1.7.2 2.2.3l2.6.1q7.1-.1 14.2-.5h1.4q.3.2.6 0c.7.3 2.7-.8 2.7.5 0 .3.2 1.4-.4 1.2Zm-25.7-34.7.2-.2q-.1-.2-.2.1m0 1.8q0 .3.3.3 0-.3-.3-.3m.3 7.7v-.4q-.4.2 0 .4m-.1-12q-.2.2 0 0m0 31.1q0 .1 0 0m.1-21.3-.1-.2zm0 .6q-.2 0 0 0m0 14.8q-.1-.2-.1 0m-.1-17 .1.1zm0-7.4q0-.1 0 0m.1 3.1v8.6-7.5q.5-.3 0-.4v.4Zm0 6 .5 2.1h-.5v.4q.3 0 .4-.4Zm0-6v7.7l.4-3.9h-.2q0 .3.2 0Zm.2 9.8q.2 0 0 0m0 14v.1m0 5.3q0 .2 0 0m0-31.1q0-.2 0 0m.3 5.3-.3-.2q0 .3.3.2m-.2 22.7v.1m.4-24.6c-.2-.3-.8.3-.2.4q.2-.2.2-.5m-.3-2.9-.2.2q.3 0 .2-.2m0 7.1.2-2.1-.1-.2.1.2Zm0 2.5v-6.2l.3 3.9q0-.2-.2-.2 0 .2.2.2Zm.3-9.8q-.2 0-.2.2zm0 1.5h-.2zm-.1-5q.2-.1 0-.2zm.5 9.8c-.3 0-.9.3-.4.6 0-.3.5-.4.4-.6m-.5-5.6v.2q.2-.1 0-.2m0 9.8.1-.1q-.2 0 0 .1m0 15.5q0 .2 0 0m0-6.7q0-.2 0 0m0-8.1q-.2-.1 0 0m0-13.3v-.1m0 22.2v-.1m.1-4.5q0-.1 0 0m0 16.3v-.1m.2-27.2-.2-.2q0 .3.2.2c0 .5.4 0 0 0m-.2 4.1v-1.9zl.2-9.4v27-.1Zm.3-8.4v-.1zm0 3.8v-.1m0-6.1q.2 0 0-.1m0 .9v-.1m0 2.8q.1.2 0 0m.2-.9q-.2 0-.2.2zm-.2 22.5v-.1Zm0-1.6q0 .2 0 0m.1-19.2q-.2 0 0 0m.1 31h-.2zm.1-.2v.2zm0-32.5v-5.3Zm0 28.8q.2 0 0 0m0-20.8q0-.1 0 0m.2 2.8-.2.2q.2 0 .2-.2m-.2-2q.2 0 0-.1m0 7.4q.3 0 0-.1m.1-13.5v.2zm.4-1.8-.2-.4c.3-.5-.5 0-.2.3.1.1.4.5.4.1m-.4 27.2v-.1m0-28.8.2.2q0-.2-.2-.2m.3 11.4-.2.1zm0-.9q.2.2 0 0m.1 13.4q-.2-.2 0 0m.1-24.6V712l.2-14.5Zm11.8-4.4.6 19.4Zm2.4.5q0 .2.2.1zm2.4-.2.3 38.3v.1Zm2.8.3.1-.1m.4.4q.2 0 .1-.2-.2.1 0 .2m.4-.4v-.1m.4.3q-.1 0 0 0m1.4.1v-.1m.7-1v.2h.1zm.4.6" class="cls-1"/><path d="M1428.7 737.7c-3.3.3-4.2-1.8-5.9-4.2l-7.8-11.8q-.3-.2-.3-.5l-.9-1.2q-.4-.4-.5-.8c0-.3-.5 0-.7 0-.4.1-.7-.3-1 0l-3-.1q-.9.2-1.8 0c-.6-.1-.4.4-1.1-.3-.2.9-1.3 0-1.8.4h-.2q0-.3-.3-.1-.5.2-1 0c-.3-.3-.7.3-1 0-.4-.1 0 1-.3 1.2 0 .8-.3-.2-.5.3 1.3 1.2.3 6.4.6 8.5q0 .4-.2.6c.4.3.2.7.2 1.1l-.1 1.3q.2.2.1.6v4.7c.1.4-1 .4-1.2.2h-1.3q-.2-.2 0-.5-.3-8 0-15.7-.3-1.2-.1-2.5c0-.2.4-.1.2-.3q-.4-.5-.2-1.3v-.6q.3-.3 0-.5v-1.4c-.2-.9.4-.2 0-1-.2-.4.4-.3.1-.5s.3-.5 0-.8q-.3-.9 0-1.9c-.4-.5-.1-1 0-1.6-.4-.5 0-1.3-.1-2-.1-.1.3-.2.1-.3-.4-1.1 0-2.6-.2-3.8.1-.4-.2-1 .2-1.2q.1-.1 0-.2-.2-.2-.2-.6l.1-2.6q.2-.2 0-.5-.1-.2.2-.3h8.8c4.5.2 9.3-.7 13.5 1.2 8.7 3.5 9.8 14.1 1.3 18.5-.4.3-1 .8-1.6.6 0 .3-.7.6-1 .3h-.2c.2.3-.5.7-.9.5l-.7.2c-.4.3-1.8 0-1.5.6q.7.8 1.1 1.8l1.3 1.6c-.4.2-.1.4 0 .1q.3.3.2.6c.4 0 .3.4.5.5q.8.8 1.2 1.8l5.8 8.6v.2-.2q.7 1.6 2.2 2c.5.2.5 1.5-.1 1.3m-30-22.8.1 6.7-.1-.2.1.2Zm.2-4.5q-.2 0-.2.2.2 0 .2-.2m0 6.8-.2.1zm0 7.8v-24.3zv-24.4q.3 0 .2-.2l-.1.2Zm0-14.7q.2 0 .2-.2zm.2-6.2v-.7.2Zm0 11.9q.2.1 0 0m.1-.9v.2zm0-12.3q0-.2 0 0m0 11.7v.1m0 20.7v.1m.4-17.3q-.2-.1-.2.2-.2 0-.2.2zm-.2-9.4-.2.1zm.2 11.6c0-.1-.3-.5-.4-.3 0 .1.3.6.4.3m-.1-5.2-.3.2c.2 0 .7-.3.2-.2m-.1-13.5v7l.2-.1-.2.1Zm.2 10.6q0-.2-.2 0zm-.1 9.6q.1 0 0-.1zm0 1.5q.1-.2 0 0m.1-2.3h-.2q.2.2.2 0m0-11.1q-.3 0 0 0m0 9.6-.1.1zm0-8.9-.1.1m-.1 6.7q0 .2.1 0zm0-11h.1q-.2-.1 0 0m0-7.4q.1 0 0-.1zm0 8q0 .1 0 0m0 7.5q.1 0 0 0m.1 9.6q-.2 0 0 0m-.1-21.4h.1q0-.1-.1 0m.1 25q-.1 0 0 .1m.1-23.8-.2.2zm-.1 9.7V705v6.3l.3 5.4-.2-.2.2.2Zm0-9.7q.5-.2.2-.2zm.5 8.2.2-.6h-.2q-.2.3-.4.2 0 .4.4.4m-.4-6.7v8.1l.2-.1-.2.1Zm.2 22q0 .2 0 0m0-26.6q-.2 0 0 0m0 19.9v.1zm0-12.6v.1q.2 0 0 0m0 4.5q0 .1 0 0m.2-6.5-.1-.2q-.2 0 0 .1zm0 13.4v-.4q-.5.2 0 .4m-.2 16v.1q.1 0 0 0m0-31 .2.1q0 .2.2.3-.1-.3-.4-.4m.2 2.8.3 4.8h-.3q.1.4.3 0Zm0 11.8v.5-13.5q0 .3.2.2l-.2-.2Zm0-11.8.1-6q.2-.1 0-.2v.1Zm.2 1.3q-.1 0 0 0m-.1 11.9.2-.1zm0 8.8q0 .2.2 0zm0-29.6h.1zm0 21.4c0 .2.3 0 0 0m.1 6.8q-.1 0 0 .1m0-18.6q-.2 0 0 0m.3 7.7c0-.1-.3-.5-.4-.3 0 .1.5.6.4.3m-.4 7.8q.2 0 0 0m.1-2.3v.2zm0-4.3q-.1.2 0 0m0 3.6v.2zm0-11.1v.1q0-.1 0 0m0-7.2q0-.3 0 0m0 10.3q0-.2 0 0m.1-1.8.2-.1zm.3-4.5q-.2.1 0 .1m0 11q-.2.2 0 0m0-4.4q-.2.2 0 0m-.1 1.5q.3 0 .5-.3c-.1-.2-.5.2-.5.3m0 12.5v.1m0-20v.1m.2-3.5q-.1-.2-.2 0zm-.2 19.2q-.2-.2 0 0m.1 3v-.2zm0-17.9.1-.2zm.1 8.8-.2.1zm14.8.7a12 12 0 0 0 6.4-3l.7-.7a10 10 0 0 0 1.9-8.5l-1-2.5-1.3-1.7q-1.4-1.4-3.2-2.1c-.3-.2 0-.5-.4-.5-.3.5-1-.2-1.3-.1q-2.2-.4-4.6-.4h-1.4l-6 .1h-3.5c-1.4.5-.2 2.5-.8 3.6l.2.4c0 .7-.3 1.5 0 2.1v2.4c-.4.3.3.7-.2 1q-.3 0-.2.2.4 0 .3.3v2.4c-.6.1.2.5 0 .8-.2 2 .5 4.4-.2 6 4.2.3 8.6-.1 12.8.2a3 3 0 0 1 1.8 0m-14.7-.8v-11.2h.1q-.2 0 0 0Zm.2 3q0-.2-.2-.2zm-.1 8.6q0 .2 0 0m0-30.1v-.2q-.2 0 0 .2m0 1.3q0 .1 0 0m.4 18.1q0 .2 0 0m2.9 0c-.1.1.2.1 0 0m1.4.6q0-.2-.2-.2zm5.5-.2q0-.4-.2-.3zm1.6 0v.1q.1 0 0 0m1.2 1.2-.1.2zm.6-.3-.2-.1zm0 .5v-.5zq.4-.1 0-.4Zm.1-1.1v.1m0-.6q0-.2 0 0m.4.3q0 .2 0 0m0 1.5q0 .2 0 0m.4 1.2q0-.2-.1 0zm0-3.3.3 3.6Zm.3.6v.1m0 1.5.2.1h-.2m0-.7q0-.2-.1 0m.2.9.3 1q0-.2-.2 0h.2Zm.6.6q0-.2 0 0m.2-2.4q-.3 0-.2.2zm.1-.2-.1.2zm0 4.4q.2 0 0 0m1-.2q-.4 0-.4-.3-.4 0-.1.3.3.5.5 0m-.6-.9q.1 0 0-.1zm.2 1.7-.2-.2q0 .2.2.2m0 .3v-.3zq.6-.1 0-.3Zm0-1.5q.3 0 .4.3c.5 0-.3-.9-.4-.3m.2 2.2v-.2q-.2 0 0 .2m.4-1.2q-.2.1 0 .1m0-4.5q-.2 0 0 .2zm.3 4.8h.1m.5 1.2q-.3-.1-.5.2.3.1.5-.2m-.3-25.5.2 18.7Zm.5 26.5q.1.2 0 0m.4-26.2q.2.2 0 0m.1 25.8q0 .1 0 0m.6.2q.1 0 0-.1zm.6-7.6.3 11.2h-.1Zm.9-1.4q.1 0 0 0m.6-14.7.2-.1zm.2 30.2q.1 0 0 0m.4-17.3-.2-.2q0 .2.2.2m0 .6q.2.1 0 0m1.1-14.3h.2zm.2 2.7V701l.2 2.5q-.3-.1-.2.1l.2-.1Zm.1.5q0 .2 0 0m0 11.2q.1 0 0 0m.1 19.3q0-.2-.1 0zm-.1-21.6.1.1m.4-.2v-.2zm0-10.4q-.1-.2-.1 0m0 11.7v.1q.1 0 0 0m.4-11.3q.1-.1 0-.2zm0 3.6q.2.1 0 0m0-1.4v-.2zm0 28.9q0 .2 0 0m0 .6v.1m.3-31.4q.1.2 0-.1m0 8.8q0 .2 0 0m.1-4.3q0-.2 0 0m.2 26.3q.2 0 0-.2zm0-30.5q0 .1.2 0zm0 4.5h.2q0-.1-.2 0m.1 2.2v.1q.1-.1 0-.1m.1-5.2q-.2-.2 0 .1zm0 7.4q-.2 0 0 0m-.1-3v.1m0-5v-.2zm.5 4.8q0-.3-.2-.1 0 .2.2 0m0 1.4q0-.2-.2 0zm-.2-.8q.2.1 0 0m.2-1.5h-.2q.2.2.2 0m-.2-.7q.1-.1 0 0m0 4.4q.1 0 0 0m.3-.8.2-5.4q0-.2-.1 0h.1Zm.3-1.7q0-.2-.2 0zm0-.8q-.4.1 0 0m.2 1.1q0 .2.1.1 0-.2-.2 0m0-1.5.1.1q0-.1-.1 0m0 .8q0 .1.1 0Zm0-3.8.1.1m.3 1.2.1.1q.2-.2 0 0m.2 3.7h-.2zm0-4.4q-.1 0 0 0m.3 1.8q-.2 0 0 0m0 .8c.2-.2-.2-.1 0 0m.3-.3q0-.3 0 0" class="cls-1"/><path d="M1450 737q.1.6-.5.6h-2v-.1q-.2-.5 0-1c-.5-.4 0-1-.2-1.6v-1.1c.3-.7-.2-1.5 0-2.2q.2-.3 0-.6.2-.7 0-1.4v-1c.3-.5 0-1.1.1-1.7v-.8q-.2-.4 0-.7c-.3-1 0-1.8 0-2.7v-3.6q-.2-1.5 0-3-.2-1.8 0-3.6c-.3-.2.1-.4 0-.7-.3-.2.1-.4 0-.6v-1.8q0-.2.3-.5c-1-.3 0-1.5-.4-2.2v-.6q-.1-.4.1-.7c-.3-.6.1-1.4 0-2.2l-.1-1.1c.3-.6 0-1.3.1-2v-.8c-.2-.3.1-.5-.1-.8v-.3c.4-.2-.3-.5.1-.7.8.2 1.8-.2 2.5.2q.2 19.6 0 39.3Zm-2.3-28.1v-.1m.1 22.8q0-.1 0 0m0 4.4q0 .1 0 0m0-16.9v-.1Zm.1-3q0-.2-.1-.1h.1m0-12h-.1q0 .1 0 0m-.1 23.7q.1 0 0 0m0-6.6q.1 0 0 0m.2-13.9.2.2zq0 .2.2.2Zm.2-6.5q0-.2 0 0m0 23.8v-.1m0 4.4v-.1m0 6.7v-.1m0-26.7q0-.2 0 0m.1 25.2q-.2-.2 0 0m.3-21.1-.1-.1q0 .2.1 0m0-4.5q0 .1.1 0m0 21.5q-.2 0 0 0m-.1-19.3q0 .1.1 0zm.3-6.8q-.3 0-.3.2zm-.2 12.8q-.1-.1 0 0m0-16.3q-.1-.2 0 0m.3-.4v-.2q-.2.3 0 .2m0 2.9q0 .1.1 0zm0 26.8v-.1zm.1-17.1q0-.2-.1 0zm0 20v-.1q-.2.2 0 0m-.1-31.9.2-.2zm.2 30.9-.2.2zm0 3.5V700l.2 34.6zm.2-14.1v.2zm0 11.3v-.1m.3-24.4v-6.4Zm.2 23.9h-.2q0 .2.1 0m0-7.4h-.2q.1.2.2 0m-.1 3" class="cls-1"/><path d="M1509.8 718.7c.5.2 0 .6 0 .9-.3 5-2.7 10-6.6 13.2a17 17 0 0 1-4.8 3.4l-.1-.1a21 21 0 0 1-25.6-6.2q-1.2-1.6-2-3.4c-.3-.9-1-1.6-1-2.6-.7-1.4-.7-3-1-4.5v-2.8l.1-2.2q.1-1.2.8-2.3c-.6-.2 1.4-4.7 2-4.9.1-1 1.1-1.7 1.6-2.6q1.4-1.6 2.9-3c.1-.2.3.2.4-.1q.1-.3.5-.4c.4-.3 1-1.2 1.6-1l.3-.2q.4-.5.8-.6c.4-.1.4.3.7-.2 4.2-2.5 10-2.8 14.6-1.3.9 0 1.6.6 2.3.8.5-.1.8.5 1.3.6l.1.1q.6.1 1 .5.3.4.7.4c1 .8 2.6 1.4 3 2.6.4-.2.4.2.6.3a17 17 0 0 1 4.4 6.7q.5.8.7 1.8.5 1.6.7 3.3v.5c-.1.3.2.7 0 1v.1q.3.7.1 1.4c.2.6-.4.7-.2.8Zm-41-2.1.3 2h-.1q0 .2.1 0Zm.3.5q-.1 0 0 0m.1 1v-.2zm0 0 .3 1.7-.1-.1Zm.2-3.5v-.1m.1 2.2q0-.1-.1 0zm-.1-3.6v-.1m0 .6q0 .2 0 0m.3-1.7q.2 0 .2-.3-.2 0-.2.3m.1 6.4q-.1.1 0 .2.2 0 0-.2m0 1v-.2zm0 3.5q.2.1 0 0m0-5.8q0-.2-.1 0zm0 .6q0 .2 0 0m0 2.4v-.1q0 .1 0 0m.1-5v-.5q-.5.2 0 .4m-.2-1.7q.3 0 0-.2zm.2 2.7-.2.2q.3 0 .2-.2m-.1-3.4q0-.2 0 0m0 8v.1q0-.2 0 0m0-5.2q-.1.1 0 0m.1 6.1v-7 1.5-4.4 3.4q.1.3.5.2v-.2h-.4Zm0 0 .3-2.6v-.1h-.1v.1Zm.1-8q.1.3.2.1h-.2m.6 10.1c0-.1-.6-.7-.5-.2q.2.2.5.2m-.5-4q0-.1-.1 0m.1-1.5v-.1q-.1.1 0 .1m.2 2.4c-.2-.5-.6-.2 0 0 0 .5.5 0 0 0m-.1-7.7h-.2q.1.2.2 0m-.1 8.3q-.2-.2 0 0m0-4.4v-.2q-.1.1 0 .1m0 5.9v-.1m0-10.4.2-.1zm.2 2.7q.4.1 0 .3c-.1 1 1.5-.8 1.3-1q-.3.1-.5.4c-.3.4-.7-.3-.8.3m0-2.9v9.5q.4 0 0-.2Zm.2 7.2q-.1-.3-.2 0 .1.1.2 0m-.1.8q.2 0 0-.2zm.1-6h-.1zm0 8.8q-.2 0 0 .2zm0-12.4v-.2q-.2 0 0 .2m.1.5c-.4 0-.1.4.1.2l.1.3zm-.1-1.3h-.1m.3 3.2-.2.2q-.5.3.1.3v-.2q.3 0 .1-.3m-.3-.3h-.1zm0 6v-.1zm0-2.3c0 .1.3.7.4.3-.1 0-.3-.4-.5-.3m0 1.4v.2zm0-.5.3-6.5-.2.3q.3 0 .2-.3Zm0 0 .1 1.5.2.3q.1-.2-.2-.3Zm.5 7-.1-.1c-.3-.2-.4.4.1.1m-.3-12q0 .2.1 0zm0 8.3q.3 0 0-.3zm0-10.5q.1.1.2 0-.1-.2-.2 0m0 9.7q.1-.4-.1 0m0 3.7q0-.1-.1 0m0-10 .2 1h-.2q.1.3.2 0Zm.2 7.7h-.2q.1.1.2 0m0 1.6q0 .2 0 0m0-6.7-.1-.1q0 .1 0 0m0 2q-.3.1-.1.2.2 0 0-.1m0-8.8q-.2 0 0 0m0 15.6q-.1.2.1 0m0-3q-.2.1 0 .1m.3 2.7-.2-.3q0 .3.2.3m-.1-11.2c.2.2.4-.1.7 0 .7.1-.6-.5-.4-.8q.3-.2.3-.5-.3 0-.4.4c-.6.4.3.2-.2 1m0-1.4q.2.1 0-.1v.2m.1 7.3q-.2 0 0 .2zm0-9.6q0 .2.1 0m-.1 1.5q0 .2.2 0zm0 8.9q.2 0 0 0m0 3.6v.1q.2 0 0 0m.1-5q0-.2 0 0m0-4.5q.1-.2 0 0m0 11q-.1.2 0 0m0-14.8q-.2 0 0 .2zm.3 5.4c-.3-.5-.6 0 0 0-.1.5.4.2 0 0m-.3 6.5q0 .1 0 0m0-4.2.2.2q0-.3-.2-.2m.3 1q0-.2-.1 0zm0-7.4q.2 0 0-.2zm0-.8q.1-.2 0 0m.1 11q-.2.3 0 0m-.1-14q.2.1 0 0m0 15.5v.1zm0-6.7v.1zm0-6.5q-.1-.3-.1 0m0 9.7q-.2 0 0 0m.1 7.2q-.1.1 0 0m34.8-12.5q-.3-.4-.2-1c0-.2-.5-.5-.1-.9q-.4-.3-.4-.7l-.2-1q.2-.2 0-.3-.4-.6-.6-1.3c-.1-.6-.7-1.1-.6-1.7-.8-.6-1-1.7-1.7-2.4v-.2c-.8-.6-1.1-1.5-1.8-2l-.7-.8q-.4 0-.7-.4-1.1-1-2.4-1.8l-1-.4q-.2 0-.3-.3t-.2 0l-.7-.2-1.2-.5q-4.6-1.2-9 .1-2.4.9-4.6 2.2-.3.4-.8.6a21 21 0 0 0-6 8.6l-.8 2.7q-.3.1 0 .4v.2l-.2.7q0 .7-.2 1.3-.2.2-.1.3.3.7-.2 1.5c-.6.4.6.6.2 1.2.1 3.7 1.4 7.6 3.5 10.8 4.8 7 12 9.3 19.9 6.7 8.2-4.2 12-12.3 11-21.4m-34.7-.6v3.4Zm0 3.3V712l.2 8.9Zm.1-6.1q0 .2.2 0zm.1 11v.2zm.3-9.8c-.7.3-.2.6 0 0m-.3 11.5q0-.2 0 0m0-14q.1-.2 0-.2zm0 .6q-.2-.2 0 0m.5.3h-.2q0 .1.2 0m0 14h-.1q-.2.4 0 0m-.2-1.3q0-.2 0 0m.3-14.6v.3l.2-.2zc0-.5-.5-.2 0 0m0 .3q-.2 0-.2.2zm0 18.5q-.2 0-.2.2zm0-16.3v15.1zl.2 16.2-.2.2.2-.2Zm0 15.1.2 2.5q-.2 0 0 0Zm.2-19q0 .1 0 0m0 22.2v.1m0-19.2q0-.2 0 0m.4 15.9q0 .1.1 0m-.1 1.4v.1m0-19.9.2-.2q-.2 0-.2.2m.2 22-.2.2zm-.2-2.7.2.2zm0-17h.2zm.4 17.4q0-.2-.2-.2zm-.2-19.9.2-.1zm0 22.2.2-.1zm.2.6-.2.1zm0-2.2q0-.1 0 0m.3-1.1q-.2-.2 0 0m.1 3q-.2-.2 0 0m0-23q-.2 0 0 0m0-.8q0-.1 0 0m.4-1.1.2-.2q-.2 0-.2.2m.2-.2v1.3q0 .2.1 0Zm.2 25.3h.3zh.2Zm.6-26.9q-.2-.2 0 0m.4.3q.2 0 0 0m.4 28.5v.1m1-30.7h.2zm.8.7q.2.1.4-.2c0-.4-.4 0-.4.2m1.6-1.5q-.2.1 0 0m1-1.8h-.2zm.2 1 .2-.5v-.1Zm17.1-.4v.5h.2-.1Zm1.6.6v-.2zm1.6.7h-.1m.5 31.6.1 1Zm0-30.2q.1.1.2 0zm.1.7v.1m.4 30v.1m2.2-28.8q.1 0 0 0m.1 3.1v.4q.6-.2 0-.4m.3 23.1v.1m0-2.2v.1m.5-21.8h-.2.1m-.2-.7q.2 0 .1-.1zm.5 21.8q-.2.1 0 0m0-20.7q-.2 0 0 0m0 2.2q-.1 0 0 0m0-.8v.1m.1 18.8q0-.2-.2-.2zm0 0 .2-19.8Zm.3 1v-.2q-.2.1 0 .1m0-18.6h-.1m0-1.5q-.2 0 0 0m.3 20.3v.1zm.3-18.8q0-.2-.1 0m0 3.8q.1-.1 0-.2zm.1 12.4q0 .2 0 0m.2-12.1q.2-.1 0 0m0-1.5q.2 0 0-.1zm.2 12.6q-.2 0 0 0m0-.8h-.1zm0-12.6q-.2.2 0 0m0 1.6v.2zm.3.3-.2-.1zm0-1.5q-.2 0 0 0m0 3q-.1 0 0 .2m0 6.6q-.2 0 0 0m0 4.4q0 .1 0 0m0-1.3q0-.2 0 0m.4-5.8q-.1 0 0 .2zm0-2v-.2q-.2 0 0 .2m-.1-5.3v.1q.1-.2 0 0m0 4.5h.2q-.1-.1-.2 0m.1 8.9h-.1zm0-5.2q0-.2-.1 0zm0 3.6q-.1 0 0 .1m0-12.5.1.1.2.2c-.1 0-.2-.4-.4-.3Zm0 3.7.1-.2-.2.2m.1.5v2.6zl.3 2.9q0-.2-.3-.3 0 .4.3.3Zm0-.7.3 2h-.2q.1.2.2 0Zm.3 7.2h-.1m.3-4c-.5-1-.7-.3 0 0m-.3 4.7q-.2 0 0 .1m0-1.3v-.2zm0 2.1q0 .2 0 0m.4-3.3c0-.1-.5-.6-.5-.3q.2.5.5.3m-.2-3q.3 0 0 0m.2-1.4q0-.2-.2 0zm0 7.4q-.1-.2-.2 0zm-.1-.8q-.1-.1 0 0m0-9.6q0 .2 0 0m0 3.6v.1m0-4.4c-.1.1.2.1 0 0m0 8.9v.1q.2-.1 0-.1m0-6.6.1-.2zm.2.5v-.8l.1 8.7h.1-.1Zm.2 3.4q-.2.1 0 .2.1-.1 0-.2m0-.5v-.2q-.2.1 0 .2m0 2.9q0-.2-.1 0zm-.1-3.8v.1q.2 0 0-.1m.4-1q.2 0 0-.1zm0 1.4q.1 0 0 0m.5-1c0-.4-.6.1-.5.3q.3 0 .5-.3m-.4-2.6q-.2 0 0 0m0 5q-.2.1 0 .2zm0 .9q-.2-.2 0 0m0-5.3q0 .2 0 0m.3 2.6q0 .2 0 0m.4 1.9" class="cls-1"/><path d="M1558.8 737.7c-3.3.3-4.3-1.8-6-4.2l-7.7-11.8q-.3-.2-.3-.5l-1-1.2-.5-.8c0-.3-.5 0-.7 0-.3.1-.7-.3-1 0l-3-.1q-.8.2-1.7 0c-.7-.1-.4.4-1.2-.3-.2.9-1.3 0-1.8.4h-.2q0-.3-.2-.1-.5.2-1 0c-.4-.3-.7.3-1 0-.5-.1 0 1-.3 1.2 0 .8-.4-.2-.5.3 1.3 1.2.3 6.4.6 8.5l-.2.6q.3.5.2 1.1t-.1 1.3l.1.6v4.7c0 .4-1 .4-1.2.2h-1.4v-.5q-.2-8 0-15.7v-2.5c-.1-.2.3-.1.2-.3q-.5-.5-.2-1.3-.2-.3 0-.6t0-.5q-.2-.7 0-1.4c-.2-.9.3-.2 0-1-.2-.4.3-.3 0-.5s.3-.5 0-.8c-.3-.5 0-1.3 0-1.9-.3-.5 0-1 0-1.6-.3-.5 0-1.3 0-2-.2-.1.2-.2 0-.3-.4-1.1 0-2.6-.1-3.8q-.2-.7.2-1.2v-.2q-.2-.2-.2-.6v-2.6q.3-.2 0-.5 0-.2.3-.3h8.7c4.5.2 9.3-.7 13.6 1.2 8.7 3.5 9.8 14.1 1.3 18.5-.4.3-1 .8-1.6.6 0 .3-.7.6-1 .3h-.2c.2.3-.6.7-.9.5l-.7.2c-.4.3-1.8 0-1.6.6q.8.8 1.2 1.8.8.8 1.2 1.6c-.3.2 0 .4 0 .1q.4.3.3.6l.5.5q.7.8 1.2 1.8l5.8 8.6v.2-.2q.6 1.6 2.1 2c.5.2.6 1.5 0 1.3m-30-22.8v6.7-.2.2Zm.2-4.5q-.2 0-.3.2.3 0 .3-.2m-.1 6.8-.1.1zm0 7.8.1-24.3v24.4-24.4q.2 0 .2-.2l-.2.2Zm.1-14.7q.2 0 .2-.2zm.2-6.2v-.7.2Zm0 11.9q0 .1 0 0m0-.9v.2zm0-12.3q0-.2 0 0m.1-3.8q-.1 0 0 0m0 8.1q-.1 0 0 0m.4 10.8q-.3-.1-.2.2-.3 0-.2.2.1-.3.4-.4m-.3-9.4-.2.1q.3 0 .2-.2m.3 11.6c0-.1-.4-.5-.5-.3.1.1.4.6.5.3m-.2-5.2-.2.2c.2 0 .7-.3.2-.2m0-13.5v7l.2-.1-.2.1Zm.2 10.6q0-.2-.2 0zm-.2 11 .1.1c.2 0-.1-.2 0 0m0-1.4q.3 0 0-.1zm.2-.8h-.2q.2.2.2 0m-.1-11.1q-.1 0 0 0m0 9.6v.1zm0-8.9v.1m0 6.7q0 .2 0 0m0-11q-.3-.1 0 0m0 .6q-.2.1 0 0m0-4.3q0-.1 0 0m0 25v.1m.1-23.8-.1.2zm0 22.4q-.2 0 0 0m0-12.7V705l.3 11.7-.3-.2.3.2Zm0-2v-7.7q.4-.2.2-.2l-.2.2Zm.5.5.2-.6h-.2l-.4.2q0 .4.4.4m-.4-6.7v8.1l.2-.1-.2.1Zm.2 22q0 .2 0 0m0-26.6q-.1 0 0 0m0 19.9v.1zm0-12.6v.1q.2 0 0 0m0 4.5q0 .1 0 0m.2-6.5-.2-.2v.1zm0 13.4v-.4q-.4.2 0 .4m-.2 16v.1m0-31 .2.1.1.3q0-.3-.3-.4m.2 2.8.3 4.8h-.3q.2.4.3 0Zm0 11.8v.5-13.5q0 .3.1.2l-.1-.2Zm0-11.8v-6q.3-.1.1-.2v.1Zm0 13.1q.2.1.2 0zm.1 8.9q0 .2.1 0zm0-8.2q.2.2 0 0m0 6.8q.2 0 0-.1zm.1-18.6q-.2 0 0 0m.3 7.7c-.1-.1-.3-.5-.4-.3 0 .1.4.6.4.3m-.4-9.2q.2 0 0 0m0 14.7v.2q.1 0 0-.2m0-.7v.2q.2-.1 0-.2m.1-3.6q-.2.2 0 0m-.1 18.5q.1 0 0 0m0-26 .1.1q0-.1 0 0m.1-7.2q0-.3 0 0m0 10.3q0-.2 0 0m0-1.8.3-.1q-.2 0-.2.2m.4 6.5q0 .2 0 0m0-4.4q0 .2 0 0m-.1 1.5.4-.3c0-.2-.5.2-.4.3m0 12.5v.1m0-20v.1m.1-3.5q0-.2-.1 0zm-.1 19.2q0-.2 0 0m.1 3v-.2q-.2.2 0 .1m0-27.5q-.1 0 0 0m0 9.6.1-.2zm.1 8.8-.2.1zm14.7.7q3.7-.5 6.5-3l.7-.7a10 10 0 0 0 1.9-8.5l-1-2.5q-.8-.8-1.3-1.7-1.4-1.4-3.3-2.1c-.2-.2 0-.5-.4-.5-.2.5-.9-.2-1.2-.1q-2.4-.4-4.6-.4h-1.4l-6.1.1q-.4-.1-.8 0h-2.6c-1.4.5-.2 2.5-.8 3.6l.1.4c.1.7-.2 1.5 0 2.1v2.4c-.3.3.3.7-.2 1l-.2.2q.5 0 .4.3v2.4c-.6.1.1.5 0 .8-.2 2 .5 4.4-.2 6 4.2.3 8.6-.1 12.8.2a3 3 0 0 1 1.8 0Zm-14.7-.8.1-11.2Zm.3 3q0-.2-.2-.2zm-.1 8.6q0 .2 0 0m0-30.1v-.2zm0 1.3q0 .1 0 0m.3 18.1q.2.2 0 0m3 0q0 .2 0 0m1.3.6q0-.2-.2-.2zm2.9-.1-.1-.1m2.7-.1q0-.4-.2-.3zm2.7 1.2v.2zm.6-.3-.1-.1q-.2 0 .1.1m0 .5v-.5zq.5-.1 0-.4Zm.2-1.7q0-.1 0 0m.3.3q0 .2 0 0m.1 1.5q-.2.2 0 0m.4 1.2q0-.2-.1 0m0-.8h-.2zm0-2.5.3 3.6Zm.3 2.1.2.1zm0-.7q0-.2 0 0m.2.9.3 1q0-.2-.2 0h.1Zm.6.6q0-.2-.1 0zm0-.7q-.2 0 0 0m.1-1.7-.2.2zm.2-.2-.2.2zm1 4.2q-.4 0-.4-.3-.5 0-.2.3.4.5.6 0m-.5.8-.1-.2zm0 .3v-.3zq.6-.1 0-.3Zm0-1.5q.4 0 .5.3c.5 0-.3-.9-.4-.3m.3 2.2v-.2q-.2 0 0 .2m.4-1.2q-.3.1 0 .1m-.1-4.5v.2zm.8 6q-.2-.1-.4.2.2.1.4-.2m-.2-25.5.2 18.7Zm.5 26.5q0 .2 0 0m.4-26.2q.2.2 0 0m0 25.8q0 .1 0 0m.1-7.1q0-.3-.1-.1zm.6 7.3q.1 0 0-.1zm.6-7.6.2 11.2Zm.6-17.3q0-.2-.1-.1zm.7 14.8-.1-.1m0 .8q-.1 0 0 0m.2-14.4.2-.1zm.5 12.9v-.2zm0 .6q.1.1 0 0m1.3-11.6V701l.3 2.5q-.2-.1-.2.1l.2-.1Zm.2.5q0 .2 0 0m0 30.5q0-.2 0 0m0-21.6q.1 0 0 0m.3-.2v-.2q-.1 0 0 .2m0-10.4h.2q-.2-.2-.1 0m.4 4q.1.1 0 0m0-3.6q.3-.1 0-.2zm0 2.2.1-.2zm0 28.1q.1 0 0 0m.1.7q0 .2 0 0m.3-30.7q.2.2 0-.1m0 8.8q0 .2 0 0m.1.8q.2 0 0 0m0-5.1q0-.2-.1 0m0 3q-.2 0 0 0m.2 23.3v-.2zm0-30.5q0 .1.2 0zm0 4.5h.2q-.1-.1-.2 0m.1 2.2q.1-.1 0-.1m0-5.2q-.1-.2 0 .1zm0-.6v-.2zm.4 4.8q0-.3-.1-.1 0 .2.1 0m0 1.4q0-.2-.1 0zm0-.8q0 .1 0 0m0-1.5q0 .2.2 0m-.1-.7c.3 0 0-.2 0 0m.2 3.6.3-5.4q0-.2-.2 0h.2Zm.3-1.7q0-.2-.1 0zm0-.8q-.2.1 0 0m.2 1.1q0 .2.2.1 0-.2-.2 0m0-1.5.2.1q0-.1-.2 0m0-1.4h.2zm.1 2.2q0 .1.1 0zm.3-2.6q.1-.2 0 0m.5 1.1q-.1 0 0 0m0 .8c.1-.2-.2-.1 0 0m0 1.4q-.1 0 0 .1zm0-.7q-.2 0 0 0m.3-1q0-.3 0 0" class="cls-1"/><path d="M1603.4 737.7q-.3-.2-.6 0h-2.4c-1.2-.3-2.5 0-3.6 0l-4.7-.1c-.8.1-1.8-.2-2.6.1l-.4-.1c-.6.3-1.2-.2-1.8 0l-3 .1h-.7q-.7-.2-1.5 0h-.6l-.6-.1h-.7q-.7.2-1.3 0-.4.2-1 0h-.5l.1-1.2v-3.3c-.2-.1.1-.3 0-.5v-2q-.2-3.3 0-6.4v-2.3q-.2-.6 0-1v-.1c-.3-.5 0-1.1 0-1.7-.2-.5.1-.9 0-1.3q-.2-.6.1-1.3v-.2c-.4-.2 0-.5-.1-.9q-.2-.5 0-1v-.5q-.2-.2 0-.5v-3.7c-.1-.3.2-.5 0-.8V707c.1-.5-.3-1 0-1.5.2-.3-.3-.7.3-.7q-.7-1 0-1.9c-.6 0-.4-.7-.3-1 .3-.3-.2-.5 0-.8s-.3-.6 0-.9v-.1c-.3-.3 0-.7 0-1v-.8c0-.4-.2-.9.3-.8h9c.4-.2.8.2 1.1 0h3c.2.1 1-.2 1 .3q.3-.2.7-.2.4-.2 1 0c1-.3 2 0 3 0 .3-.3.5.2.8 0 .2-.3.5.2.7 0 .3-.3.4.2.7 0h1.4l3.2-.1q.3 0 .3.2c.4 2-.3 1.5-1.8 1.5-.3-.3-.7.2-1-.2l-.5.2-.4-.2q-4 0-7.7-.3c-.5.3-1.1-.2-1.7 0q-.3.1-.3-.2c-.6.5-1.5.1-2.2.1l-4 .1h-3.5q-.6-.2-.6.4l-.2.4c.6.8.2 1.8.2 2.7q.2 1.9 0 4c-.2.8.3 1.9 0 2.7q-.5 0 0 .3.2 1.8 0 3.6c.2 5-.8 3.2 4.7 3.6h10.8c.7-.5 1.4 1.3.4 1.1h-13.2c-3.2-.1-2.6-.3-2.6 2.7v15.9c-.1.8 1.6.2 2.2.3l2.6.1q7.1-.1 14.2-.5h1.4q.3.2.6 0c.7.3 2.7-.8 2.7.5 0 .3.2 1.4-.4 1.2m-25.6-34.7.2-.2q-.1-.2-.2.1m0 1.8q0 .3.3.3 0-.3-.3-.3m.3 7.7v-.4q-.5.2 0 .4m-.2 2.9q.1 0 0-.1m.1-14.9q-.2.2 0 0m0 7.4q-.2 0 0 0m0 23.7q0 .1 0 0m0-21.3v-.2zm0 .6q-.1 0 0 0m0 14.8q0-.2 0 0m0-17v.1zm0-7.4q0-.1 0 0m.1 3.1v8.6-7.5q.5-.3 0-.4v.4Zm0 6 .4 2.1h-.4v.4q.3 0 .4-.4Zm0-6v7.7l.3-3.9h-.2q.1.3.2 0Zm.2 23.8v.1m0 5.3q0 .2 0 0m0-31.1q0-.2 0 0m.3 5.3-.3-.2q0 .3.3.2m-.2 22.7q-.2-.1 0 .1m.4-24.6c-.2-.3-.8.3-.3.4zm-.3-2.9-.2.2q.3 0 .2-.2m0 7.1.2-2.1-.1-.2v.2Zm0 2.5v-6.2l.3 3.9q0-.2-.2-.2 0 .2.2.2Zm.3-9.8q-.2 0-.2.2zm0 1.5h-.2zm-.1-5v-.2zm.4 9.8c-.2 0-.8.3-.3.6 0-.3.4-.4.3-.6m-.4-5.6v.2zm0 9.8v-.1q-.1 0 0 .1m0 15.5q0 .2 0 0m0-6.7q0-.2 0 0m0-8.1q0-.1 0 0m0-13.3v-.1m0 22.2v-.1m0-4.5q0-.1 0 0m0 17q.2 0 0 0m0-.7v-.1m.3-27.2-.2-.2q0 .3.2.2c0 .5.4 0 0 0m-.2 4.1v-1.9zl.2-9.4v27-.1Zm.3-8.4v-.1zm0 3.8v-.1m0-6.1q.1 0 0-.1m0 .9v-.1m0 2.8q.2.2 0 0m.2-.9q-.2 0-.2.2zm-.2 22.5v-.1Zm0-1.6q0 .2 0 0m.2 11.8h-.2zm0-.2v.2zm0-32.5.1-5.2v-.1Zm0 28.8h.2-.1m0-23.7h.2zm.1 2.9q.1-.1 0 0m.1 2.8-.1.2zm-.1-2q.1 0 0-.1m0 7.4q.1 0 0-.1m0-13.5v.2zm.5-1.8-.2-.4c.2-.5-.5 0-.2.3 0 .1.4.5.4.1m-.4 27.2v-.1m0-28.8.3.2q0-.2-.2-.2Zm.3 11.4-.2.1zm0-.9q.1.2 0 0m0 13.4q0-.2 0 0m.2-24.6v10.6l.2-14.5Zm11.8-4.4.6 19.4Zm2.4.5q0 .2.2.1zm1.4.1h.2zm1-.3.2 38.3v.1Zm2.8.3v-.1m.4.4q.2 0 0-.2zm.4-.4v-.1m.4.3q-.2 0 0 0m.6 38.5q.1 0 0 0m0-38.6h.1m.8.2v-.1m.7-1v.2zm.4.6" class="cls-1"/><path d="M1647 731c-4.7 8.8-19.2 9.2-26.2 3.3-1.5-1.1-.1-1.3.7-2.2.2-.6 1.3 1.8 2 2 4.5 3.8 11.7 3.9 16.8 1v.2-.2c2.8-1.4 4.9-4.7 3.7-7.8l-1.4-2.3q-.4-.3-.6-.7v-.1c-.5.2-.7-.3-1-.6-.3 0-1.3-.6-1.1-1l-.3.1c-.3.3-.7-.3-1-.4-.4 0-1.2-.3-1.4-.8-.3 0-1.5-.4-1.4-.8h-.8l-4.5-2.4q-.7-.5-1.4-.7-.5-.1-.8-.4l-3.4-1.7q0-.4 0 0-1-.5-1.6-1-.5 0-.8-.5c-1.2-.8-2.8-2-3.1-3.5l-.2-.1q-.4-.3-.3-.7c.1-.4-.3-.4-.3-.6 0-.7-.6-1.7-.1-2.2.3-.1-.6-.5.2-.6-.7-1.4 1.2-4 2.3-5 3.8-3.7 10-4.9 15.3-4.1q1.5.1 3 .7c1.4 0 6.5 2.6 6.5 4-.4.3-1.5 1.7-1.8 1.2-1.4-2.4-4-3.8-6.6-4.5q-.3-.2-1-.2h-.7l-.6-.3q-.4.2-.6.1c-.8-.3-1.8.2-2.5-.2-4.2.8-9.4 2.5-10.4 7.3.3.3-.2.7.1 1v.8l.2.7v.2q.5.4.6 1c.3 1 1.6 1.7 2.3 2.6l.5.1 1 .7 2 1q.8.3 1.3.8 2.3.7 4.5 2.2c1.6.5 3 1.6 4.6 2.1l1.1.7.1.1q0 .3.2.2c.5-.1 1 .4 1.4.6.8.1 1.3.7 2 1l-.1.1h.1c.7.7 2.2 1.3 2.2 2.3v-.2c1.2 1.2 2 3.2 1.8 4.9.5.8-.3 2-.5 3Zm-28.3-23.3v-1.4zl.2-.6q0 .1 0 0Zm.2-2.7q0-.1 0 0m.3.5q-.2 0-.3.2.3 0 .2-.2m0 0 .2 3.4-.2.1h.2Zm0 2.8q0-.1 0 0m.2-1q-.4.3 0 .4v-.3c.7-.2.2-.6 0 0m-.2-.6.2.1q0-.1-.2 0m0-2.2q0 .1.1 0m.2 5.1-.1.2zm.1-1.9v1.9l.2-1q0 .1 0 0Zm.2-2.7v-.1zm0 1.5v-.2zm0-2.3q0 .2 0 0m0 6q0-.2 0 0m.4-5q-.3.1-.4.4c0 .2.3-.2.4-.3m-.2 2.4h.2q-.1-.3-.2 0m.2 2q-.2 0-.1.2.2 0 0-.2m0-1.3q0-.2-.1-.1 0 .2.2 0m-.1-4.5q.2 0 0 0m.1 2.2h.1m0 .7q-.1.1 0 .1m0-2.1q0 .1.2 0m0 4.4v.2zm0 .2.3-1.2q.1-.1 0-.2-.2.1 0 .2Zm.4-2q0-.2-.1-.1-.1.2.1 0m-.1-2.3q0-.1 0 0m.4 4.8c-.1 0-.5.4-.3.5.1-.1.5-.4.3-.5m-.2-1.2v-2.2zv-2.2q.4 0 .5.3c.4-.1-.5-.9-.5-.3Zm.3 2q-.2-.2-.2 0zm-.2-6q.4.1 0 0m0 3q0 .1.2 0zm.2-2.2h-.2zm0 5.9h-.2q.2.2.1 0m-.2-8.1h.1m.1 3.7q0 .2 0 0m.3 2v2.8Zm.2 2h-.2zm-.2-1.5q.1.1.1 0m.5 1.1q-.1-.3-.5-.3c.1.2.3.7.5.4m-.3-4.9v2.2zq.3 0 .3-.3zm.1 5.7q.1.2.2 0zm.1-2.3v.2q.2 0 0-.2m0 .9q.2 0 0-.1zm.1 2.1v.1m.4.4q-.2-.1-.1.1.1 0 0-.1m-.1-3.7q0 .2 0 0m.2 3.2.2-2.7v-.2.2Zm.2-.6q0 .2 0 0m0-1.5v.1zm.2 4.3.2-1.7q-.2 0 0 0Zm.2-2.5q-.2 0 0 .2zm-.1-1.4h.1zm.4 1.2q.2-.2-.2-.2-.2-.6-.2-.2.3.1.4.4m0 1.3v.2q.1 0 0-.2m0-.7v.2zm.2 1.8h.3zc0 .3.4.3.3 0Zm.1-2.1h.2zm0-.8h.1m.3 2.9.2-1.7v-.1q-.1 0 0 .1Zm.6-.7s-.4-.5-.5-.3q.1.4.4.3m0 1.5q0 .2 0 0m-.1-2.1q0-.2-.1 0m.5 1.1q-.1-.2-.1 0zm.1-1.4.2.2q0-.2-.2-.2 0 .2.2.2Zm.3 2.5-.1-.1c-.2 0 0 .3 0 0m.2-.4q0-.2-.2-.2v-.2q-.1.2.2.4m0-.7q.2 0 0-.1m0-.8.2-.1-.1.1m.2 2v-2.2q.3 0 .2-.2l-.1.2Zm.3-1.6q-.1-.1-.2 0 .1.1.2 0m0 .6q-.3.1-.1.2zm0 1.6q-.1-.1-.1 0m.2-1.8h.1q-.2-.2 0 0m.4-.4h.1q-.1-.1-.1 0m.1 1.5q-.1-.2-.2 0zm-.1-.8q0-.2 0 0m.5 1.9q-.2 0 0 0m0-1.5v-.2zm0 .5h.1v-.7l.2 2Zm.3.7v-.2zm.5-.4q0-.2-.2-.1 0 .2.2 0m0 .7h-.2zm0-1.7q.3 0 .3-.2-.2 0-.3.2m.3.5q-.1 0 0 0m.3-.3v-.1q-.1.1 0 .1m0 1.4c.8-.3.3-.8 0 0m0-.7v.2q.2-.1 0-.2m0-1.5h.1m.4 2.6v-.2m.5-1.1h-.2q0 .1.1 0m0 .7q-.2.2 0 0m.3.5q0-.2-.2-.1-.1.2.2 0m-.1-.6q0-.3 0 0m0-.9v-.1c0-.1 0 .2 0 0m.5 1.8h-.2q0 .1.2 0m0 .8q0-.1-.2 0zm-.2-2.3h.1m.6 1.5h.3c-.6-.8-1.4-1.2-.3 0m-.2.4v-.1zm.1.8v-.2.1m.2-.5q0 .2.2 0zm0-1.4h.2zm.5.4v-.1q0 .1 0 0m.3 1q0 .2.2 0zm.4-1.1q0 .2 0 0m.2.7h-.2q0 .1.2 0m.2.4q0 .1 0 0m.4-1q0-.1 0 0m.3 2.5q.1 0 0-.2m.1-2.2q-.1.2 0 0m.2.3q0 .2 0 0m0 1.6h.1q.2-.1 0 0m.2-20.7q0-.2-.1-.1m0 18.5v-.1m0 3v-.1m1.2-1.1-.2-.2q0 .3.2.2m.3 0h-.3c0 .4.4.4.3 0m0 1.8q.2 0 0 0m0-1.7.4-1h-.1q-.1.1 0 0Zm.3 1.3v-.1zm.1-21.3V718l.3 1h-.1Zm.3 20.1q-.1 0 0 .1m.3.5v-.1zm0 .8v-.2zm.2.7-.2-.1zm-.2-2.4q0 .2.2.3 0-.2-.2-.2m.1-19.9q-.1.2 0 0m.1 22.4v.4q.5-.2 0-.4m.3-2c.4-.5 0-.4-.3-.2q0 .3.3.1m0 .7q-.2 0 0 .1m.2 1.2.1-.1q-.2 0 0 0m.2.5-.2.2zm-.2-2.1h.2zm.2 1v1zv-1.1l.2-.2-.2.2Zm.3-.6h-.2zm.3.4q.2-.2 0 0m.2.6.4 1.4q-.2-.4-.4 0h.4Zm0 0h.4q-.2-.6-.4 0m.4.3v-.3zh.3q0-.4-.3-.3Zm0 1.1.1.3zm0-2h.2q0-.1-.2 0m.3.9c0 .2-.4.4-.2.6q.3 0 .5-.4 0-.2-.3-.2m.1-1.3q.2 0 0 0m0 .7q.1.1.2 0zm.1 1.5q.2 0 0 0m.3-.2c.2 0 .4.4.5.2s-.5-.6-.5-.2m0-.9q.2.2.1 0m.2-.7c-.3 0-.1.3 0 0m-.2-.7.2-.2zm.1 2.8q.1.2 0 0m.5-1h-.2q0 .2.1 0m-.1-.7q.3 0 .4-.4c0-.2-.7.3-.4.4m.1 2.3.2-2q.2.1 0 0Zm.3-.6q-.3 0-.1.2.1 0 0-.2m.7.9q-.2 0-.2.2zm-.1-.8q0-.1-.1 0m.2-.8c-.1-.2-.3.2 0 .2zm.3-.3q-.2 0 0 0m.4 1.9h-.2zm0-1.5q0-.2-.2-.1 0 .2.2 0m-.1.7q0 .2 0 0m.7.8c0-.2-.5.2-.3.3zm-.2-1.4.3.6Zm.7 2.5-.1-.1q-.2.3 0 0m-.1-.8q.2.2 0 0m0-1.5.1.2zm.2.2.2-21.3Zm.6 2.1q0-.2-.2 0zm.1-.8h-.2q-.1.1.1 0m-.1-.8q-.2.1 0 0m-.1-.7q0 .2.1 0zm.6 1.7-.2.2zm0 0 .2.5v.2q.1-.1 0-.2Zm.2-.9q0-.2 0 0m.4 1.8q0 .1 0 0m0-1.4v-.1q-.1 0 0 0m.4 2.5h-.2zm.3-.3q0-.2 0 0m.4 2.6q.2 0 0 0m0-2.2v-.1zm.3 6.9q.2.2 0 0m0-2.1q0-.1 0 0m0-1.5q0-.2 0 0m.4-1.2q0 .2 0 0m0-1.5v.2q.1-.1 0-.2m0-1.3v-.1m.4 3.3v-.1q-.2.2 0 0m0-3q-.2 0 0 0m0 5.2v-.1zm.8-2.3q-.2 0 0 0m0-.6v-.2q-.1.1 0 .1m0 1.4q0-.1-.1 0zm0 2.2q-.1 0 0 0m.3-4.1" class="cls-1"/><path d="M1190.4 748.7v-61.1c-.8-.6-1.7 0-2.6-.2-.3.2.3.7 0 1v1.7q.2.6 0 1.3.2 1.6 0 3v1.8c.1 1.1-.2 2.4 0 3.5q-.2.5 0 1v1c.4 1-.6 2.9.3 3.4l-.3.7v2.8c.2.4-.2.7 0 1s-.2.7 0 1v16q-.2 2 0 4v2.5c-.1.8.2 1.8 0 2.6.2.6-.1 1 0 1.6.2.7-.1 1.6 0 2.2v.8c-.3 1.2.3 2.4 0 3.5q-.1.1 0 .4c.2.4-.2.9 0 1.4 0 .8-.3 1.8 0 2.5v1.4q0 .3.2.3c.6.2 1.3-.2 2 0q.6-.1.4-1Z" class="cls-1"/></svg>